{
.appVersion = "3091";
DisplayStrings = (
"123456789x\012XLVpkivo.-*/_areas"
);
copyright = "Copyright (c) 2011-2015 by tyPoland Lukasz Dziedzic (http://www.typoland.com/) with Reserved Font Name \"Lato\". Licensed under the SIL Open Font License, Version 1.1 (http://scripts.sil.org/OFL). ";
customParameters = (
{
name = description;
value = "Letterspacer Test Font is a derivative of the Lato fonts, made for distribution alongside the HT Letterspacer software, to use as a demo/trial font.";
},
{
name = license;
value = "Copyright (c) 2011-2015 by tyPoland Lukasz Dziedzic (http://www.typoland.com/) with Reserved Font Name \"Lato\". Licensed under the SIL Open Font License, Version 1.1 (http://scripts.sil.org/OFL). ";
},
{
name = licenseURL;
value = "http://scripts.sil.org/OFL";
},
{
name = Axes;
value = (
{
Name = Weight;
Tag = wght;
},
{
Name = Width;
Tag = wdth;
}
);
}
);
date = "2016-02-03 02:56:06 +0000";
designer = "Lukasz Dziedzic with Adam Twardoch and Botio Nikoltchev";
designerURL = "http://www.latofonts.com/";
familyName = "Letterspacer Test Font";
featurePrefixes = (
{
automatic = 1;
code = "languagesystem DFLT dflt;\012";
name = Languagesystems;
}
);
features = (
{
automatic = 1;
code = "feature sups;\012feature frac;\012feature ordn;\012";
name = aalt;
},
{
automatic = 1;
code = "sub one by onesuperior;\012sub two by twosuperior;\012sub three by threesuperior;\012";
name = sups;
},
{
automatic = 1;
code = "sub one slash four by onequarter;\012sub one slash two by onehalf;\012sub three slash four by threequarters;\012";
name = frac;
},
{
automatic = 1;
code = "sub [zero one two three four five six seven eight nine] [A a]' by ordfeminine;\012sub [zero one two three four five six seven eight nine] [O o]' by ordmasculine;\012";
name = ordn;
},
{
automatic = 1;
code = "sub f i by fi;\012sub f l by fl;\012";
name = liga;
}
);
fontMaster = (
{
ascender = 805;
capHeight = 700;
customParameters = (
{
name = paramArea;
value = "500";
},
{
name = paramDepth;

glyphs = (
{
glyphname = A;
lastChange = "2021-09-03 08:48:20 +0000";
layers = (
{
layerId = "7DA69401-B8BB-4CEF-A33A-65E5ADA83450";
paths = (
{
closed = 1;
nodes = (
"535 249 LINE",
"363 663 LINE SMOOTH",
"361 667 OFFCURVE",
"360 670 OFFCURVE",
"359 674 CURVE",
"357 677 OFFCURVE",
"356 681 OFFCURVE",
"355 684 CURVE",
"353 681 OFFCURVE",
"352 677 OFFCURVE",
"351 674 CURVE",
"350 670 OFFCURVE",
"348 667 OFFCURVE",
"347 663 CURVE SMOOTH",
"174 249 LINE"
);
},
{
closed = 1;
nodes = (
"652 0 LINE",
"643 0 LINE SMOOTH",
"640 0 OFFCURVE",
"638 2 OFFCURVE",
"637 5 CURVE",
"539 239 LINE",
"170 239 LINE",
"73 5 LINE",
"72 2 OFFCURVE",
"69 0 OFFCURVE",
"66 0 CURVE SMOOTH",
"58 0 LINE",
"350 700 LINE",
"360 700 LINE"
);
}
);
width = 710;
},
{
layerId = "F36DCCA2-8A71-42CF-9609-F852DF368EC0";
paths = (
{
closed = 1;
nodes = (
"506 266 LINE",
"394 558 LINE SMOOTH",
"387 575 OFFCURVE",
"379 599 OFFCURVE",
"373 625 CURVE",
"366 598 OFFCURVE",
"359 575 OFFCURVE",
"351 557 CURVE SMOOTH",
"239 266 LINE"
);
},
{
closed = 1;
nodes = (
"708 0 LINE",
"633 0 LINE SMOOTH",
"616 0 OFFCURVE",
"606 10 OFFCURVE",
"600 23 CURVE SMOOTH",
"533 196 LINE",
"212 196 LINE",
"145 23 LINE",
"141 11 OFFCURVE",
"129 0 OFFCURVE",
"112 0 CURVE SMOOTH",
"37 0 LINE",
"324 717 LINE",
"422 717 LINE"
);
}
);
width = 745;
},
{
layerId = "A9E408DD-A955-440F-BEB6-B96F0772F152";
paths = (
{
closed = 1;
nodes = (
"497 273 LINE",
"409 514 LINE SMOOTH",
"400 535 OFFCURVE",
"391 565 OFFCURVE",
"381 599 CURVE",
"373 565 OFFCURVE",
"363 535 OFFCURVE",
"354 513 CURVE SMOOTH",
"267 273 LINE"
);
},
{
closed = 1;
nodes = (
"734 0 LINE",
"630 0 LINE SMOOTH",
"607 0 OFFCURVE",
"593 13 OFFCURVE",
"585 31 CURVE",
"531 178 LINE",
"232 178 LINE",
"178 31 LINE SMOOTH",
"172 15 OFFCURVE",
"156 0 OFFCURVE",
"134 0 CURVE SMOOTH",
"28 0 LINE",
"313 723 LINE",
"450 723 LINE"
);
}
);
width = 762;
}
);
leftKerningGroup = A;
note = A;
rightKerningGroup = A;
unicode = 0041;
},
{
glyphname = Aacute;
lastChange = "2021-09-03 08:48:18 +0000";
layers = (
{
layerId = "7DA69401-B8BB-4CEF-A33A-65E5ADA83450";
paths = (
{
closed = 1;
nodes = (
"535 249 LINE",
"363 663 LINE SMOOTH",
"361 667 OFFCURVE",
"360 670 OFFCURVE",
"359 674 CURVE",
"357 677 OFFCURVE",
"356 681 OFFCURVE",
"355 684 CURVE",
"353 681 OFFCURVE",
"352 677 OFFCURVE",
"351 674 CURVE",
"350 670 OFFCURVE",
"348 667 OFFCURVE",
"347 663 CURVE SMOOTH",
"174 249 LINE"
);
},
{
closed = 1;
nodes = (
"652 0 LINE",
"643 0 LINE SMOOTH",
"640 0 OFFCURVE",
"638 2 OFFCURVE",
"637 5 CURVE",
"539 239 LINE",
"170 239 LINE",
"73 5 LINE",
"72 2 OFFCURVE",
"69 0 OFFCURVE",
"66 0 CURVE SMOOTH",
"58 0 LINE",
"350 700 LINE",
"360 700 LINE"
);
},
{
closed = 1;
nodes = (
"496 916 LINE",
"332 772 LINE",
"329 770 OFFCURVE",
"326 769 OFFCURVE",
"323 769 CURVE SMOOTH",
"317 769 LINE",
"457 909 LINE SMOOTH",
"463 915 OFFCURVE",
"467 916 OFFCURVE",
"478 916 CURVE SMOOTH"
);
}
);
width = 710;
},
{
layerId = "F36DCCA2-8A71-42CF-9609-F852DF368EC0";
paths = (
{
closed = 1;
nodes = (
"506 266 LINE",
"394 558 LINE SMOOTH",
"387 575 OFFCURVE",
"379 599 OFFCURVE",
"373 625 CURVE",
"366 598 OFFCURVE",
"359 575 OFFCURVE",
"351 557 CURVE SMOOTH",
"239 266 LINE"
);
},
{
closed = 1;
nodes = (
"708 0 LINE",
"633 0 LINE SMOOTH",
"616 0 OFFCURVE",
"606 10 OFFCURVE",
"600 23 CURVE SMOOTH",
"533 196 LINE",
"212 196 LINE",
"145 23 LINE",
"141 11 OFFCURVE",
"129 0 OFFCURVE",
"112 0 CURVE SMOOTH",
"37 0 LINE",
"324 717 LINE",
"422 717 LINE"
);
},
{
closed = 1;
nodes = (
"562 926 LINE",
"399 783 LINE",
"389 774 OFFCURVE",
"381 773 OFFCURVE",
"367 773 CURVE SMOOTH",
"303 773 LINE",
"419 910 LINE SMOOTH",
"430 925 OFFCURVE",
"439 926 OFFCURVE",
"461 926 CURVE SMOOTH"
);
}
);
width = 745;
},
{
layerId = "A9E408DD-A955-440F-BEB6-B96F0772F152";
paths = (
{
closed = 1;
nodes = (
"497 273 LINE",
"409 514 LINE SMOOTH",
"400 535 OFFCURVE",
"391 565 OFFCURVE",
"381 599 CURVE",
"373 565 OFFCURVE",
"363 535 OFFCURVE",
"354 513 CURVE SMOOTH",
"267 273 LINE"
);
},
{
closed = 1;
nodes = (
"734 0 LINE",
"630 0 LINE SMOOTH",
"607 0 OFFCURVE",
"593 13 OFFCURVE",
"585 31 CURVE",
"531 178 LINE",
"232 178 LINE",
"178 31 LINE SMOOTH",
"172 15 OFFCURVE",
"156 0 OFFCURVE",
"134 0 CURVE SMOOTH",
"28 0 LINE",
"313 723 LINE",
"450 723 LINE"
);
},
{
closed = 1;
nodes = (
"591 931 LINE",
"429 788 LINE SMOOTH",
"416 776 OFFCURVE",
"406 775 OFFCURVE",
"387 775 CURVE SMOOTH",
"298 775 LINE",
"402 910 LINE",
"409 920 OFFCURVE",
"415 925 OFFCURVE",
"423 928 CURVE SMOOTH",
"431 930 OFFCURVE",
"440 931 OFFCURVE",
"454 931 CURVE SMOOTH"
);
}
);
width = 762;
}
);
leftKerningGroup = A;
note = Aacute;
rightKerningGroup = A;
unicode = 00C1;
},
{
glyphname = Acircumflex;
lastChange = "2021-09-03 08:48:19 +0000";
layers = (
{
layerId = "7DA69401-B8BB-4CEF-A33A-65E5ADA83450";
paths = (
{
closed = 1;
nodes = (
"535 249 LINE",
"363 663 LINE SMOOTH",
"361 667 OFFCURVE",
"360 670 OFFCURVE",
"359 674 CURVE",
"357 677 OFFCURVE",
"356 681 OFFCURVE",
"355 684 CURVE",
"353 681 OFFCURVE",
"352 677 OFFCURVE",
"351 674 CURVE",
"350 670 OFFCURVE",
"348 667 OFFCURVE",
"347 663 CURVE SMOOTH",
"174 249 LINE"
);
},
{
closed = 1;
nodes = (
"652 0 LINE",
"643 0 LINE SMOOTH",
"640 0 OFFCURVE",
"638 2 OFFCURVE",
"637 5 CURVE",
"539 239 LINE",
"170 239 LINE",
"73 5 LINE",
"72 2 OFFCURVE",
"69 0 OFFCURVE",
"66 0 CURVE SMOOTH",
"58 0 LINE",
"350 700 LINE",
"360 700 LINE"
);
},
{
closed = 1;
nodes = (
"475 769 LINE",
"465 769 LINE SMOOTH",
"461 769 OFFCURVE",
"458 770 OFFCURVE",
"455 773 CURVE",
"357 885 LINE",
"356 886 OFFCURVE",
"355 887 OFFCURVE",
"355 888 CURVE",
"354 887 OFFCURVE",
"353 886 OFFCURVE",
"353 885 CURVE",
"255 773 LINE",
"251 770 OFFCURVE",
"248 769 OFFCURVE",
"245 769 CURVE SMOOTH",
"235 769 LINE",
"351 901 LINE",
"359 901 LINE"
);
}
);
width = 710;
},
{
layerId = "F36DCCA2-8A71-42CF-9609-F852DF368EC0";
paths = (
{
closed = 1;
nodes = (
"506 266 LINE",
"394 558 LINE SMOOTH",
"387 575 OFFCURVE",
"379 599 OFFCURVE",
"373 625 CURVE",
"366 598 OFFCURVE",
"359 575 OFFCURVE",
"351 557 CURVE SMOOTH",
"239 266 LINE"
);
},
{
closed = 1;
nodes = (
"708 0 LINE",
"633 0 LINE SMOOTH",
"616 0 OFFCURVE",
"606 10 OFFCURVE",
"600 23 CURVE SMOOTH",
"533 196 LINE",
"212 196 LINE",
"145 23 LINE",
"141 11 OFFCURVE",
"129 0 OFFCURVE",
"112 0 CURVE SMOOTH",
"37 0 LINE",
"324 717 LINE",
"422 717 LINE"
);
},
{
closed = 1;
nodes = (
"533 773 LINE",
"468 773 LINE SMOOTH",
"460 773 OFFCURVE",
"448 774 OFFCURVE",
"437 788 CURVE SMOOTH",
"378 858 LINE",
"372 867 LINE",
"366 858 LINE",
"308 788 LINE SMOOTH",
"296 774 OFFCURVE",
"285 773 OFFCURVE",
"277 773 CURVE SMOOTH",
"214 773 LINE",
"334 909 LINE",
"414 909 LINE"
);
}
);
width = 745;
},
{
layerId = "A9E408DD-A955-440F-BEB6-B96F0772F152";
paths = (
{
closed = 1;
nodes = (
"497 273 LINE",
"409 514 LINE SMOOTH",
"400 535 OFFCURVE",
"391 565 OFFCURVE",
"381 599 CURVE",
"373 565 OFFCURVE",
"363 535 OFFCURVE",
"354 513 CURVE SMOOTH",
"267 273 LINE"
);
},
{
closed = 1;
nodes = (
"734 0 LINE",
"630 0 LINE SMOOTH",
"607 0 OFFCURVE",
"593 13 OFFCURVE",
"585 31 CURVE",
"531 178 LINE",
"232 178 LINE",
"178 31 LINE SMOOTH",
"172 15 OFFCURVE",
"156 0 OFFCURVE",
"134 0 CURVE SMOOTH",
"28 0 LINE",
"313 723 LINE",
"450 723 LINE"
);
},
{
closed = 1;
nodes = (
"560 775 LINE",
"470 775 LINE SMOOTH",
"460 775 OFFCURVE",
"445 776 OFFCURVE",
"430 794 CURVE",
"389 847 LINE SMOOTH",
"385 851 OFFCURVE",
"383 855 OFFCURVE",
"381 858 CURVE",
"380 855 OFFCURVE",
"377 851 OFFCURVE",
"374 847 CURVE SMOOTH",
"333 794 LINE",
"317 776 OFFCURVE",
"302 775 OFFCURVE",
"292 775 CURVE SMOOTH",
"207 775 LINE",
"327 912 LINE",
"439 912 LINE"
);
}
);
width = 762;
}
);
leftKerningGroup = A;
note = Acircumflex;
rightKerningGroup = A;
unicode = 00C2;
},
{
glyphname = Adieresis;
lastChange = "2021-09-03 08:48:20 +0000";
layers = (
{
layerId = "7DA69401-B8BB-4CEF-A33A-65E5ADA83450";
paths = (
{
closed = 1;
nodes = (
"535 249 LINE",
"363 663 LINE SMOOTH",
"361 667 OFFCURVE",
"360 670 OFFCURVE",
"359 674 CURVE",
"357 677 OFFCURVE",
"356 681 OFFCURVE",
"355 684 CURVE",
"353 681 OFFCURVE",
"352 677 OFFCURVE",
"351 674 CURVE",
"350 670 OFFCURVE",
"348 667 OFFCURVE",
"347 663 CURVE SMOOTH",
"174 249 LINE"
);
},
{
closed = 1;
nodes = (
"652 0 LINE",
"643 0 LINE SMOOTH",
"640 0 OFFCURVE",
"638 2 OFFCURVE",
"637 5 CURVE",
"539 239 LINE",
"170 239 LINE",
"73 5 LINE",
"72 2 OFFCURVE",
"69 0 OFFCURVE",
"66 0 CURVE SMOOTH",
"58 0 LINE",
"350 700 LINE",
"360 700 LINE"
);
},
{
closed = 1;
nodes = (
"291 818 OFFCURVE",
"277 805 OFFCURVE",
"263 805 CURVE SMOOTH",
"247 805 OFFCURVE",
"235 818 OFFCURVE",
"235 832 CURVE SMOOTH",
"235 848 OFFCURVE",
"247 860 OFFCURVE",
"263 860 CURVE SMOOTH",
"277 860 OFFCURVE",
"291 848 OFFCURVE",
"291 832 CURVE SMOOTH"
);
},
{
closed = 1;
nodes = (
"475 818 OFFCURVE",
"461 805 OFFCURVE",
"447 805 CURVE SMOOTH",
"431 805 OFFCURVE",
"419 818 OFFCURVE",
"419 832 CURVE SMOOTH",
"419 848 OFFCURVE",
"431 860 OFFCURVE",
"447 860 CURVE SMOOTH",
"461 860 OFFCURVE",
"475 848 OFFCURVE",
"475 832 CURVE SMOOTH"
);
}
);
width = 710;
},
{
layerId = "F36DCCA2-8A71-42CF-9609-F852DF368EC0";
paths = (
{
closed = 1;
nodes = (
"506 266 LINE",
"394 558 LINE SMOOTH",
"387 575 OFFCURVE",
"379 599 OFFCURVE",
"373 625 CURVE",
"366 598 OFFCURVE",
"359 575 OFFCURVE",
"351 557 CURVE SMOOTH",
"239 266 LINE"
);
},
{
closed = 1;
nodes = (
"708 0 LINE",
"633 0 LINE SMOOTH",
"616 0 OFFCURVE",
"606 10 OFFCURVE",
"600 23 CURVE SMOOTH",
"533 196 LINE",
"212 196 LINE",
"145 23 LINE",
"141 11 OFFCURVE",
"129 0 OFFCURVE",
"112 0 CURVE SMOOTH",
"37 0 LINE",
"324 717 LINE",
"422 717 LINE"
);
},
{
closed = 1;
nodes = (
"323 819 OFFCURVE",
"316 805 OFFCURVE",
"306 795 CURVE SMOOTH",
"296 785 OFFCURVE",
"281 779 OFFCURVE",
"267 779 CURVE SMOOTH",
"253 779 OFFCURVE",
"239 785 OFFCURVE",
"229 795 CURVE SMOOTH",
"219 805 OFFCURVE",
"213 819 OFFCURVE",
"213 833 CURVE SMOOTH",
"213 849 OFFCURVE",
"219 863 OFFCURVE",
"229 873 CURVE SMOOTH",
"239 883 OFFCURVE",
"253 889 OFFCURVE",
"267 889 CURVE SMOOTH",
"281 889 OFFCURVE",
"296 883 OFFCURVE",
"306 873 CURVE SMOOTH",
"316 863 OFFCURVE",
"323 849 OFFCURVE",
"323 833 CURVE SMOOTH"
);
},
{
closed = 1;
nodes = (
"532 819 OFFCURVE",
"525 805 OFFCURVE",
"515 795 CURVE SMOOTH",
"505 785 OFFCURVE",
"491 779 OFFCURVE",
"477 779 CURVE SMOOTH",
"461 779 OFFCURVE",
"448 785 OFFCURVE",
"438 795 CURVE SMOOTH",
"428 805 OFFCURVE",
"422 819 OFFCURVE",
"422 833 CURVE SMOOTH",
"422 849 OFFCURVE",
"428 863 OFFCURVE",
"438 873 CURVE SMOOTH",
"448 883 OFFCURVE",
"461 889 OFFCURVE",
"477 889 CURVE SMOOTH",
"491 889 OFFCURVE",
"505 883 OFFCURVE",
"515 873 CURVE SMOOTH",
"525 863 OFFCURVE",
"532 849 OFFCURVE",
"532 833 CURVE SMOOTH"
);
}
);
width = 745;
},
{
layerId = "A9E408DD-A955-440F-BEB6-B96F0772F152";
paths = (
{
closed = 1;
nodes = (
"497 273 LINE",
"409 514 LINE SMOOTH",
"400 535 OFFCURVE",
"391 565 OFFCURVE",
"381 599 CURVE",
"373 565 OFFCURVE",
"363 535 OFFCURVE",
"354 513 CURVE SMOOTH",
"267 273 LINE"
);
},
{
closed = 1;
nodes = (
"734 0 LINE",
"630 0 LINE SMOOTH",
"607 0 OFFCURVE",
"593 13 OFFCURVE",
"585 31 CURVE",
"531 178 LINE",
"232 178 LINE",
"178 31 LINE SMOOTH",
"172 15 OFFCURVE",
"156 0 OFFCURVE",
"134 0 CURVE SMOOTH",
"28 0 LINE",
"313 723 LINE",
"450 723 LINE"
);
},
{
closed = 1;
nodes = (
"338 816 OFFCURVE",
"330 799 OFFCURVE",
"318 787 CURVE SMOOTH",
"306 775 OFFCURVE",
"288 768 OFFCURVE",
"270 768 CURVE SMOOTH",
"252 768 OFFCURVE",
"236 775 OFFCURVE",
"224 787 CURVE SMOOTH",
"212 799 OFFCURVE",
"204 816 OFFCURVE",
"204 834 CURVE SMOOTH",
"204 852 OFFCURVE",
"212 869 OFFCURVE",
"224 881 CURVE SMOOTH",
"236 893 OFFCURVE",
"252 901 OFFCURVE",
"270 901 CURVE SMOOTH",
"288 901 OFFCURVE",
"306 893 OFFCURVE",
"318 881 CURVE",
"330 869 OFFCURVE",
"338 852 OFFCURVE",
"338 834 CURVE SMOOTH"
);
},
{
closed = 1;
nodes = (
"558 816 OFFCURVE",
"551 799 OFFCURVE",
"539 787 CURVE SMOOTH",
"526 775 OFFCURVE",
"509 768 OFFCURVE",
"491 768 CURVE SMOOTH",
"473 768 OFFCURVE",
"456 775 OFFCURVE",
"444 787 CURVE SMOOTH",
"432 799 OFFCURVE",
"424 816 OFFCURVE",
"424 834 CURVE SMOOTH",
"424 852 OFFCURVE",
"432 869 OFFCURVE",
"444 881 CURVE SMOOTH",
"456 893 OFFCURVE",
"473 901 OFFCURVE",
"491 901 CURVE SMOOTH",
"509 901 OFFCURVE",
"526 893 OFFCURVE",
"539 881 CURVE",
"551 869 OFFCURVE",
"558 852 OFFCURVE",
"558 834 CURVE SMOOTH"
);
}
);
width = 762;
}
);
leftKerningGroup = A;
note = Adieresis;
rightKerningGroup = A;
unicode = 00C4;
},
{
glyphname = Agrave;
lastChange = "2021-09-03 08:48:18 +0000";
layers = (
{
layerId = "7DA69401-B8BB-4CEF-A33A-65E5ADA83450";
paths = (
{
closed = 1;
nodes = (
"535 249 LINE",
"363 663 LINE SMOOTH",
"361 667 OFFCURVE",
"360 670 OFFCURVE",
"359 674 CURVE",
"357 677 OFFCURVE",
"356 681 OFFCURVE",
"355 684 CURVE",
"353 681 OFFCURVE",
"352 677 OFFCURVE",
"351 674 CURVE",
"350 670 OFFCURVE",
"348 667 OFFCURVE",
"347 663 CURVE SMOOTH",
"174 249 LINE"
);
},
{
closed = 1;
nodes = (
"652 0 LINE",
"643 0 LINE SMOOTH",
"640 0 OFFCURVE",
"638 2 OFFCURVE",
"637 5 CURVE",
"539 239 LINE",
"170 239 LINE",
"73 5 LINE",
"72 2 OFFCURVE",
"69 0 OFFCURVE",
"66 0 CURVE SMOOTH",
"58 0 LINE",
"350 700 LINE",
"360 700 LINE"
);
},
{
closed = 1;
nodes = (
"251 916 LINE SMOOTH",
"263 916 OFFCURVE",
"267 915 OFFCURVE",
"272 909 CURVE SMOOTH",
"397 769 LINE",
"391 769 LINE SMOOTH",
"387 769 OFFCURVE",
"384 770 OFFCURVE",
"382 772 CURVE SMOOTH",
"233 916 LINE"
);
}
);
width = 710;
},
{
layerId = "F36DCCA2-8A71-42CF-9609-F852DF368EC0";
paths = (
{
closed = 1;
nodes = (
"506 266 LINE",
"394 558 LINE SMOOTH",
"387 575 OFFCURVE",
"379 599 OFFCURVE",
"373 625 CURVE",
"366 598 OFFCURVE",
"359 575 OFFCURVE",
"351 557 CURVE SMOOTH",
"239 266 LINE"
);
},
{
closed = 1;
nodes = (
"708 0 LINE",
"633 0 LINE SMOOTH",
"616 0 OFFCURVE",
"606 10 OFFCURVE",
"600 23 CURVE SMOOTH",
"533 196 LINE",
"212 196 LINE",
"145 23 LINE",
"141 11 OFFCURVE",
"129 0 OFFCURVE",
"112 0 CURVE SMOOTH",
"37 0 LINE",
"324 717 LINE",
"422 717 LINE"
);
},
{
closed = 1;
nodes = (
"284 926 LINE SMOOTH",
"306 926 OFFCURVE",
"315 925 OFFCURVE",
"326 910 CURVE SMOOTH",
"440 773 LINE",
"376 773 LINE SMOOTH",
"362 773 OFFCURVE",
"355 773 OFFCURVE",
"345 783 CURVE SMOOTH",
"189 926 LINE"
);
}
);
width = 745;
},
{
layerId = "A9E408DD-A955-440F-BEB6-B96F0772F152";
paths = (
{
closed = 1;
nodes = (
"497 273 LINE",
"409 514 LINE SMOOTH",
"400 535 OFFCURVE",
"391 565 OFFCURVE",
"381 599 CURVE",
"373 565 OFFCURVE",
"363 535 OFFCURVE",
"354 513 CURVE SMOOTH",
"267 273 LINE"
);
},
{
closed = 1;
nodes = (
"734 0 LINE",
"630 0 LINE SMOOTH",
"607 0 OFFCURVE",
"593 13 OFFCURVE",
"585 31 CURVE",
"531 178 LINE",
"232 178 LINE",
"178 31 LINE SMOOTH",
"172 15 OFFCURVE",
"156 0 OFFCURVE",
"134 0 CURVE SMOOTH",
"28 0 LINE",
"313 723 LINE",
"450 723 LINE"
);
},
{
closed = 1;
nodes = (
"299 931 LINE SMOOTH",
"313 931 OFFCURVE",
"322 931 OFFCURVE",
"330 928 CURVE SMOOTH",
"337 925 OFFCURVE",
"343 920 OFFCURVE",
"351 910 CURVE SMOOTH",
"460 775 LINE",
"370 775 LINE SMOOTH",
"351 775 OFFCURVE",
"343 775 OFFCURVE",
"329 787 CURVE SMOOTH",
"170 931 LINE"
);
}
);
width = 762;
}
);
leftKerningGroup = A;
note = Agrave;
rightKerningGroup = A;
unicode = 00C0;
},
{
glyphname = Aring;
lastChange = "2021-09-03 08:48:20 +0000";
layers = (
{
layerId = "7DA69401-B8BB-4CEF-A33A-65E5ADA83450";
paths = (
{
closed = 1;
nodes = (
"535 249 LINE",
"363 663 LINE SMOOTH",
"361 667 OFFCURVE",
"360 670 OFFCURVE",
"359 674 CURVE",
"357 677 OFFCURVE",
"356 681 OFFCURVE",
"355 684 CURVE",
"353 681 OFFCURVE",
"352 677 OFFCURVE",
"351 674 CURVE",
"350 670 OFFCURVE",
"348 667 OFFCURVE",
"347 663 CURVE SMOOTH",
"174 249 LINE"
);
},
{
closed = 1;
nodes = (
"652 0 LINE",
"643 0 LINE SMOOTH",
"640 0 OFFCURVE",
"638 2 OFFCURVE",
"637 5 CURVE",
"539 239 LINE",
"170 239 LINE",
"73 5 LINE",
"72 2 OFFCURVE",
"69 0 OFFCURVE",
"66 0 CURVE SMOOTH",
"58 0 LINE",
"350 700 LINE",
"360 700 LINE"
);
},
{
closed = 1;
nodes = (
"281 858 OFFCURVE",
"289 876 OFFCURVE",
"302 889 CURVE SMOOTH",
"316 902 OFFCURVE",
"334 909 OFFCURVE",
"355 909 CURVE SMOOTH",
"375 909 OFFCURVE",
"394 902 OFFCURVE",
"407 889 CURVE SMOOTH",
"421 876 OFFCURVE",
"429 858 OFFCURVE",
"429 837 CURVE SMOOTH",
"429 817 OFFCURVE",
"421 799 OFFCURVE",
"407 786 CURVE SMOOTH",
"394 773 OFFCURVE",
"375 765 OFFCURVE",
"355 765 CURVE SMOOTH",
"334 765 OFFCURVE",
"316 773 OFFCURVE",
"302 786 CURVE SMOOTH",
"289 799 OFFCURVE",
"281 817 OFFCURVE",
"281 837 CURVE SMOOTH"
);
},
{
closed = 1;
nodes = (
"292 819 OFFCURVE",
"298 804 OFFCURVE",
"310 792 CURVE SMOOTH",
"321 781 OFFCURVE",
"337 774 OFFCURVE",
"355 774 CURVE SMOOTH",
"373 774 OFFCURVE",
"388 781 OFFCURVE",
"400 792 CURVE SMOOTH",
"411 804 OFFCURVE",
"418 819 OFFCURVE",
"418 837 CURVE SMOOTH",
"418 855 OFFCURVE",
"411 871 OFFCURVE",
"400 882 CURVE SMOOTH",
"388 894 OFFCURVE",
"373 900 OFFCURVE",
"355 900 CURVE SMOOTH",
"337 900 OFFCURVE",
"321 894 OFFCURVE",
"310 882 CURVE SMOOTH",
"298 871 OFFCURVE",
"292 855 OFFCURVE",
"292 837 CURVE SMOOTH"
);
}
);
width = 710;
},
{
layerId = "F36DCCA2-8A71-42CF-9609-F852DF368EC0";
paths = (
{
closed = 1;
nodes = (
"506 266 LINE",
"394 558 LINE SMOOTH",
"387 575 OFFCURVE",
"379 599 OFFCURVE",
"373 625 CURVE",
"366 598 OFFCURVE",
"359 575 OFFCURVE",
"351 557 CURVE SMOOTH",
"239 266 LINE"
);
},
{
closed = 1;
nodes = (
"708 0 LINE",
"633 0 LINE SMOOTH",
"616 0 OFFCURVE",
"606 10 OFFCURVE",
"600 23 CURVE SMOOTH",
"533 196 LINE",
"212 196 LINE",
"145 23 LINE",
"141 11 OFFCURVE",
"129 0 OFFCURVE",
"112 0 CURVE SMOOTH",
"37 0 LINE",
"324 717 LINE",
"422 717 LINE"
);
},
{
closed = 1;
nodes = (
"278 875 OFFCURVE",
"289 897 OFFCURVE",
"306 913 CURVE SMOOTH",
"323 928 OFFCURVE",
"346 937 OFFCURVE",
"372 937 CURVE SMOOTH",
"398 937 OFFCURVE",
"422 928 OFFCURVE",
"439 913 CURVE SMOOTH",
"457 897 OFFCURVE",
"468 875 OFFCURVE",
"468 849 CURVE SMOOTH",
"468 823 OFFCURVE",
"457 801 OFFCURVE",
"439 786 CURVE SMOOTH",
"422 770 OFFCURVE",
"398 761 OFFCURVE",
"372 761 CURVE SMOOTH",
"346 761 OFFCURVE",
"323 770 OFFCURVE",
"306 786 CURVE SMOOTH",
"289 801 OFFCURVE",
"278 823 OFFCURVE",
"278 849 CURVE SMOOTH"
);
},
{
closed = 1;
nodes = (
"322 819 OFFCURVE",
"341 799 OFFCURVE",
"373 799 CURVE SMOOTH",
"403 799 OFFCURVE",
"423 819 OFFCURVE",
"423 849 CURVE SMOOTH",
"423 879 OFFCURVE",
"403 899 OFFCURVE",
"373 899 CURVE SMOOTH",
"341 899 OFFCURVE",
"322 879 OFFCURVE",
"322 849 CURVE SMOOTH"
);
}
);
width = 745;
},
{
layerId = "A9E408DD-A955-440F-BEB6-B96F0772F152";
paths = (
{
closed = 1;
nodes = (
"497 273 LINE",
"409 514 LINE SMOOTH",
"400 535 OFFCURVE",
"391 565 OFFCURVE",
"381 599 CURVE",
"373 565 OFFCURVE",
"363 535 OFFCURVE",
"354 513 CURVE SMOOTH",
"267 273 LINE"
);
},
{
closed = 1;
nodes = (
"734 0 LINE",
"630 0 LINE SMOOTH",
"607 0 OFFCURVE",
"593 13 OFFCURVE",
"585 31 CURVE",
"531 178 LINE",
"232 178 LINE",
"178 31 LINE SMOOTH",
"172 15 OFFCURVE",
"156 0 OFFCURVE",
"134 0 CURVE SMOOTH",
"28 0 LINE",
"313 723 LINE",
"450 723 LINE"
);
},
{
closed = 1;
nodes = (
"278 882 OFFCURVE",
"290 906 OFFCURVE",
"309 923 CURVE SMOOTH",
"328 939 OFFCURVE",
"353 949 OFFCURVE",
"381 949 CURVE SMOOTH",
"409 949 OFFCURVE",
"436 939 OFFCURVE",
"455 923 CURVE SMOOTH",
"474 906 OFFCURVE",
"486 882 OFFCURVE",
"486 853 CURVE SMOOTH",
"486 825 OFFCURVE",
"474 802 OFFCURVE",
"455 786 CURVE SMOOTH",
"436 769 OFFCURVE",
"409 760 OFFCURVE",
"381 760 CURVE SMOOTH",
"353 760 OFFCURVE",
"328 769 OFFCURVE",
"309 786 CURVE SMOOTH",
"290 802 OFFCURVE",
"278 825 OFFCURVE",
"278 853 CURVE SMOOTH"
);
},
{
closed = 1;
nodes = (
"337 827 OFFCURVE",
"353 809 OFFCURVE",
"382 809 CURVE SMOOTH",
"409 809 OFFCURVE",
"426 827 OFFCURVE",
"426 853 CURVE SMOOTH",
"426 881 OFFCURVE",
"409 899 OFFCURVE",
"382 899 CURVE SMOOTH",
"353 899 OFFCURVE",
"337 881 OFFCURVE",
"337 853 CURVE SMOOTH"
);
}
);
width = 762;
}
);
leftKerningGroup = A;
note = Aring;
rightKerningGroup = A;
unicode = 00C5;
},
{
glyphname = Atilde;
lastChange = "2021-09-03 08:48:19 +0000";
layers = (
{
layerId = "7DA69401-B8BB-4CEF-A33A-65E5ADA83450";
paths = (
{
closed = 1;
nodes = (
"535 249 LINE",
"363 663 LINE SMOOTH",
"361 667 OFFCURVE",
"360 670 OFFCURVE",
"359 674 CURVE",
"357 677 OFFCURVE",
"356 681 OFFCURVE",
"355 684 CURVE",
"353 681 OFFCURVE",
"352 677 OFFCURVE",
"351 674 CURVE",
"350 670 OFFCURVE",
"348 667 OFFCURVE",
"347 663 CURVE SMOOTH",
"174 249 LINE"
);
},
{
closed = 1;
nodes = (
"652 0 LINE",
"643 0 LINE SMOOTH",
"640 0 OFFCURVE",
"638 2 OFFCURVE",
"637 5 CURVE",
"539 239 LINE",
"170 239 LINE",
"73 5 LINE",
"72 2 OFFCURVE",
"69 0 OFFCURVE",
"66 0 CURVE SMOOTH",
"58 0 LINE",
"350 700 LINE",
"360 700 LINE"
);
},
{
closed = 1;
nodes = (
"452 788 OFFCURVE",
"472 813 OFFCURVE",
"474 845 CURVE",
"482 845 LINE",
"482 827 OFFCURVE",
"476 810 OFFCURVE",
"465 798 CURVE SMOOTH",
"455 786 OFFCURVE",
"439 778 OFFCURVE",
"419 778 CURVE SMOOTH",
"397 778 OFFCURVE",
"376 793 OFFCURVE",
"356 807 CURVE SMOOTH",
"336 822 OFFCURVE",
"316 836 OFFCURVE",
"297 836 CURVE SMOOTH",
"281 836 OFFCURVE",
"267 830 OFFCURVE",
"258 820 CURVE SMOOTH",
"248 809 OFFCURVE",
"242 795 OFFCURVE",
"242 779 CURVE",
"233 779 LINE",
"233 797 OFFCURVE",
"239 814 OFFCURVE",
"250 826 CURVE SMOOTH",
"261 838 OFFCURVE",
"277 846 OFFCURVE",
"297 846 CURVE SMOOTH",
"319 846 OFFCURVE",
"340 832 OFFCURVE",
"360 817 CURVE SMOOTH",
"380 803 OFFCURVE",
"399 788 OFFCURVE",
"419 788 CURVE SMOOTH"
);
}
);
width = 710;
},
{
layerId = "F36DCCA2-8A71-42CF-9609-F852DF368EC0";
paths = (
{
closed = 1;
nodes = (
"506 266 LINE",
"394 558 LINE SMOOTH",
"387 575 OFFCURVE",
"379 599 OFFCURVE",
"373 625 CURVE",
"366 598 OFFCURVE",
"359 575 OFFCURVE",
"351 557 CURVE SMOOTH",
"239 266 LINE"
);
},
{
closed = 1;
nodes = (
"708 0 LINE",
"633 0 LINE SMOOTH",
"616 0 OFFCURVE",
"606 10 OFFCURVE",
"600 23 CURVE SMOOTH",
"533 196 LINE",
"212 196 LINE",
"145 23 LINE",
"141 11 OFFCURVE",
"129 0 OFFCURVE",
"112 0 CURVE SMOOTH",
"37 0 LINE",
"324 717 LINE",
"422 717 LINE"
);
},
{
closed = 1;
nodes = (
"451 832 OFFCURVE",
"462 838 OFFCURVE",
"470 848 CURVE SMOOTH",
"478 857 OFFCURVE",
"482 870 OFFCURVE",
"482 882 CURVE",
"537 882 LINE",
"537 853 OFFCURVE",
"529 826 OFFCURVE",
"513 806 CURVE SMOOTH",
"497 785 OFFCURVE",
"475 772 OFFCURVE",
"445 772 CURVE SMOOTH",
"415 772 OFFCURVE",
"392 786 OFFCURVE",
"372 799 CURVE SMOOTH",
"352 812 OFFCURVE",
"334 825 OFFCURVE",
"316 825 CURVE SMOOTH",
"300 825 OFFCURVE",
"289 818 OFFCURVE",
"282 809 CURVE SMOOTH",
"274 799 OFFCURVE",
"270 786 OFFCURVE",
"270 774 CURVE",
"214 774 LINE",
"214 803 OFFCURVE",
"223 831 OFFCURVE",
"238 851 CURVE SMOOTH",
"254 871 OFFCURVE",
"276 884 OFFCURVE",
"306 884 CURVE SMOOTH",
"336 884 OFFCURVE",
"359 871 OFFCURVE",
"379 858 CURVE SMOOTH",
"399 845 OFFCURVE",
"417 832 OFFCURVE",
"435 832 CURVE SMOOTH"
);
}
);
width = 745;
},
{
layerId = "A9E408DD-A955-440F-BEB6-B96F0772F152";
paths = (
{
closed = 1;
nodes = (
"497 273 LINE",
"409 514 LINE SMOOTH",
"400 535 OFFCURVE",
"391 565 OFFCURVE",
"381 599 CURVE",
"373 565 OFFCURVE",
"363 535 OFFCURVE",
"354 513 CURVE SMOOTH",
"267 273 LINE"
);
},
{
closed = 1;
nodes = (
"734 0 LINE",
"630 0 LINE SMOOTH",
"607 0 OFFCURVE",
"593 13 OFFCURVE",
"585 31 CURVE",
"531 178 LINE",
"232 178 LINE",
"178 31 LINE SMOOTH",
"172 15 OFFCURVE",
"156 0 OFFCURVE",
"134 0 CURVE SMOOTH",
"28 0 LINE",
"313 723 LINE",
"450 723 LINE"
);
},
{
closed = 1;
nodes = (
"458 850 OFFCURVE",
"470 857 OFFCURVE",
"477 866 CURVE SMOOTH",
"484 875 OFFCURVE",
"487 886 OFFCURVE",
"487 897 CURVE",
"562 897 LINE",
"562 863 OFFCURVE",
"553 832 OFFCURVE",
"536 809 CURVE SMOOTH",
"518 785 OFFCURVE",
"492 770 OFFCURVE",
"459 770 CURVE SMOOTH",
"425 770 OFFCURVE",
"401 783 OFFCURVE",
"380 795 CURVE SMOOTH",
"370 801 OFFCURVE",
"361 807 OFFCURVE",
"352 812 CURVE SMOOTH",
"344 818 OFFCURVE",
"335 820 OFFCURVE",
"326 820 CURVE SMOOTH",
"310 820 OFFCURVE",
"300 814 OFFCURVE",
"293 804 CURVE SMOOTH",
"287 795 OFFCURVE",
"283 783 OFFCURVE",
"283 772 CURVE",
"207 772 LINE",
"207 805 OFFCURVE",
"216 837 OFFCURVE",
"234 861 CURVE SMOOTH",
"252 885 OFFCURVE",
"277 900 OFFCURVE",
"311 900 CURVE SMOOTH",
"345 900 OFFCURVE",
"369 887 OFFCURVE",
"389 875 CURVE SMOOTH",
"409 863 OFFCURVE",
"426 850 OFFCURVE",
"444 850 CURVE SMOOTH"
);
}
);
width = 762;
}
);
leftKerningGroup = A;
note = Atilde;
rightKerningGroup = A;
unicode = 00C3;
},
{
glyphname = AE;
lastChange = "2021-09-03 08:48:18 +0000";
layers = (
{
layerId = "7DA69401-B8BB-4CEF-A33A-65E5ADA83450";
paths = (
{
closed = 1;
nodes = (
"519 249 LINE",
"462 690 LINE",
"459 680 OFFCURVE",
"456 674 OFFCURVE",
"450 663 CURVE SMOOTH",
"212 249 LINE"
);
},
{
closed = 1;
nodes = (
"911 11 LINE",
"910 0 LINE",
"552 0 LINE",
"521 239 LINE",
"206 239 LINE",
"71 4 LINE SMOOTH",
"70 2 OFFCURVE",
"68 0 OFFCURVE",
"65 0 CURVE SMOOTH",
"55 0 LINE",
"457 700 LINE",
"910 700 LINE",
"910 689 LINE",
"473 689 LINE",
"516 361 LINE",
"850 361 LINE",
"850 350 LINE",
"517 350 LINE",
"561 11 LINE"
);
}
);
width = 972;
},
{
layerId = "F36DCCA2-8A71-42CF-9609-F852DF368EC0";
paths = (
{
closed = 1;
nodes = (
"504 266 LINE",
"457 644 LINE",
"448 616 OFFCURVE",
"439 594 OFFCURVE",
"429 572 CURVE",
"271 266 LINE"
);
},
{
closed = 1;
nodes = (
"924 79 LINE",
"923 0 LINE",
"537 0 LINE",
"513 196 LINE",
"235 196 LINE",
"145 23 LINE SMOOTH",
"138 9 OFFCURVE",
"125 0 OFFCURVE",
"108 0 CURVE SMOOTH",
"34 0 LINE",
"412 717 LINE",
"923 717 LINE",
"923 638 LINE",
"549 638 LINE",
"579 400 LINE",
"858 400 LINE",
"858 324 LINE",
"588 324 LINE",
"618 79 LINE"
);
}
);
width = 980;
},
{
layerId = "A9E408DD-A955-440F-BEB6-B96F0772F152";
paths = (
{
closed = 1;
nodes = (
"497 273 LINE",
"454 623 LINE",
"444 589 OFFCURVE",
"432 559 OFFCURVE",
"420 534 CURVE SMOOTH",
"295 273 LINE"
);
},
{
closed = 1;
nodes = (
"582 616 LINE",
"607 416 LINE",
"861 416 LINE",
"861 312 LINE",
"620 312 LINE",
"645 108 LINE",
"929 108 LINE",
"929 0 LINE",
"531 0 LINE",
"509 178 LINE",
"249 178 LINE",
"178 30 LINE SMOOTH",
"169 12 OFFCURVE",
"151 0 OFFCURVE",
"127 0 CURVE SMOOTH",
"25 0 LINE",
"393 723 LINE",
"929 723 LINE",
"929 616 LINE"
);
}
);
width = 983;
}
);
leftKerningGroup = AE;
note = AE;
rightKerningGroup = AE;
unicode = 00C6;
},
{
glyphname = B;
lastChange = "2021-09-03 08:48:20 +0000";
layers = (
{
layerId = "7DA69401-B8BB-4CEF-A33A-65E5ADA83450";
paths = (
{
closed = 1;
nodes = (
"337 10 LINE SMOOTH",
"405 10 OFFCURVE",
"459 25 OFFCURVE",
"496 54 CURVE SMOOTH",
"533 83 OFFCURVE",
"552 127 OFFCURVE",
"552 184 CURVE SMOOTH",
"552 235 OFFCURVE",
"531 277 OFFCURVE",
"494 306 CURVE SMOOTH",
"457 335 OFFCURVE",
"403 350 OFFCURVE",
"338 350 CURVE SMOOTH",
"140 350 LINE",
"140 10 LINE"
);
},
{
closed = 1;
nodes = (
"140 690 LINE",
"140 360 LINE",
"315 360 LINE SMOOTH",
"390 360 OFFCURVE",
"441 383 OFFCURVE",
"474 416 CURVE SMOOTH",
"506 448 OFFCURVE",
"520 489 OFFCURVE",
"520 526 CURVE SMOOTH",
"520 630 OFFCURVE",
"452 690 OFFCURVE",
"310 690 CURVE SMOOTH"
);
},
{
closed = 1;
nodes = (
"310 700 LINE SMOOTH",
"459 700 OFFCURVE",
"531 639 OFFCURVE",
"531 526 CURVE SMOOTH",
"531 485 OFFCURVE",
"514 445 OFFCURVE",
"485 414 CURVE SMOOTH",
"457 384 OFFCURVE",
"416 362 OFFCURVE",
"370 357 CURVE",
"430 353 OFFCURVE",
"478 335 OFFCURVE",
"512 306 CURVE SMOOTH",
"546 276 OFFCURVE",
"564 235 OFFCURVE",
"564 184 CURVE SMOOTH",
"564 125 OFFCURVE",
"544 79 OFFCURVE",
"505 48 CURVE SMOOTH",
"466 17 OFFCURVE",
"409 0 OFFCURVE",
"337 0 CURVE SMOOTH",
"128 0 LINE",
"128 700 LINE"
);
}
);
width = 646;
},
{
layerId = "F36DCCA2-8A71-42CF-9609-F852DF368EC0";
paths = (
{
closed = 1;
nodes = (
"360 77 LINE SMOOTH",
"416 77 OFFCURVE",
"455 91 OFFCURVE",
"481 114 CURVE SMOOTH",
"507 137 OFFCURVE",
"518 169 OFFCURVE",
"518 207 CURVE SMOOTH",
"518 281 OFFCURVE",
"466 327 OFFCURVE",
"360 327 CURVE SMOOTH",
"205 327 LINE",
"205 77 LINE"
);
},
{
closed = 1;
nodes = (
"205 640 LINE",
"205 396 LINE",
"333 396 LINE SMOOTH",
"388 396 OFFCURVE",
"428 408 OFFCURVE",
"455 430 CURVE SMOOTH",
"481 451 OFFCURVE",
"493 482 OFFCURVE",
"493 518 CURVE SMOOTH",
"493 603 OFFCURVE",
"444 640 OFFCURVE",
"337 640 CURVE SMOOTH"
);
},
{
closed = 1;
nodes = (
"337 717 LINE SMOOTH",
"425 717 OFFCURVE",
"489 699 OFFCURVE",
"530 667 CURVE SMOOTH",
"571 635 OFFCURVE",
"589 588 OFFCURVE",
"589 530 CURVE SMOOTH",
"589 494 OFFCURVE",
"578 462 OFFCURVE",
"556 434 CURVE SMOOTH",
"534 406 OFFCURVE",
"501 383 OFFCURVE",
"455 369 CURVE",
"561 349 OFFCURVE",
"614 294 OFFCURVE",
"614 204 CURVE SMOOTH",
"614 144 OFFCURVE",
"591 93 OFFCURVE",
"548 57 CURVE SMOOTH",
"505 21 OFFCURVE",
"442 0 OFFCURVE",
"362 0 CURVE SMOOTH",
"109 0 LINE",
"109 717 LINE"
);
}
);
width = 678;
},
{
layerId = "A9E408DD-A955-440F-BEB6-B96F0772F152";
paths = (
{
closed = 1;
nodes = (
"370 105 LINE SMOOTH",
"420 105 OFFCURVE",
"454 118 OFFCURVE",
"474 138 CURVE SMOOTH",
"494 158 OFFCURVE",
"503 186 OFFCURVE",
"503 216 CURVE SMOOTH",
"503 247 OFFCURVE",
"493 272 OFFCURVE",
"472 290 CURVE SMOOTH",
"450 308 OFFCURVE",
"417 317 OFFCURVE",
"370 317 CURVE SMOOTH",
"234 317 LINE",
"234 105 LINE"
);
},
{
closed = 1;
nodes = (
"234 619 LINE",
"234 410 LINE",
"341 410 LINE SMOOTH",
"433 410 OFFCURVE",
"481 442 OFFCURVE",
"481 515 CURVE SMOOTH",
"481 590 OFFCURVE",
"439 619 OFFCURVE",
"349 619 CURVE SMOOTH"
);
},
{
closed = 1;
nodes = (
"349 723 LINE SMOOTH",
"443 723 OFFCURVE",
"510 705 OFFCURVE",
"553 671 CURVE SMOOTH",
"596 638 OFFCURVE",
"615 590 OFFCURVE",
"615 531 CURVE SMOOTH",
"615 497 OFFCURVE",
"606 466 OFFCURVE",
"585 439 CURVE SMOOTH",
"564 412 OFFCURVE",
"531 389 OFFCURVE",
"487 374 CURVE",
"586 351 OFFCURVE",
"636 298 OFFCURVE",
"636 213 CURVE SMOOTH",
"636 151 OFFCURVE",
"612 98 OFFCURVE",
"567 61 CURVE SMOOTH",
"523 23 OFFCURVE",
"457 0 OFFCURVE",
"373 0 CURVE SMOOTH",
"100 0 LINE",
"100 723 LINE"
);
}
);
width = 692;
}
);
leftKerningGroup = B;
note = B;
rightKerningGroup = B;
unicode = 0042;
},
{
glyphname = C;
lastChange = "2021-09-03 08:48:20 +0000";
layers = (
{
layerId = "7DA69401-B8BB-4CEF-A33A-65E5ADA83450";
paths = (
{
closed = 1;
nodes = (
"652 95 OFFCURVE",
"653 94 OFFCURVE",
"654 93 CURVE",
"658 89 LINE",
"629 61 OFFCURVE",
"596 37 OFFCURVE",
"556 20 CURVE SMOOTH",
"516 3 OFFCURVE",
"468 -8 OFFCURVE",
"410 -8 CURVE SMOOTH",
"316 -8 OFFCURVE",
"235 26 OFFCURVE",
"177 88 CURVE SMOOTH",
"119 150 OFFCURVE",
"85 240 OFFCURVE",
"85 350 CURVE SMOOTH",
"85 457 OFFCURVE",
"119 547 OFFCURVE",
"178 610 CURVE SMOOTH",
"237 673 OFFCURVE",
"321 708 OFFCURVE",
"420 708 CURVE SMOOTH",
"466 708 OFFCURVE",
"507 701 OFFCURVE",
"543 687 CURVE SMOOTH",
"579 673 OFFCURVE",
"612 653 OFFCURVE",
"644 626 CURVE",
"642 623 LINE",
"642 622 OFFCURVE",
"640 621 OFFCURVE",
"637 621 CURVE SMOOTH",
"635 621 OFFCURVE",
"629 625 OFFCURVE",
"620 633 CURVE SMOOTH",
"601 649 OFFCURVE",
"565 670 OFFCURVE",
"513 686 CURVE SMOOTH",
"487 694 OFFCURVE",
"456 698 OFFCURVE",
"420 698 CURVE SMOOTH",
"326 698 OFFCURVE",
"245 665 OFFCURVE",
"188 605 CURVE SMOOTH",
"131 544 OFFCURVE",
"97 457 OFFCURVE",
"97 350 CURVE SMOOTH",
"97 242 OFFCURVE",
"131 155 OFFCURVE",
"187 95 CURVE SMOOTH",
"243 35 OFFCURVE",
"321 2 OFFCURVE",
"410 2 CURVE SMOOTH",
"467 2 OFFCURVE",
"511 10 OFFCURVE",
"548 26 CURVE SMOOTH",
"585 41 OFFCURVE",
"615 64 OFFCURVE",
"646 92 CURVE",
"648 94 OFFCURVE",
"649 95 OFFCURVE",
"650 95 CURVE SMOOTH"
);
}
);
width = 720;
},
{
layerId = "F36DCCA2-8A71-42CF-9609-F852DF368EC0";
paths = (
{
closed = 1;
nodes = (
"616 148 OFFCURVE",
"621 146 OFFCURVE",
"625 142 CURVE SMOOTH",
"663 100 LINE",
"605 32 OFFCURVE",
"523 -8 OFFCURVE",
"405 -8 CURVE SMOOTH",
"302 -8 OFFCURVE",
"217 30 OFFCURVE",
"157 94 CURVE SMOOTH",
"98 158 OFFCURVE",
"64 250 OFFCURVE",
"64 358 CURVE SMOOTH",
"64 466 OFFCURVE",
"99 558 OFFCURVE",
"161 623 CURVE SMOOTH",
"223 687 OFFCURVE",
"310 725 OFFCURVE",
"414 725 CURVE SMOOTH",
"516 725 OFFCURVE",
"593 690 OFFCURVE",
"652 634 CURVE",
"620 589 LINE",
"616 583 OFFCURVE",
"610 578 OFFCURVE",
"600 578 CURVE SMOOTH",
"594 578 OFFCURVE",
"586 581 OFFCURVE",
"578 588 CURVE SMOOTH",
"560 601 OFFCURVE",
"533 618 OFFCURVE",
"491 631 CURVE SMOOTH",
"470 638 OFFCURVE",
"444 641 OFFCURVE",
"414 641 CURVE SMOOTH",
"340 641 OFFCURVE",
"277 614 OFFCURVE",
"233 566 CURVE SMOOTH",
"189 517 OFFCURVE",
"163 446 OFFCURVE",
"163 358 CURVE SMOOTH",
"163 269 OFFCURVE",
"190 198 OFFCURVE",
"235 150 CURVE SMOOTH",
"279 102 OFFCURVE",
"341 76 OFFCURVE",
"411 76 CURVE SMOOTH",
"453 76 OFFCURVE",
"487 81 OFFCURVE",
"516 91 CURVE SMOOTH",
"545 102 OFFCURVE",
"569 118 OFFCURVE",
"594 141 CURVE SMOOTH",
"599 146 OFFCURVE",
"605 148 OFFCURVE",
"611 148 CURVE SMOOTH"
);
}
);
width = 706;
},
{
layerId = "A9E408DD-A955-440F-BEB6-B96F0772F152";
paths = (
{
closed = 1;
nodes = (
"601 171 OFFCURVE",
"607 168 OFFCURVE",
"613 162 CURVE",
"666 105 LINE",
"607 32 OFFCURVE",
"523 -8 OFFCURVE",
"403 -8 CURVE SMOOTH",
"296 -8 OFFCURVE",
"209 31 OFFCURVE",
"149 96 CURVE SMOOTH",
"88 162 OFFCURVE",
"55 254 OFFCURVE",
"55 362 CURVE SMOOTH",
"55 470 OFFCURVE",
"91 562 OFFCURVE",
"154 628 CURVE SMOOTH",
"217 693 OFFCURVE",
"306 731 OFFCURVE",
"412 731 CURVE SMOOTH",
"517 731 OFFCURVE",
"599 693 OFFCURVE",
"656 637 CURVE",
"611 575 LINE SMOOTH",
"606 567 OFFCURVE",
"598 560 OFFCURVE",
"584 560 CURVE SMOOTH",
"574 560 OFFCURVE",
"563 566 OFFCURVE",
"551 575 CURVE SMOOTH",
"538 583 OFFCURVE",
"522 594 OFFCURVE",
"500 602 CURVE SMOOTH",
"478 610 OFFCURVE",
"449 617 OFFCURVE",
"411 617 CURVE SMOOTH",
"347 617 OFFCURVE",
"292 593 OFFCURVE",
"253 550 CURVE SMOOTH",
"215 506 OFFCURVE",
"192 442 OFFCURVE",
"192 362 CURVE SMOOTH",
"192 280 OFFCURVE",
"217 217 OFFCURVE",
"256 173 CURVE SMOOTH",
"296 130 OFFCURVE",
"350 106 OFFCURVE",
"412 106 CURVE SMOOTH",
"448 106 OFFCURVE",
"478 110 OFFCURVE",
"503 119 CURVE SMOOTH",
"528 127 OFFCURVE",
"549 141 OFFCURVE",
"571 161 CURVE SMOOTH",
"578 167 OFFCURVE",
"585 171 OFFCURVE",
"593 171 CURVE SMOOTH"
);
}
);
width = 700;
}
);
leftKerningGroup = C;
note = C;
rightKerningGroup = C;
unicode = 0043;
},
{
glyphname = Ccedilla;
lastChange = "2021-09-03 08:48:20 +0000";
layers = (
{
layerId = "7DA69401-B8BB-4CEF-A33A-65E5ADA83450";
paths = (
{
closed = 1;
nodes = (
"402 -55 LINE",
"430 -60 OFFCURVE",
"454 -65 OFFCURVE",
"471 -75 CURVE SMOOTH",
"487 -85 OFFCURVE",
"497 -99 OFFCURVE",
"497 -119 CURVE SMOOTH",
"497 -139 OFFCURVE",
"489 -153 OFFCURVE",
"475 -163 CURVE SMOOTH",
"461 -174 OFFCURVE",
"442 -179 OFFCURVE",
"419 -179 CURVE SMOOTH",
"392 -179 OFFCURVE",
"363 -169 OFFCURVE",
"347 -153 CURVE",
"349 -151 LINE SMOOTH",
"351 -149 OFFCURVE",
"353 -148 OFFCURVE",
"354 -148 CURVE SMOOTH",
"356 -148 OFFCURVE",
"358 -149 OFFCURVE",
"361 -152 CURVE",
"367 -156 OFFCURVE",
"377 -162 OFFCURVE",
"393 -167 CURVE",
"401 -169 OFFCURVE",
"411 -170 OFFCURVE",
"422 -170 CURVE SMOOTH",
"462 -170 OFFCURVE",
"486 -152 OFFCURVE",
"486 -120 CURVE SMOOTH",
"486 -100 OFFCURVE",
"476 -87 OFFCURVE",
"458 -78 CURVE SMOOTH",
"441 -70 OFFCURVE",
"417 -67 OFFCURVE",
"390 -63 CURVE",
"408 -8 LINE",
"314 -8 OFFCURVE",
"234 27 OFFCURVE",
"177 89 CURVE SMOOTH",
"119 151 OFFCURVE",
"85 240 OFFCURVE",
"85 350 CURVE SMOOTH",
"85 457 OFFCURVE",
"119 547 OFFCURVE",
"178 610 CURVE SMOOTH",
"237 673 OFFCURVE",
"321 708 OFFCURVE",
"420 708 CURVE SMOOTH",
"466 708 OFFCURVE",
"507 701 OFFCURVE",
"543 687 CURVE SMOOTH",
"579 673 OFFCURVE",
"612 653 OFFCURVE",
"644 626 CURVE",
"642 623 LINE",
"642 622 OFFCURVE",
"640 621 OFFCURVE",
"637 621 CURVE SMOOTH",
"635 621 OFFCURVE",
"629 625 OFFCURVE",
"620 633 CURVE SMOOTH",
"601 649 OFFCURVE",
"565 670 OFFCURVE",
"513 686 CURVE SMOOTH",
"487 694 OFFCURVE",
"456 698 OFFCURVE",
"420 698 CURVE SMOOTH",
"326 698 OFFCURVE",
"245 665 OFFCURVE",
"188 605 CURVE SMOOTH",
"131 544 OFFCURVE",
"97 457 OFFCURVE",
"97 350 CURVE SMOOTH",
"97 242 OFFCURVE",
"131 155 OFFCURVE",
"187 95 CURVE SMOOTH",
"243 35 OFFCURVE",
"321 2 OFFCURVE",
"410 2 CURVE SMOOTH",
"467 2 OFFCURVE",
"511 10 OFFCURVE",
"548 26 CURVE SMOOTH",
"585 41 OFFCURVE",
"615 64 OFFCURVE",
"646 92 CURVE",
"648 94 OFFCURVE",
"649 95 OFFCURVE",
"650 95 CURVE SMOOTH",
"652 95 OFFCURVE",
"653 94 OFFCURVE",
"654 93 CURVE",
"658 89 LINE",
"629 61 OFFCURVE",
"597 38 OFFCURVE",
"558 21 CURVE SMOOTH",
"518 4 OFFCURVE",
"473 -8 OFFCURVE",
"417 -8 CURVE"
);
}
);
width = 720;
},
{
layerId = "F36DCCA2-8A71-42CF-9609-F852DF368EC0";
paths = (
{
closed = 1;
nodes = (
"663 100 LINE",
"609 37 OFFCURVE",
"535 -2 OFFCURVE",
"430 -8 CURVE",
"421 -38 LINE",
"483 -50 OFFCURVE",
"509 -73 OFFCURVE",
"509 -109 CURVE SMOOTH",
"509 -131 OFFCURVE",
"498 -148 OFFCURVE",
"479 -160 CURVE SMOOTH",
"460 -172 OFFCURVE",
"432 -179 OFFCURVE",
"400 -179 CURVE SMOOTH",
"373 -179 OFFCURVE",
"348 -173 OFFCURVE",
"327 -163 CURVE",
"336 -136 LINE SMOOTH",
"338 -130 OFFCURVE",
"342 -127 OFFCURVE",
"347 -127 CURVE SMOOTH",
"349 -127 OFFCURVE",
"352 -127 OFFCURVE",
"354 -128 CURVE",
"360 -131 OFFCURVE",
"367 -134 OFFCURVE",
"378 -136 CURVE",
"383 -138 OFFCURVE",
"389 -138 OFFCURVE",
"396 -138 CURVE SMOOTH",
"424 -138 OFFCURVE",
"438 -126 OFFCURVE",
"438 -108 CURVE SMOOTH",
"438 -96 OFFCURVE",
"431 -87 OFFCURVE",
"417 -81 CURVE SMOOTH",
"403 -76 OFFCURVE",
"383 -72 OFFCURVE",
"358 -69 CURVE",
"378 -7 LINE",
"283 -1 OFFCURVE",
"205 39 OFFCURVE",
"150 103 CURVE SMOOTH",
"95 167 OFFCURVE",
"64 255 OFFCURVE",
"64 358 CURVE SMOOTH",
"64 466 OFFCURVE",
"99 558 OFFCURVE",
"161 623 CURVE SMOOTH",
"223 687 OFFCURVE",
"310 725 OFFCURVE",
"414 725 CURVE SMOOTH",
"516 725 OFFCURVE",
"593 690 OFFCURVE",
"652 634 CURVE",
"620 589 LINE",
"616 583 OFFCURVE",
"610 578 OFFCURVE",
"600 578 CURVE SMOOTH",
"594 578 OFFCURVE",
"586 581 OFFCURVE",
"578 588 CURVE SMOOTH",
"560 601 OFFCURVE",
"533 618 OFFCURVE",
"491 631 CURVE SMOOTH",
"470 638 OFFCURVE",
"444 641 OFFCURVE",
"414 641 CURVE SMOOTH",
"340 641 OFFCURVE",
"277 614 OFFCURVE",
"233 566 CURVE SMOOTH",
"189 517 OFFCURVE",
"163 446 OFFCURVE",
"163 358 CURVE SMOOTH",
"163 269 OFFCURVE",
"190 198 OFFCURVE",
"235 150 CURVE SMOOTH",
"279 102 OFFCURVE",
"341 76 OFFCURVE",
"411 76 CURVE SMOOTH",
"453 76 OFFCURVE",
"487 81 OFFCURVE",
"516 91 CURVE SMOOTH",
"545 102 OFFCURVE",
"569 118 OFFCURVE",
"594 141 CURVE SMOOTH",
"599 146 OFFCURVE",
"605 148 OFFCURVE",
"611 148 CURVE SMOOTH",
"616 148 OFFCURVE",
"621 146 OFFCURVE",
"625 142 CURVE SMOOTH"
);
}
);
width = 705;
},
{
layerId = "A9E408DD-A955-440F-BEB6-B96F0772F152";
paths = (
{
closed = 1;
nodes = (
"666 105 LINE",
"613 39 OFFCURVE",
"539 1 OFFCURVE",
"436 -7 CURVE",
"430 -31 LINE",
"492 -45 OFFCURVE",
"515 -71 OFFCURVE",
"515 -105 CURVE SMOOTH",
"515 -128 OFFCURVE",
"503 -146 OFFCURVE",
"481 -159 CURVE SMOOTH",
"459 -171 OFFCURVE",
"429 -178 OFFCURVE",
"393 -178 CURVE SMOOTH",
"365 -178 OFFCURVE",
"343 -175 OFFCURVE",
"319 -167 CURVE",
"331 -129 LINE SMOOTH",
"333 -121 OFFCURVE",
"338 -117 OFFCURVE",
"345 -117 CURVE SMOOTH",
"350 -117 OFFCURVE",
"355 -118 OFFCURVE",
"361 -121 CURVE SMOOTH",
"366 -123 OFFCURVE",
"374 -125 OFFCURVE",
"385 -125 CURVE SMOOTH",
"407 -125 OFFCURVE",
"418 -115 OFFCURVE",
"418 -103 CURVE SMOOTH",
"418 -94 OFFCURVE",
"412 -87 OFFCURVE",
"400 -82 CURVE",
"388 -78 OFFCURVE",
"369 -74 OFFCURVE",
"344 -71 CURVE",
"366 -7 LINE",
"270 2 OFFCURVE",
"192 44 OFFCURVE",
"138 108 CURVE SMOOTH",
"84 173 OFFCURVE",
"55 260 OFFCURVE",
"55 362 CURVE SMOOTH",
"55 470 OFFCURVE",
"91 562 OFFCURVE",
"154 628 CURVE SMOOTH",
"217 693 OFFCURVE",
"306 731 OFFCURVE",
"412 731 CURVE SMOOTH",
"517 731 OFFCURVE",
"599 693 OFFCURVE",
"656 637 CURVE",
"611 575 LINE SMOOTH",
"606 567 OFFCURVE",
"598 560 OFFCURVE",
"584 560 CURVE SMOOTH",
"574 560 OFFCURVE",
"563 566 OFFCURVE",
"551 575 CURVE SMOOTH",
"538 583 OFFCURVE",
"522 594 OFFCURVE",
"500 602 CURVE SMOOTH",
"478 610 OFFCURVE",
"449 617 OFFCURVE",
"411 617 CURVE SMOOTH",
"347 617 OFFCURVE",
"292 593 OFFCURVE",
"253 550 CURVE SMOOTH",
"215 506 OFFCURVE",
"192 442 OFFCURVE",
"192 362 CURVE SMOOTH",
"192 280 OFFCURVE",
"217 217 OFFCURVE",
"256 173 CURVE SMOOTH",
"296 130 OFFCURVE",
"350 106 OFFCURVE",
"412 106 CURVE SMOOTH",
"448 106 OFFCURVE",
"478 110 OFFCURVE",
"503 119 CURVE SMOOTH",
"528 127 OFFCURVE",
"549 141 OFFCURVE",
"571 161 CURVE SMOOTH",
"578 167 OFFCURVE",
"585 171 OFFCURVE",
"593 171 CURVE SMOOTH",
"601 171 OFFCURVE",
"607 168 OFFCURVE",
"613 162 CURVE"
);
}
);
width = 700;
}
);
leftKerningGroup = C;
note = Ccedilla;
rightKerningGroup = C;
unicode = 00C7;
},
{
glyphname = D;
lastChange = "2021-09-03 08:48:19 +0000";
layers = (
{
layerId = "7DA69401-B8BB-4CEF-A33A-65E5ADA83450";
paths = (
{
closed = 1;
nodes = (
"702 240 OFFCURVE",
"669 152 OFFCURVE",
"612 92 CURVE SMOOTH",
"555 32 OFFCURVE",
"474 0 OFFCURVE",
"378 0 CURVE SMOOTH",
"128 0 LINE",
"128 700 LINE",
"378 700 LINE SMOOTH",
"474 700 OFFCURVE",
"555 668 OFFCURVE",
"612 608 CURVE SMOOTH",
"669 548 OFFCURVE",
"702 461 OFFCURVE",
"702 350 CURVE SMOOTH"
);
},
{
closed = 1;
nodes = (
"689 459 OFFCURVE",
"657 544 OFFCURVE",
"603 602 CURVE SMOOTH",
"548 660 OFFCURVE",
"470 690 OFFCURVE",
"378 690 CURVE SMOOTH",
"140 690 LINE",
"140 10 LINE",
"378 10 LINE SMOOTH",
"470 10 OFFCURVE",
"548 41 OFFCURVE",
"603 99 CURVE SMOOTH",
"657 157 OFFCURVE",
"689 242 OFFCURVE",
"689 350 CURVE SMOOTH"
);
}
);
width = 788;
},
{
layerId = "F36DCCA2-8A71-42CF-9609-F852DF368EC0";
paths = (
{
closed = 1;
nodes = (
"730 251 OFFCURVE",
"694 161 OFFCURVE",
"632 99 CURVE SMOOTH",
"570 36 OFFCURVE",
"482 0 OFFCURVE",
"376 0 CURVE SMOOTH",
"109 0 LINE",
"109 717 LINE",
"376 717 LINE SMOOTH",
"482 717 OFFCURVE",
"570 681 OFFCURVE",
"632 618 CURVE SMOOTH",
"694 555 OFFCURVE",
"730 466 OFFCURVE",
"730 358 CURVE SMOOTH"
);
},
{
closed = 1;
nodes = (
"630 446 OFFCURVE",
"605 516 OFFCURVE",
"561 564 CURVE SMOOTH",
"517 612 OFFCURVE",
"454 638 OFFCURVE",
"376 638 CURVE SMOOTH",
"206 638 LINE",
"206 79 LINE",
"376 79 LINE SMOOTH",
"454 79 OFFCURVE",
"517 105 OFFCURVE",
"561 153 CURVE SMOOTH",
"605 200 OFFCURVE",
"630 270 OFFCURVE",
"630 358 CURVE SMOOTH"
);
}
);
width = 793;
},
{
layerId = "A9E408DD-A955-440F-BEB6-B96F0772F152";
paths = (
{
closed = 1;
nodes = (
"742 256 OFFCURVE",
"705 165 OFFCURVE",
"641 101 CURVE SMOOTH",
"577 37 OFFCURVE",
"485 0 OFFCURVE",
"375 0 CURVE SMOOTH",
"100 0 LINE",
"100 723 LINE",
"375 723 LINE SMOOTH",
"485 723 OFFCURVE",
"577 686 OFFCURVE",
"641 622 CURVE SMOOTH",
"705 558 OFFCURVE",
"742 468 OFFCURVE",
"742 362 CURVE SMOOTH"
);
},
{
closed = 1;
nodes = (
"604 441 OFFCURVE",
"582 505 OFFCURVE",
"543 549 CURVE SMOOTH",
"503 592 OFFCURVE",
"446 616 OFFCURVE",
"375 616 CURVE SMOOTH",
"235 616 LINE",
"235 107 LINE",
"375 107 LINE SMOOTH",
"446 107 OFFCURVE",
"503 131 OFFCURVE",
"543 175 CURVE SMOOTH",
"582 219 OFFCURVE",
"604 282 OFFCURVE",
"604 362 CURVE SMOOTH"
);
}
);
width = 795;
}
);
leftKerningGroup = B;
note = D;
rightKerningGroup = D;
unicode = 0044;
},
{
glyphname = Eth;
lastChange = "2021-09-03 08:48:21 +0000";
layers = (
{
layerId = "7DA69401-B8BB-4CEF-A33A-65E5ADA83450";
paths = (
{
closed = 1;
nodes = (
"421 10 LINE SMOOTH",
"513 10 OFFCURVE",
"591 41 OFFCURVE",
"645 99 CURVE SMOOTH",
"700 157 OFFCURVE",
"732 242 OFFCURVE",
"732 350 CURVE SMOOTH",
"732 459 OFFCURVE",
"700 544 OFFCURVE",
"645 602 CURVE SMOOTH",
"591 660 OFFCURVE",
"513 690 OFFCURVE",
"421 690 CURVE SMOOTH",
"183 690 LINE",
"183 361 LINE",
"355 361 LINE",
"355 351 LINE",
"183 351 LINE",
"183 10 LINE"
);
},
{
closed = 1;
nodes = (
"421 700 LINE SMOOTH",
"517 700 OFFCURVE",
"598 668 OFFCURVE",
"655 608 CURVE SMOOTH",
"712 548 OFFCURVE",
"745 461 OFFCURVE",
"745 350 CURVE SMOOTH",
"745 240 OFFCURVE",
"712 152 OFFCURVE",
"655 92 CURVE SMOOTH",
"598 32 OFFCURVE",
"517 0 OFFCURVE",
"421 0 CURVE SMOOTH",
"171 0 LINE",
"171 351 LINE",
"55 351 LINE",
"55 361 LINE",
"171 361 LINE",
"171 700 LINE"
);
}
);
width = 831;
},
{
layerId = "F36DCCA2-8A71-42CF-9609-F852DF368EC0";
paths = (
{
closed = 1;
nodes = (
"405 79 LINE SMOOTH",
"481 79 OFFCURVE",
"545 105 OFFCURVE",
"589 153 CURVE SMOOTH",
"633 200 OFFCURVE",
"658 270 OFFCURVE",
"658 358 CURVE SMOOTH",
"658 446 OFFCURVE",
"633 516 OFFCURVE",
"589 564 CURVE SMOOTH",
"545 612 OFFCURVE",
"481 638 OFFCURVE",
"405 638 CURVE SMOOTH",
"234 638 LINE",
"234 390 LINE",
"379 390 LINE",
"379 333 LINE",
"234 333 LINE",
"234 79 LINE"
);
},
{
closed = 1;
nodes = (
"405 717 LINE SMOOTH",
"510 717 OFFCURVE",
"598 681 OFFCURVE",
"660 618 CURVE SMOOTH",
"722 555 OFFCURVE",
"758 466 OFFCURVE",
"758 358 CURVE SMOOTH",
"758 251 OFFCURVE",
"722 161 OFFCURVE",
"660 99 CURVE SMOOTH",
"598 36 OFFCURVE",
"510 0 OFFCURVE",
"405 0 CURVE SMOOTH",
"137 0 LINE",
"137 333 LINE",
"39 333 LINE",
"39 390 LINE",
"137 390 LINE",
"137 717 LINE"
);
}
);
width = 821;
},
{
layerId = "A9E408DD-A955-440F-BEB6-B96F0772F152";
paths = (
{
closed = 1;
nodes = (
"399 107 LINE SMOOTH",
"469 107 OFFCURVE",
"526 131 OFFCURVE",
"566 175 CURVE SMOOTH",
"605 219 OFFCURVE",
"627 282 OFFCURVE",
"627 362 CURVE SMOOTH",
"627 441 OFFCURVE",
"605 505 OFFCURVE",
"566 549 CURVE SMOOTH",
"526 592 OFFCURVE",
"469 616 OFFCURVE",
"399 616 CURVE SMOOTH",
"258 616 LINE",
"258 402 LINE",
"391 402 LINE",
"391 326 LINE",
"258 326 LINE",
"258 107 LINE"
);
},
{
closed = 1;
nodes = (
"399 723 LINE SMOOTH",
"509 723 OFFCURVE",
"600 686 OFFCURVE",
"664 622 CURVE SMOOTH",
"728 558 OFFCURVE",
"765 468 OFFCURVE",
"765 362 CURVE SMOOTH",
"765 256 OFFCURVE",
"728 165 OFFCURVE",
"664 101 CURVE SMOOTH",
"600 37 OFFCURVE",
"509 0 OFFCURVE",
"399 0 CURVE SMOOTH",
"123 0 LINE",
"123 326 LINE",
"32 326 LINE",
"32 402 LINE",
"123 402 LINE",
"123 723 LINE"
);
}
);
width = 818;
}
);
leftKerningGroup = B;
note = Eth;
rightKerningGroup = D;
unicode = 00D0;
},
{
glyphname = E;
lastChange = "2021-09-03 08:48:17 +0000";
layers = (
{
layerId = "7DA69401-B8BB-4CEF-A33A-65E5ADA83450";
paths = (
{
closed = 1;
nodes = (
"538 11 LINE",
"537 0 LINE",
"128 0 LINE",
"128 700 LINE",
"537 700 LINE",
"537 689 LINE",
"140 689 LINE",
"140 361 LINE",
"477 361 LINE",
"477 350 LINE",
"140 350 LINE",
"140 11 LINE"
);
}
);
width = 599;
},
{
layerId = "F36DCCA2-8A71-42CF-9609-F852DF368EC0";
paths = (
{
closed = 1;
nodes = (
"551 79 LINE",
"550 0 LINE",
"109 0 LINE",
"109 717 LINE",
"550 717 LINE",
"550 638 LINE",
"206 638 LINE",
"206 400 LINE",
"485 400 LINE",
"485 324 LINE",
"206 324 LINE",
"206 79 LINE"
);
}
);
width = 607;
},
{
layerId = "A9E408DD-A955-440F-BEB6-B96F0772F152";
paths = (
{
closed = 1;
nodes = (
"235 616 LINE",
"235 416 LINE",
"488 416 LINE",
"488 312 LINE",
"235 312 LINE",
"235 108 LINE",
"556 108 LINE",
"556 0 LINE",
"100 0 LINE",
"100 723 LINE",
"556 723 LINE",
"556 616 LINE"
);
}
);
width = 610;
}
);
leftKerningGroup = B;
note = E;
rightKerningGroup = AE;
unicode = 0045;
},
{
glyphname = Eacute;
lastChange = "2021-09-03 08:48:19 +0000";
layers = (
{
layerId = "7DA69401-B8BB-4CEF-A33A-65E5ADA83450";
paths = (
{
closed = 1;
nodes = (
"538 11 LINE",
"537 0 LINE",
"128 0 LINE",
"128 700 LINE",
"537 700 LINE",
"537 689 LINE",
"140 689 LINE",
"140 361 LINE",
"477 361 LINE",
"477 350 LINE",
"140 350 LINE",
"140 11 LINE"
);
},
{
closed = 1;
nodes = (
"478 916 LINE",
"313 772 LINE",
"311 770 OFFCURVE",
"308 769 OFFCURVE",
"304 769 CURVE SMOOTH",
"298 769 LINE",
"439 909 LINE SMOOTH",
"444 915 OFFCURVE",
"448 916 OFFCURVE",
"460 916 CURVE SMOOTH"
);
}
);
width = 599;
},
{
layerId = "F36DCCA2-8A71-42CF-9609-F852DF368EC0";
paths = (
{
closed = 1;
nodes = (
"551 79 LINE",
"550 0 LINE",
"109 0 LINE",
"109 717 LINE",
"550 717 LINE",
"550 638 LINE",
"206 638 LINE",
"206 400 LINE",
"485 400 LINE",
"485 324 LINE",
"206 324 LINE",
"206 79 LINE"
);
},
{
closed = 1;
nodes = (
"525 926 LINE",
"362 783 LINE",
"352 774 OFFCURVE",
"344 773 OFFCURVE",
"330 773 CURVE SMOOTH",
"266 773 LINE",
"382 910 LINE SMOOTH",
"393 925 OFFCURVE",
"402 926 OFFCURVE",
"424 926 CURVE SMOOTH"
);
}
);
width = 607;
},
{
layerId = "A9E408DD-A955-440F-BEB6-B96F0772F152";
paths = (
{
closed = 1;
nodes = (
"235 616 LINE",
"235 416 LINE",
"488 416 LINE",
"488 312 LINE",
"235 312 LINE",
"235 108 LINE",
"556 108 LINE",
"556 0 LINE",
"100 0 LINE",
"100 723 LINE",
"556 723 LINE",
"556 616 LINE"
);
},
{
closed = 1;
nodes = (
"545 931 LINE",
"383 788 LINE SMOOTH",
"370 776 OFFCURVE",
"360 775 OFFCURVE",
"341 775 CURVE SMOOTH",
"252 775 LINE",
"356 910 LINE",
"363 920 OFFCURVE",
"369 925 OFFCURVE",
"377 928 CURVE SMOOTH",
"385 930 OFFCURVE",
"394 931 OFFCURVE",
"408 931 CURVE SMOOTH"
);
}
);
width = 610;
}
);
leftKerningGroup = B;
note = Eacute;
rightKerningGroup = AE;
unicode = 00C9;
},
{
glyphname = Ecircumflex;
lastChange = "2021-09-03 08:48:20 +0000";
layers = (
{
layerId = "7DA69401-B8BB-4CEF-A33A-65E5ADA83450";
paths = (
{
closed = 1;
nodes = (
"538 11 LINE",
"537 0 LINE",
"128 0 LINE",
"128 700 LINE",
"537 700 LINE",
"537 689 LINE",
"140 689 LINE",
"140 361 LINE",
"477 361 LINE",
"477 350 LINE",
"140 350 LINE",
"140 11 LINE"
);
},
{
closed = 1;
nodes = (
"456 769 LINE",
"446 769 LINE SMOOTH",
"443 769 OFFCURVE",
"440 770 OFFCURVE",
"436 773 CURVE",
"338 885 LINE",
"338 886 OFFCURVE",
"337 887 OFFCURVE",
"336 888 CURVE",
"336 887 OFFCURVE",
"335 886 OFFCURVE",
"334 885 CURVE",
"236 773 LINE",
"233 770 OFFCURVE",
"230 769 OFFCURVE",
"226 769 CURVE SMOOTH",
"216 769 LINE",
"332 901 LINE",
"340 901 LINE"
);
}
);
width = 599;
},
{
layerId = "F36DCCA2-8A71-42CF-9609-F852DF368EC0";
paths = (
{
closed = 1;
nodes = (
"551 79 LINE",
"550 0 LINE",
"109 0 LINE",
"109 717 LINE",
"550 717 LINE",
"550 638 LINE",
"206 638 LINE",
"206 400 LINE",
"485 400 LINE",
"485 324 LINE",
"206 324 LINE",
"206 79 LINE"
);
},
{
closed = 1;
nodes = (
"496 773 LINE",
"431 773 LINE SMOOTH",
"423 773 OFFCURVE",
"412 774 OFFCURVE",
"400 788 CURVE SMOOTH",
"342 858 LINE",
"336 867 LINE",
"330 858 LINE",
"271 788 LINE SMOOTH",
"260 774 OFFCURVE",
"248 773 OFFCURVE",
"240 773 CURVE SMOOTH",
"178 773 LINE",
"297 909 LINE",
"377 909 LINE"
);
}
);
width = 607;
},
{
layerId = "A9E408DD-A955-440F-BEB6-B96F0772F152";
paths = (
{
closed = 1;
nodes = (
"235 616 LINE",
"235 416 LINE",
"488 416 LINE",
"488 312 LINE",
"235 312 LINE",
"235 108 LINE",
"556 108 LINE",
"556 0 LINE",
"100 0 LINE",
"100 723 LINE",
"556 723 LINE",
"556 616 LINE"
);
},
{
closed = 1;
nodes = (
"514 775 LINE",
"424 775 LINE SMOOTH",
"414 775 OFFCURVE",
"399 776 OFFCURVE",
"384 794 CURVE",
"343 847 LINE SMOOTH",
"339 851 OFFCURVE",
"337 855 OFFCURVE",
"335 858 CURVE",
"334 855 OFFCURVE",
"331 851 OFFCURVE",
"328 847 CURVE SMOOTH",
"287 794 LINE",
"271 776 OFFCURVE",
"256 775 OFFCURVE",
"246 775 CURVE SMOOTH",
"161 775 LINE",
"281 912 LINE",
"393 912 LINE"
);
}
);
width = 610;
}
);
leftKerningGroup = B;
note = Ecircumflex;
rightKerningGroup = AE;
unicode = 00CA;
},
{
glyphname = Edieresis;
lastChange = "2021-09-03 08:48:20 +0000";
layers = (
{
layerId = "7DA69401-B8BB-4CEF-A33A-65E5ADA83450";
paths = (
{
closed = 1;
nodes = (
"538 11 LINE",
"537 0 LINE",
"128 0 LINE",
"128 700 LINE",
"537 700 LINE",
"537 689 LINE",
"140 689 LINE",
"140 361 LINE",
"477 361 LINE",
"477 350 LINE",
"140 350 LINE",
"140 11 LINE"
);
},
{
closed = 1;
nodes = (
"272 818 OFFCURVE",
"258 805 OFFCURVE",
"244 805 CURVE SMOOTH",
"229 805 OFFCURVE",
"216 818 OFFCURVE",
"216 832 CURVE SMOOTH",
"216 848 OFFCURVE",
"229 860 OFFCURVE",
"244 860 CURVE SMOOTH",
"258 860 OFFCURVE",
"272 848 OFFCURVE",
"272 832 CURVE SMOOTH"
);
},
{
closed = 1;
nodes = (
"456 818 OFFCURVE",
"442 805 OFFCURVE",
"428 805 CURVE SMOOTH",
"413 805 OFFCURVE",
"400 818 OFFCURVE",
"400 832 CURVE SMOOTH",
"400 848 OFFCURVE",
"413 860 OFFCURVE",
"428 860 CURVE SMOOTH",
"442 860 OFFCURVE",
"456 848 OFFCURVE",
"456 832 CURVE SMOOTH"
);
}
);
width = 599;
},
{
layerId = "F36DCCA2-8A71-42CF-9609-F852DF368EC0";
paths = (
{
closed = 1;
nodes = (
"551 79 LINE",
"550 0 LINE",
"109 0 LINE",
"109 717 LINE",
"550 717 LINE",
"550 638 LINE",
"206 638 LINE",
"206 400 LINE",
"485 400 LINE",
"485 324 LINE",
"206 324 LINE",
"206 79 LINE"
);
},
{
closed = 1;
nodes = (
"286 819 OFFCURVE",
"280 805 OFFCURVE",
"270 795 CURVE SMOOTH",
"259 785 OFFCURVE",
"245 779 OFFCURVE",
"230 779 CURVE SMOOTH",
"216 779 OFFCURVE",
"203 785 OFFCURVE",
"193 795 CURVE SMOOTH",
"183 805 OFFCURVE",
"176 819 OFFCURVE",
"176 833 CURVE SMOOTH",
"176 849 OFFCURVE",
"183 863 OFFCURVE",
"193 873 CURVE SMOOTH",
"203 883 OFFCURVE",
"216 889 OFFCURVE",
"230 889 CURVE SMOOTH",
"245 889 OFFCURVE",
"259 883 OFFCURVE",
"270 873 CURVE SMOOTH",
"280 863 OFFCURVE",
"286 849 OFFCURVE",
"286 833 CURVE SMOOTH"
);
},
{
closed = 1;
nodes = (
"495 819 OFFCURVE",
"489 805 OFFCURVE",
"479 795 CURVE SMOOTH",
"469 785 OFFCURVE",
"455 779 OFFCURVE",
"440 779 CURVE SMOOTH",
"425 779 OFFCURVE",
"411 785 OFFCURVE",
"401 795 CURVE SMOOTH",
"391 805 OFFCURVE",
"385 819 OFFCURVE",
"385 833 CURVE SMOOTH",
"385 849 OFFCURVE",
"391 863 OFFCURVE",
"401 873 CURVE SMOOTH",
"411 883 OFFCURVE",
"425 889 OFFCURVE",
"440 889 CURVE SMOOTH",
"455 889 OFFCURVE",
"469 883 OFFCURVE",
"479 873 CURVE SMOOTH",
"489 863 OFFCURVE",
"495 849 OFFCURVE",
"495 833 CURVE SMOOTH"
);
}
);
width = 607;
},
{
layerId = "A9E408DD-A955-440F-BEB6-B96F0772F152";
paths = (
{
closed = 1;
nodes = (
"235 616 LINE",
"235 416 LINE",
"488 416 LINE",
"488 312 LINE",
"235 312 LINE",
"235 108 LINE",
"556 108 LINE",
"556 0 LINE",
"100 0 LINE",
"100 723 LINE",
"556 723 LINE",
"556 616 LINE"
);
},
{
closed = 1;
nodes = (
"292 816 OFFCURVE",
"284 799 OFFCURVE",
"272 787 CURVE SMOOTH",
"260 775 OFFCURVE",
"242 768 OFFCURVE",
"224 768 CURVE SMOOTH",
"206 768 OFFCURVE",
"190 775 OFFCURVE",
"178 787 CURVE SMOOTH",
"166 799 OFFCURVE",
"158 816 OFFCURVE",
"158 834 CURVE SMOOTH",
"158 852 OFFCURVE",
"166 869 OFFCURVE",
"178 881 CURVE SMOOTH",
"190 893 OFFCURVE",
"206 901 OFFCURVE",
"224 901 CURVE SMOOTH",
"242 901 OFFCURVE",
"260 893 OFFCURVE",
"272 881 CURVE",
"284 869 OFFCURVE",
"292 852 OFFCURVE",
"292 834 CURVE SMOOTH"
);
},
{
closed = 1;
nodes = (
"512 816 OFFCURVE",
"505 799 OFFCURVE",
"493 787 CURVE SMOOTH",
"480 775 OFFCURVE",
"463 768 OFFCURVE",
"445 768 CURVE SMOOTH",
"427 768 OFFCURVE",
"410 775 OFFCURVE",
"398 787 CURVE SMOOTH",
"386 799 OFFCURVE",
"378 816 OFFCURVE",
"378 834 CURVE SMOOTH",
"378 852 OFFCURVE",
"386 869 OFFCURVE",
"398 881 CURVE SMOOTH",
"410 893 OFFCURVE",
"427 901 OFFCURVE",
"445 901 CURVE SMOOTH",
"463 901 OFFCURVE",
"480 893 OFFCURVE",
"493 881 CURVE",
"505 869 OFFCURVE",
"512 852 OFFCURVE",
"512 834 CURVE SMOOTH"
);
}
);
width = 610;
}
);
leftKerningGroup = B;
note = Edieresis;
rightKerningGroup = AE;
unicode = 00CB;
},
{
glyphname = Egrave;
lastChange = "2021-09-03 08:48:18 +0000";
layers = (
{
layerId = "7DA69401-B8BB-4CEF-A33A-65E5ADA83450";
paths = (
{
closed = 1;
nodes = (
"538 11 LINE",
"537 0 LINE",
"128 0 LINE",
"128 700 LINE",
"537 700 LINE",
"537 689 LINE",
"140 689 LINE",
"140 361 LINE",
"477 361 LINE",
"477 350 LINE",
"140 350 LINE",
"140 11 LINE"
);
},
{
closed = 1;
nodes = (
"233 916 LINE SMOOTH",
"244 916 OFFCURVE",
"248 915 OFFCURVE",
"254 909 CURVE SMOOTH",
"378 769 LINE",
"372 769 LINE SMOOTH",
"369 769 OFFCURVE",
"366 770 OFFCURVE",
"363 772 CURVE SMOOTH",
"215 916 LINE"
);
}
);
width = 599;
},
{
layerId = "F36DCCA2-8A71-42CF-9609-F852DF368EC0";
paths = (
{
closed = 1;
nodes = (
"551 79 LINE",
"550 0 LINE",
"109 0 LINE",
"109 717 LINE",
"550 717 LINE",
"550 638 LINE",
"206 638 LINE",
"206 400 LINE",
"485 400 LINE",
"485 324 LINE",
"206 324 LINE",
"206 79 LINE"
);
},
{
closed = 1;
nodes = (
"247 926 LINE SMOOTH",
"269 926 OFFCURVE",
"278 925 OFFCURVE",
"289 910 CURVE SMOOTH",
"403 773 LINE",
"339 773 LINE SMOOTH",
"325 773 OFFCURVE",
"318 773 OFFCURVE",
"308 783 CURVE SMOOTH",
"152 926 LINE"
);
}
);
width = 607;
},
{
layerId = "A9E408DD-A955-440F-BEB6-B96F0772F152";
paths = (
{
closed = 1;
nodes = (
"235 616 LINE",
"235 416 LINE",
"488 416 LINE",
"488 312 LINE",
"235 312 LINE",
"235 108 LINE",
"556 108 LINE",
"556 0 LINE",
"100 0 LINE",
"100 723 LINE",
"556 723 LINE",
"556 616 LINE"
);
},
{
closed = 1;
nodes = (
"253 931 LINE SMOOTH",
"267 931 OFFCURVE",
"276 931 OFFCURVE",
"284 928 CURVE SMOOTH",
"291 925 OFFCURVE",
"297 920 OFFCURVE",
"305 910 CURVE SMOOTH",
"414 775 LINE",
"324 775 LINE SMOOTH",
"305 775 OFFCURVE",
"297 775 OFFCURVE",
"283 787 CURVE SMOOTH",
"124 931 LINE"
);
}
);
width = 610;
}
);
leftKerningGroup = B;
note = Egrave;
rightKerningGroup = AE;
unicode = 00C8;
},
{
glyphname = F;
lastChange = "2021-09-03 08:48:18 +0000";
layers = (
{
layerId = "7DA69401-B8BB-4CEF-A33A-65E5ADA83450";
paths = (
{
closed = 1;
nodes = (
"140 689 LINE",
"140 351 LINE",
"487 351 LINE",
"487 340 LINE",
"140 340 LINE",
"140 0 LINE",
"128 0 LINE",
"128 700 LINE",
"537 700 LINE",
"537 689 LINE"
);
}
);
width = 591;
},
{
layerId = "F36DCCA2-8A71-42CF-9609-F852DF368EC0";
paths = (
{
closed = 1;
nodes = (
"206 638 LINE",
"206 387 LINE",
"500 387 LINE",
"500 308 LINE",
"206 308 LINE",
"206 0 LINE",
"109 0 LINE",
"109 717 LINE",
"550 717 LINE",
"550 638 LINE"
);
}
);
width = 594;
},
{
layerId = "A9E408DD-A955-440F-BEB6-B96F0772F152";
paths = (
{
closed = 1;
nodes = (
"235 616 LINE",
"235 402 LINE",
"506 402 LINE",
"506 295 LINE",
"235 295 LINE",
"235 0 LINE",
"100 0 LINE",
"100 723 LINE",
"556 723 LINE",
"556 616 LINE"
);
}
);
width = 595;
}
);
leftKerningGroup = B;
note = F;
rightKerningGroup = F;
unicode = 0046;
},
{
glyphname = G;
lastChange = "2021-09-03 08:48:20 +0000";
layers = (
{
layerId = "7DA69401-B8BB-4CEF-A33A-65E5ADA83450";
paths = (
{
closed = 1;
nodes = (
"683 301 LINE",
"683 69 LINE",
"648 46 OFFCURVE",
"612 27 OFFCURVE",
"572 13 CURVE SMOOTH",
"531 -1 OFFCURVE",
"486 -8 OFFCURVE",
"436 -8 CURVE SMOOTH",
"326 -8 OFFCURVE",
"239 26 OFFCURVE",
"179 88 CURVE SMOOTH",
"118 150 OFFCURVE",
"85 240 OFFCURVE",
"85 350 CURVE SMOOTH",
"85 460 OFFCURVE",
"118 550 OFFCURVE",
"178 612 CURVE SMOOTH",
"238 674 OFFCURVE",
"324 708 OFFCURVE",
"430 708 CURVE SMOOTH",
"482 708 OFFCURVE",
"524 702 OFFCURVE",
"562 689 CURVE SMOOTH",
"599 676 OFFCURVE",
"631 656 OFFCURVE",
"663 628 CURVE",
"661 625 LINE",
"660 623 OFFCURVE",
"658 622 OFFCURVE",
"656 622 CURVE SMOOTH",
"654 622 OFFCURVE",
"651 624 OFFCURVE",
"647 628 CURVE",
"639 636 OFFCURVE",
"624 647 OFFCURVE",
"600 660 CURVE SMOOTH",
"577 674 OFFCURVE",
"544 685 OFFCURVE",
"502 693 CURVE SMOOTH",
"481 696 OFFCURVE",
"457 698 OFFCURVE",
"430 698 CURVE SMOOTH",
"328 698 OFFCURVE",
"245 666 OFFCURVE",
"187 606 CURVE SMOOTH",
"129 546 OFFCURVE",
"97 459 OFFCURVE",
"97 350 CURVE SMOOTH",
"97 243 OFFCURVE",
"128 156 OFFCURVE",
"187 96 CURVE SMOOTH",
"245 36 OFFCURVE",
"330 2 OFFCURVE",
"436 2 CURVE SMOOTH",
"485 2 OFFCURVE",
"526 9 OFFCURVE",
"564 21 CURVE SMOOTH",
"601 33 OFFCURVE",
"636 51 OFFCURVE",
"672 74 CURVE",
"672 291 LINE",
"515 291 LINE SMOOTH",
"511 291 OFFCURVE",
"509 294 OFFCURVE",
"509 296 CURVE SMOOTH",
"509 301 LINE"
);
}
);
width = 769;
},
{
layerId = "F36DCCA2-8A71-42CF-9609-F852DF368EC0";
paths = (
{
closed = 1;
nodes = (
"690 345 LINE",
"690 70 LINE",
"618 18 OFFCURVE",
"538 -8 OFFCURVE",
"440 -8 CURVE SMOOTH",
"325 -8 OFFCURVE",
"231 30 OFFCURVE",
"166 94 CURVE SMOOTH",
"100 158 OFFCURVE",
"63 250 OFFCURVE",
"63 358 CURVE SMOOTH",
"63 468 OFFCURVE",
"99 559 OFFCURVE",
"162 624 CURVE SMOOTH",
"226 688 OFFCURVE",
"318 725 OFFCURVE",
"430 725 CURVE SMOOTH",
"486 725 OFFCURVE",
"535 716 OFFCURVE",
"576 701 CURVE SMOOTH",
"618 685 OFFCURVE",
"653 662 OFFCURVE",
"683 634 CURVE",
"656 590 LINE SMOOTH",
"647 577 OFFCURVE",
"633 572 OFFCURVE",
"616 582 CURVE SMOOTH",
"608 587 OFFCURVE",
"599 593 OFFCURVE",
"589 599 CURVE SMOOTH",
"568 613 OFFCURVE",
"539 626 OFFCURVE",
"499 634 CURVE SMOOTH",
"478 639 OFFCURVE",
"454 641 OFFCURVE",
"427 641 CURVE SMOOTH",
"346 641 OFFCURVE",
"280 614 OFFCURVE",
"234 565 CURVE SMOOTH",
"188 516 OFFCURVE",
"162 445 OFFCURVE",
"162 358 CURVE SMOOTH",
"162 268 OFFCURVE",
"189 197 OFFCURVE",
"237 147 CURVE SMOOTH",
"284 97 OFFCURVE",
"353 71 OFFCURVE",
"438 71 CURVE SMOOTH",
"504 71 OFFCURVE",
"553 87 OFFCURVE",
"602 113 CURVE",
"602 271 LINE",
"491 271 LINE SMOOTH",
"478 271 OFFCURVE",
"470 279 OFFCURVE",
"470 290 CURVE SMOOTH",
"470 345 LINE"
);
}
);
width = 764;
},
{
layerId = "A9E408DD-A955-440F-BEB6-B96F0772F152";
paths = (
{
closed = 1;
nodes = (
"692 363 LINE",
"692 70 LINE",
"618 16 OFFCURVE",
"536 -8 OFFCURVE",
"441 -8 CURVE SMOOTH",
"323 -8 OFFCURVE",
"226 31 OFFCURVE",
"159 96 CURVE SMOOTH",
"91 162 OFFCURVE",
"53 254 OFFCURVE",
"53 362 CURVE SMOOTH",
"53 470 OFFCURVE",
"90 563 OFFCURVE",
"155 628 CURVE SMOOTH",
"220 694 OFFCURVE",
"313 731 OFFCURVE",
"429 731 CURVE SMOOTH",
"487 731 OFFCURVE",
"538 721 OFFCURVE",
"582 705 CURVE SMOOTH",
"626 689 OFFCURVE",
"661 665 OFFCURVE",
"691 637 CURVE",
"653 576 LINE SMOOTH",
"641 556 OFFCURVE",
"620 551 OFFCURVE",
"598 565 CURVE SMOOTH",
"587 572 OFFCURVE",
"576 578 OFFCURVE",
"565 584 CURVE SMOOTH",
"543 597 OFFCURVE",
"516 606 OFFCURVE",
"483 612 CURVE SMOOTH",
"466 615 OFFCURVE",
"446 617 OFFCURVE",
"424 617 CURVE SMOOTH",
"353 617 OFFCURVE",
"294 592 OFFCURVE",
"254 547 CURVE SMOOTH",
"213 503 OFFCURVE",
"190 439 OFFCURVE",
"190 362 CURVE SMOOTH",
"190 279 OFFCURVE",
"215 214 OFFCURVE",
"258 169 CURVE SMOOTH",
"301 124 OFFCURVE",
"363 99 OFFCURVE",
"437 99 CURVE SMOOTH",
"491 99 OFFCURVE",
"530 111 OFFCURVE",
"570 131 CURVE",
"570 262 LINE",
"479 262 LINE SMOOTH",
"462 262 OFFCURVE",
"452 273 OFFCURVE",
"452 287 CURVE SMOOTH",
"452 363 LINE"
);
}
);
width = 761;
}
);
leftKerningGroup = C;
note = G;
rightKerningGroup = G;
unicode = 0047;
},
{
glyphname = H;
lastChange = "2021-09-03 08:48:21 +0000";
layers = (
{
layerId = "7DA69401-B8BB-4CEF-A33A-65E5ADA83450";
paths = (
{
closed = 1;
nodes = (
"644 700 LINE",
"644 0 LINE",
"632 0 LINE",
"632 350 LINE",
"140 350 LINE",
"140 0 LINE",
"128 0 LINE",
"128 700 LINE",
"140 700 LINE",
"140 361 LINE",
"632 361 LINE",
"632 700 LINE"
);
}
);
width = 772;
},
{
layerId = "F36DCCA2-8A71-42CF-9609-F852DF368EC0";
paths = (
{
closed = 1;
nodes = (
"689 717 LINE",
"689 0 LINE",
"592 0 LINE",
"592 326 LINE",
"206 326 LINE",
"206 0 LINE",
"109 0 LINE",
"109 717 LINE",
"206 717 LINE",
"206 397 LINE",
"592 397 LINE",
"592 717 LINE"
);
}
);
width = 798;
},
{
layerId = "A9E408DD-A955-440F-BEB6-B96F0772F152";
paths = (
{
closed = 1;
nodes = (
"709 723 LINE",
"709 0 LINE",
"574 0 LINE",
"574 316 LINE",
"235 316 LINE",
"235 0 LINE",
"100 0 LINE",
"100 723 LINE",
"235 723 LINE",
"235 412 LINE",
"574 412 LINE",
"574 723 LINE"
);
}
);
width = 809;
}
);
leftKerningGroup = B;
note = H;
rightKerningGroup = H;
unicode = 0048;
},
{
glyphname = I;
lastChange = "2021-09-03 08:48:18 +0000";
layers = (
{
layerId = "7DA69401-B8BB-4CEF-A33A-65E5ADA83450";
paths = (
{
closed = 1;
nodes = (
"140 0 LINE",
"128 0 LINE",
"128 700 LINE",
"140 700 LINE"
);
}
);
width = 268;
},
{
layerId = "F36DCCA2-8A71-42CF-9609-F852DF368EC0";
paths = (
{
closed = 1;
nodes = (
"206 0 LINE",
"109 0 LINE",
"109 717 LINE",
"206 717 LINE"
);
}
);
width = 315;
},
{
layerId = "A9E408DD-A955-440F-BEB6-B96F0772F152";
paths = (
{
closed = 1;
nodes = (
"235 0 LINE",
"100 0 LINE",
"100 723 LINE",
"235 723 LINE"
);
}
);
width = 335;
}
);
leftKerningGroup = B;
note = I;
rightKerningGroup = H;
unicode = 0049;
},
{
glyphname = Iacute;
lastChange = "2021-09-03 08:48:18 +0000";
layers = (
{
layerId = "7DA69401-B8BB-4CEF-A33A-65E5ADA83450";
paths = (
{
closed = 1;
nodes = (
"141 0 LINE",
"129 0 LINE",
"129 700 LINE",
"141 700 LINE"
);
},
{
closed = 1;
nodes = (
"278 916 LINE",
"113 772 LINE",
"111 770 OFFCURVE",
"108 769 OFFCURVE",
"104 769 CURVE SMOOTH",
"98 769 LINE",
"239 909 LINE SMOOTH",
"244 915 OFFCURVE",
"248 916 OFFCURVE",
"260 916 CURVE SMOOTH"
);
}
);
width = 270;
},
{
layerId = "F36DCCA2-8A71-42CF-9609-F852DF368EC0";
paths = (
{
closed = 1;
nodes = (
"207 0 LINE",
"110 0 LINE",
"110 717 LINE",
"207 717 LINE"
);
},
{
closed = 1;
nodes = (
"349 926 LINE",
"186 783 LINE",
"176 774 OFFCURVE",
"168 773 OFFCURVE",
"154 773 CURVE SMOOTH",
"90 773 LINE",
"206 910 LINE SMOOTH",
"217 925 OFFCURVE",
"226 926 OFFCURVE",
"248 926 CURVE SMOOTH"
);
}
);
width = 317;
},
{
layerId = "A9E408DD-A955-440F-BEB6-B96F0772F152";
paths = (
{
closed = 1;
nodes = (
"235 0 LINE",
"100 0 LINE",
"100 723 LINE",
"235 723 LINE"
);
},
{
closed = 1;
nodes = (
"379 931 LINE",
"217 788 LINE SMOOTH",
"204 776 OFFCURVE",
"194 775 OFFCURVE",
"175 775 CURVE SMOOTH",
"86 775 LINE",
"190 910 LINE",
"197 920 OFFCURVE",
"203 925 OFFCURVE",
"211 928 CURVE SMOOTH",
"219 930 OFFCURVE",
"228 931 OFFCURVE",
"242 931 CURVE SMOOTH"
);
}
);
width = 336;
}
);
leftKerningGroup = B;
note = Iacute;
rightKerningGroup = H;
unicode = 00CD;
},
{
glyphname = Icircumflex;
lastChange = "2021-09-03 08:48:20 +0000";
layers = (
{
layerId = "7DA69401-B8BB-4CEF-A33A-65E5ADA83450";
paths = (
{
closed = 1;
nodes = (
"140 0 LINE",
"128 0 LINE",
"128 700 LINE",
"140 700 LINE"
);
},
{
closed = 1;
nodes = (
"255 769 LINE",
"245 769 LINE SMOOTH",
"242 769 OFFCURVE",
"239 770 OFFCURVE",
"235 773 CURVE",
"137 885 LINE",
"137 886 OFFCURVE",
"136 887 OFFCURVE",
"135 888 CURVE",
"135 887 OFFCURVE",
"134 886 OFFCURVE",
"133 885 CURVE",
"35 773 LINE",
"32 770 OFFCURVE",
"29 769 OFFCURVE",
"25 769 CURVE SMOOTH",
"15 769 LINE",
"131 901 LINE",
"139 901 LINE"
);
}
);
width = 268;
},
{
layerId = "F36DCCA2-8A71-42CF-9609-F852DF368EC0";
paths = (
{
closed = 1;
nodes = (
"207 0 LINE",
"110 0 LINE",
"110 717 LINE",
"207 717 LINE"
);
},
{
closed = 1;
nodes = (
"320 773 LINE",
"255 773 LINE SMOOTH",
"247 773 OFFCURVE",
"236 774 OFFCURVE",
"224 788 CURVE SMOOTH",
"166 858 LINE",
"160 867 LINE",
"154 858 LINE",
"95 788 LINE SMOOTH",
"84 774 OFFCURVE",
"72 773 OFFCURVE",
"64 773 CURVE SMOOTH",
"1 773 LINE",
"121 909 LINE",
"201 909 LINE"
);
}
);
width = 317;
},
{
layerId = "A9E408DD-A955-440F-BEB6-B96F0772F152";
paths = (
{
closed = 1;
nodes = (
"235 0 LINE",
"100 0 LINE",
"100 723 LINE",
"235 723 LINE"
);
},
{
closed = 1;
nodes = (
"348 775 LINE",
"258 775 LINE SMOOTH",
"248 775 OFFCURVE",
"233 776 OFFCURVE",
"218 794 CURVE",
"177 847 LINE SMOOTH",
"173 851 OFFCURVE",
"171 855 OFFCURVE",
"169 858 CURVE",
"168 855 OFFCURVE",
"165 851 OFFCURVE",
"162 847 CURVE SMOOTH",
"121 794 LINE",
"105 776 OFFCURVE",
"90 775 OFFCURVE",
"80 775 CURVE SMOOTH",
"-6 775 LINE",
"115 912 LINE",
"227 912 LINE"
);
}
);
width = 335;
}
);
leftKerningGroup = B;
note = Icircumflex;
rightKerningGroup = H;
unicode = 00CE;
},
{
glyphname = Idieresis;
lastChange = "2021-09-03 08:48:18 +0000";
layers = (
{
layerId = "7DA69401-B8BB-4CEF-A33A-65E5ADA83450";
paths = (
{
closed = 1;
nodes = (
"140 0 LINE",
"128 0 LINE",
"128 700 LINE",
"140 700 LINE"
);
},
{
closed = 1;
nodes = (
"71 818 OFFCURVE",
"57 805 OFFCURVE",
"43 805 CURVE SMOOTH",
"28 805 OFFCURVE",
"15 818 OFFCURVE",
"15 832 CURVE SMOOTH",
"15 848 OFFCURVE",
"28 860 OFFCURVE",
"43 860 CURVE SMOOTH",
"57 860 OFFCURVE",
"71 848 OFFCURVE",
"71 832 CURVE SMOOTH"
);
},
{
closed = 1;
nodes = (
"255 818 OFFCURVE",
"241 805 OFFCURVE",
"227 805 CURVE SMOOTH",
"212 805 OFFCURVE",
"199 818 OFFCURVE",
"199 832 CURVE SMOOTH",
"199 848 OFFCURVE",
"212 860 OFFCURVE",
"227 860 CURVE SMOOTH",
"241 860 OFFCURVE",
"255 848 OFFCURVE",
"255 832 CURVE SMOOTH"
);
}
);
width = 268;
},
{
layerId = "F36DCCA2-8A71-42CF-9609-F852DF368EC0";
paths = (
{
closed = 1;
nodes = (
"206 0 LINE",
"109 0 LINE",
"109 717 LINE",
"206 717 LINE"
);
},
{
closed = 1;
nodes = (
"109 819 OFFCURVE",
"103 805 OFFCURVE",
"93 795 CURVE SMOOTH",
"82 785 OFFCURVE",
"68 779 OFFCURVE",
"53 779 CURVE SMOOTH",
"39 779 OFFCURVE",
"26 785 OFFCURVE",
"16 795 CURVE SMOOTH",
"5 805 OFFCURVE",
"-1 819 OFFCURVE",
"-1 833 CURVE SMOOTH",
"-1 849 OFFCURVE",
"5 863 OFFCURVE",
"16 873 CURVE SMOOTH",
"26 883 OFFCURVE",
"39 889 OFFCURVE",
"53 889 CURVE SMOOTH",
"68 889 OFFCURVE",
"82 883 OFFCURVE",
"93 873 CURVE SMOOTH",
"103 863 OFFCURVE",
"109 849 OFFCURVE",
"109 833 CURVE SMOOTH"
);
},
{
closed = 1;
nodes = (
"318 819 OFFCURVE",
"312 805 OFFCURVE",
"302 795 CURVE SMOOTH",
"292 785 OFFCURVE",
"278 779 OFFCURVE",
"263 779 CURVE SMOOTH",
"248 779 OFFCURVE",
"234 785 OFFCURVE",
"224 795 CURVE SMOOTH",
"214 805 OFFCURVE",
"208 819 OFFCURVE",
"208 833 CURVE SMOOTH",
"208 849 OFFCURVE",
"214 863 OFFCURVE",
"224 873 CURVE SMOOTH",
"234 883 OFFCURVE",
"248 889 OFFCURVE",
"263 889 CURVE SMOOTH",
"278 889 OFFCURVE",
"292 883 OFFCURVE",
"302 873 CURVE SMOOTH",
"312 863 OFFCURVE",
"318 849 OFFCURVE",
"318 833 CURVE SMOOTH"
);
}
);
width = 315;
},
{
layerId = "A9E408DD-A955-440F-BEB6-B96F0772F152";
paths = (
{
closed = 1;
nodes = (
"235 0 LINE",
"100 0 LINE",
"100 723 LINE",
"235 723 LINE"
);
},
{
closed = 1;
nodes = (
"126 816 OFFCURVE",
"118 799 OFFCURVE",
"106 787 CURVE SMOOTH",
"94 775 OFFCURVE",
"76 768 OFFCURVE",
"58 768 CURVE SMOOTH",
"40 768 OFFCURVE",
"24 775 OFFCURVE",
"12 787 CURVE SMOOTH",
"0 799 OFFCURVE",
"-8 816 OFFCURVE",
"-8 834 CURVE SMOOTH",
"-8 852 OFFCURVE",
"0 869 OFFCURVE",
"12 881 CURVE SMOOTH",
"24 893 OFFCURVE",
"40 901 OFFCURVE",
"58 901 CURVE SMOOTH",
"76 901 OFFCURVE",
"94 893 OFFCURVE",
"106 881 CURVE",
"118 869 OFFCURVE",
"126 852 OFFCURVE",
"126 834 CURVE SMOOTH"
);
},
{
closed = 1;
nodes = (
"346 816 OFFCURVE",
"339 799 OFFCURVE",
"327 787 CURVE SMOOTH",
"314 775 OFFCURVE",
"297 768 OFFCURVE",
"279 768 CURVE SMOOTH",
"261 768 OFFCURVE",
"244 775 OFFCURVE",
"232 787 CURVE SMOOTH",
"220 799 OFFCURVE",
"212 816 OFFCURVE",
"212 834 CURVE SMOOTH",
"212 852 OFFCURVE",
"220 869 OFFCURVE",
"232 881 CURVE SMOOTH",
"244 893 OFFCURVE",
"261 901 OFFCURVE",
"279 901 CURVE SMOOTH",
"297 901 OFFCURVE",
"314 893 OFFCURVE",
"327 881 CURVE",
"339 869 OFFCURVE",
"346 852 OFFCURVE",
"346 834 CURVE SMOOTH"
);
}
);
width = 335;
}
);
leftKerningGroup = B;
note = Idieresis;
rightKerningGroup = H;
unicode = 00CF;
},
{
glyphname = Igrave;
lastChange = "2021-09-03 08:48:20 +0000";
layers = (
{
layerId = "7DA69401-B8BB-4CEF-A33A-65E5ADA83450";
paths = (
{
closed = 1;
nodes = (
"141 0 LINE",
"129 0 LINE",
"129 700 LINE",
"141 700 LINE"
);
},
{
closed = 1;
nodes = (
"33 916 LINE SMOOTH",
"44 916 OFFCURVE",
"48 915 OFFCURVE",
"54 909 CURVE SMOOTH",
"178 769 LINE",
"172 769 LINE SMOOTH",
"169 769 OFFCURVE",
"166 770 OFFCURVE",
"163 772 CURVE SMOOTH",
"15 916 LINE"
);
}
);
width = 269;
},
{
layerId = "F36DCCA2-8A71-42CF-9609-F852DF368EC0";
paths = (
{
closed = 1;
nodes = (
"207 0 LINE",
"110 0 LINE",
"110 717 LINE",
"207 717 LINE"
);
},
{
closed = 1;
nodes = (
"71 926 LINE SMOOTH",
"93 926 OFFCURVE",
"102 925 OFFCURVE",
"113 910 CURVE SMOOTH",
"227 773 LINE",
"163 773 LINE SMOOTH",
"149 773 OFFCURVE",
"142 773 OFFCURVE",
"132 783 CURVE SMOOTH",
"-24 926 LINE"
);
}
);
width = 317;
},
{
layerId = "A9E408DD-A955-440F-BEB6-B96F0772F152";
paths = (
{
closed = 1;
nodes = (
"236 0 LINE",
"101 0 LINE",
"101 723 LINE",
"236 723 LINE"
);
},
{
closed = 1;
nodes = (
"88 931 LINE SMOOTH",
"102 931 OFFCURVE",
"111 931 OFFCURVE",
"119 928 CURVE SMOOTH",
"126 925 OFFCURVE",
"132 920 OFFCURVE",
"140 910 CURVE SMOOTH",
"249 775 LINE",
"159 775 LINE SMOOTH",
"140 775 OFFCURVE",
"132 775 OFFCURVE",
"118 787 CURVE SMOOTH",
"-42 931 LINE"
);
}
);
width = 336;
}
);
leftKerningGroup = B;
note = Igrave;
rightKerningGroup = H;
unicode = 00CC;
},
{
glyphname = J;
lastChange = "2021-09-03 08:48:19 +0000";
layers = (
{
layerId = "7DA69401-B8BB-4CEF-A33A-65E5ADA83450";
paths = (
{
closed = 1;
nodes = (
"337 226 LINE SMOOTH",
"337 148 OFFCURVE",
"317 90 OFFCURVE",
"282 51 CURVE SMOOTH",
"247 12 OFFCURVE",
"197 -8 OFFCURVE",
"138 -8 CURVE SMOOTH",
"111 -8 OFFCURVE",
"82 -3 OFFCURVE",
"52 7 CURVE",
"52 8 OFFCURVE",
"52 8 OFFCURVE",
"53 9 CURVE SMOOTH",
"53 9 OFFCURVE",
"53 10 OFFCURVE",
"53 10 CURVE",
"54 11 OFFCURVE",
"54 12 OFFCURVE",
"55 14 CURVE",
"55 15 OFFCURVE",
"57 15 OFFCURVE",
"59 15 CURVE SMOOTH",
"63 15 OFFCURVE",
"66 15 OFFCURVE",
"71 13 CURVE",
"79 11 OFFCURVE",
"92 7 OFFCURVE",
"108 4 CURVE SMOOTH",
"117 3 OFFCURVE",
"127 2 OFFCURVE",
"138 2 CURVE SMOOTH",
"195 2 OFFCURVE",
"242 21 OFFCURVE",
"275 58 CURVE SMOOTH",
"307 96 OFFCURVE",
"325 152 OFFCURVE",
"325 226 CURVE SMOOTH",
"325 700 LINE",
"337 700 LINE"
);
}
);
width = 454;
},
{
layerId = "F36DCCA2-8A71-42CF-9609-F852DF368EC0";
paths = (
{
closed = 1;
nodes = (
"364 248 LINE SMOOTH",
"364 168 OFFCURVE",
"344 104 OFFCURVE",
"306 60 CURVE SMOOTH",
"267 16 OFFCURVE",
"211 -8 OFFCURVE",
"138 -8 CURVE SMOOTH",
"105 -8 OFFCURVE",
"72 -4 OFFCURVE",
"37 6 CURVE",
"38 16 OFFCURVE",
"39 26 OFFCURVE",
"40 35 CURVE SMOOTH",
"41 45 OFFCURVE",
"42 54 OFFCURVE",
"42 63 CURVE",
"44 75 OFFCURVE",
"50 82 OFFCURVE",
"65 82 CURVE SMOOTH",
"71 82 OFFCURVE",
"79 81 OFFCURVE",
"89 78 CURVE SMOOTH",
"98 75 OFFCURVE",
"112 73 OFFCURVE",
"128 73 CURVE SMOOTH",
"172 73 OFFCURVE",
"207 86 OFFCURVE",
"231 114 CURVE SMOOTH",
"254 142 OFFCURVE",
"267 186 OFFCURVE",
"267 246 CURVE SMOOTH",
"267 717 LINE",
"364 717 LINE"
);
}
);
width = 461;
},
{
layerId = "A9E408DD-A955-440F-BEB6-B96F0772F152";
paths = (
{
closed = 1;
nodes = (
"374 257 LINE SMOOTH",
"374 176 OFFCURVE",
"354 110 OFFCURVE",
"315 64 CURVE SMOOTH",
"275 18 OFFCURVE",
"215 -8 OFFCURVE",
"137 -8 CURVE SMOOTH",
"101 -8 OFFCURVE",
"67 -4 OFFCURVE",
"29 6 CURVE",
"30 19 OFFCURVE",
"31 32 OFFCURVE",
"33 46 CURVE SMOOTH",
"34 59 OFFCURVE",
"35 72 OFFCURVE",
"36 86 CURVE",
"38 100 OFFCURVE",
"48 110 OFFCURVE",
"66 110 CURVE SMOOTH",
"71 110 OFFCURVE",
"79 109 OFFCURVE",
"88 107 CURVE SMOOTH",
"97 104 OFFCURVE",
"109 103 OFFCURVE",
"123 103 CURVE SMOOTH",
"161 103 OFFCURVE",
"190 114 OFFCURVE",
"210 138 CURVE SMOOTH",
"230 162 OFFCURVE",
"240 200 OFFCURVE",
"240 254 CURVE SMOOTH",
"240 723 LINE",
"374 723 LINE"
);
}
);
width = 461;
}
);
leftKerningGroup = J;
note = J;
rightKerningGroup = J;
unicode = 004A;
},
{
glyphname = K;
lastChange = "2021-09-03 08:48:21 +0000";
layers = (
{
layerId = "7DA69401-B8BB-4CEF-A33A-65E5ADA83450";
paths = (
{
closed = 1;
nodes = (
"140 362 LINE",
"187 362 LINE SMOOTH",
"200 362 OFFCURVE",
"209 363 OFFCURVE",
"216 365 CURVE",
"223 367 OFFCURVE",
"229 372 OFFCURVE",
"236 379 CURVE SMOOTH",
"562 692 LINE",
"570 698 OFFCURVE",
"573 700 OFFCURVE",
"580 700 CURVE SMOOTH",
"586 700 LINE",
"246 374 LINE",
"234 364 OFFCURVE",
"229 360 OFFCURVE",
"216 357 CURVE",
"228 355 OFFCURVE",
"236 351 OFFCURVE",
"245 341 CURVE SMOOTH",
"606 0 LINE",
"601 0 LINE SMOOTH",
"591 0 OFFCURVE",
"589 2 OFFCURVE",
"583 7 CURVE SMOOTH",
"239 332 LINE",
"232 339 OFFCURVE",
"227 345 OFFCURVE",
"220 348 CURVE SMOOTH",
"213 351 OFFCURVE",
"203 352 OFFCURVE",
"187 352 CURVE SMOOTH",
"140 352 LINE",
"140 0 LINE",
"128 0 LINE",
"128 700 LINE",
"140 700 LINE"
);
}
);
width = 661;
},
{
layerId = "F36DCCA2-8A71-42CF-9609-F852DF368EC0";
paths = (
{
closed = 1;
nodes = (
"205 403 LINE",
"242 403 LINE SMOOTH",
"267 403 OFFCURVE",
"281 408 OFFCURVE",
"293 424 CURVE",
"532 694 LINE",
"545 711 OFFCURVE",
"558 717 OFFCURVE",
"580 717 CURVE SMOOTH",
"662 717 LINE",
"389 408 LINE SMOOTH",
"375 392 OFFCURVE",
"364 382 OFFCURVE",
"350 376 CURVE",
"368 370 OFFCURVE",
"382 358 OFFCURVE",
"396 340 CURVE",
"681 0 LINE",
"597 0 LINE SMOOTH",
"584 0 OFFCURVE",
"575 2 OFFCURVE",
"569 6 CURVE",
"562 9 OFFCURVE",
"557 14 OFFCURVE",
"553 21 CURVE",
"306 305 LINE SMOOTH",
"292 322 OFFCURVE",
"281 328 OFFCURVE",
"249 328 CURVE SMOOTH",
"205 328 LINE",
"205 0 LINE",
"109 0 LINE",
"109 717 LINE",
"205 717 LINE"
);
}
);
width = 716;
},
{
layerId = "A9E408DD-A955-440F-BEB6-B96F0772F152";
paths = (
{
closed = 1;
nodes = (
"234 420 LINE",
"266 420 LINE SMOOTH",
"291 420 OFFCURVE",
"307 427 OFFCURVE",
"319 442 CURVE SMOOTH",
"518 695 LINE SMOOTH",
"535 716 OFFCURVE",
"551 723 OFFCURVE",
"579 723 CURVE SMOOTH",
"695 723 LINE",
"452 423 LINE SMOOTH",
"437 404 OFFCURVE",
"423 391 OFFCURVE",
"407 384 CURVE",
"429 376 OFFCURVE",
"446 362 OFFCURVE",
"462 339 CURVE",
"713 0 LINE",
"595 0 LINE SMOOTH",
"563 0 OFFCURVE",
"550 9 OFFCURVE",
"539 27 CURVE",
"335 294 LINE",
"322 312 OFFCURVE",
"308 318 OFFCURVE",
"277 318 CURVE SMOOTH",
"234 318 LINE",
"234 0 LINE",
"100 0 LINE",
"100 723 LINE",
"234 723 LINE"
);
}
);
width = 740;
}
);
leftKerningGroup = B;
note = K;
rightKerningGroup = K;
unicode = 004B;
},
{
glyphname = L;
lastChange = "2021-09-03 08:48:18 +0000";
layers = (
{
layerId = "7DA69401-B8BB-4CEF-A33A-65E5ADA83450";
paths = (
{
closed = 1;
nodes = (
"497 11 LINE",
"497 0 LINE",
"128 0 LINE",
"128 700 LINE",
"140 700 LINE",
"140 11 LINE"
);
}
);
width = 549;
},
{
layerId = "F36DCCA2-8A71-42CF-9609-F852DF368EC0";
paths = (
{
closed = 1;
nodes = (
"515 82 LINE",
"515 0 LINE",
"109 0 LINE",
"109 717 LINE",
"205 717 LINE",
"205 82 LINE"
);
}
);
width = 554;
},
{
layerId = "A9E408DD-A955-440F-BEB6-B96F0772F152";
paths = (
{
closed = 1;
nodes = (
"523 111 LINE",
"523 0 LINE",
"100 0 LINE",
"100 723 LINE",
"234 723 LINE",
"234 111 LINE"
);
}
);
width = 556;
}
);
leftKerningGroup = B;
note = L;
rightKerningGroup = L;
unicode = 004C;
},
{
glyphname = Lslash;
lastChange = "2021-09-03 08:48:18 +0000";
layers = (
{
layerId = "7DA69401-B8BB-4CEF-A33A-65E5ADA83450";
paths = (
{
closed = 1;
nodes = (
"526 11 LINE",
"526 0 LINE",
"157 0 LINE",
"157 308 LINE",
"56 254 LINE",
"56 259 LINE SMOOTH",
"56 265 OFFCURVE",
"56 266 OFFCURVE",
"62 269 CURVE",
"157 320 LINE",
"157 700 LINE",
"169 700 LINE",
"169 325 LINE",
"391 443 LINE",
"391 438 LINE SMOOTH",
"391 434 OFFCURVE",
"391 431 OFFCURVE",
"385 428 CURVE",
"169 313 LINE",
"169 11 LINE"
);
}
);
width = 578;
},
{
layerId = "F36DCCA2-8A71-42CF-9609-F852DF368EC0";
paths = (
{
closed = 1;
nodes = (
"542 82 LINE",
"542 0 LINE",
"135 0 LINE",
"135 277 LINE",
"42 229 LINE",
"42 296 LINE SMOOTH",
"42 306 OFFCURVE",
"46 312 OFFCURVE",
"54 316 CURVE",
"135 359 LINE",
"135 717 LINE",
"232 717 LINE",
"232 403 LINE",
"424 501 LINE",
"424 435 LINE SMOOTH",
"424 424 OFFCURVE",
"420 417 OFFCURVE",
"410 413 CURVE",
"232 320 LINE",
"232 82 LINE"
);
}
);
width = 581;
},
{
layerId = "A9E408DD-A955-440F-BEB6-B96F0772F152";
paths = (
{
closed = 1;
nodes = (
"548 111 LINE",
"548 0 LINE",
"125 0 LINE",
"125 264 LINE",
"35 219 LINE",
"35 312 LINE SMOOTH",
"35 323 OFFCURVE",
"40 331 OFFCURVE",
"50 336 CURVE",
"125 375 LINE",
"125 723 LINE",
"259 723 LINE",
"259 435 LINE",
"438 525 LINE",
"438 434 LINE SMOOTH",
"438 421 OFFCURVE",
"433 412 OFFCURVE",
"421 407 CURVE",
"259 323 LINE",
"259 111 LINE"
);
}
);
width = 581;
}
);
leftKerningGroup = B;
note = Lslash;
rightKerningGroup = L;
unicode = 0141;
},
{
glyphname = M;
lastChange = "2021-09-03 08:48:19 +0000";
layers = (
{
layerId = "7DA69401-B8BB-4CEF-A33A-65E5ADA83450";
paths = (
{
closed = 1;
nodes = (
"787 700 LINE",
"787 0 LINE",
"777 0 LINE",
"777 669 LINE SMOOTH",
"777 671 OFFCURVE",
"777 673 OFFCURVE",
"777 674 CURVE SMOOTH",
"777 676 OFFCURVE",
"777 677 OFFCURVE",
"778 679 CURVE",
"471 145 LINE",
"469 142 OFFCURVE",
"467 140 OFFCURVE",
"464 140 CURVE SMOOTH",
"461 140 LINE SMOOTH",
"459 140 OFFCURVE",
"457 142 OFFCURVE",
"454 145 CURVE",
"138 679 LINE",
"138 678 OFFCURVE",
"138 676 OFFCURVE",
"138 674 CURVE SMOOTH",
"138 673 OFFCURVE",
"138 671 OFFCURVE",
"138 669 CURVE SMOOTH",
"138 0 LINE",
"128 0 LINE",
"128 700 LINE",
"132 700 LINE SMOOTH",
"135 700 OFFCURVE",
"138 699 OFFCURVE",
"139 696 CURVE SMOOTH",
"457 161 LINE SMOOTH",
"460 157 OFFCURVE",
"461 154 OFFCURVE",
"463 150 CURVE",
"464 154 OFFCURVE",
"466 157 OFFCURVE",
"468 161 CURVE",
"776 696 LINE SMOOTH",
"778 699 OFFCURVE",
"780 700 OFFCURVE",
"783 700 CURVE SMOOTH"
);
}
);
width = 915;
},
{
layerId = "F36DCCA2-8A71-42CF-9609-F852DF368EC0";
paths = (
{
closed = 1;
nodes = (
"854 717 LINE",
"854 0 LINE",
"769 0 LINE",
"769 527 LINE SMOOTH",
"769 541 OFFCURVE",
"770 557 OFFCURVE",
"772 574 CURVE",
"526 126 LINE",
"518 111 OFFCURVE",
"506 103 OFFCURVE",
"491 103 CURVE SMOOTH",
"477 103 LINE SMOOTH",
"461 103 OFFCURVE",
"449 111 OFFCURVE",
"442 126 CURVE",
"191 576 LINE",
"193 558 OFFCURVE",
"194 542 OFFCURVE",
"194 527 CURVE SMOOTH",
"194 0 LINE",
"109 0 LINE",
"109 717 LINE",
"180 717 LINE SMOOTH",
"198 717 OFFCURVE",
"205 716 OFFCURVE",
"214 700 CURVE SMOOTH",
"461 259 LINE",
"469 243 OFFCURVE",
"477 226 OFFCURVE",
"484 208 CURVE",
"490 226 OFFCURVE",
"498 244 OFFCURVE",
"506 260 CURVE SMOOTH",
"749 700 LINE SMOOTH",
"757 716 OFFCURVE",
"765 717 OFFCURVE",
"783 717 CURVE SMOOTH"
);
}
);
width = 963;
},
{
layerId = "A9E408DD-A955-440F-BEB6-B96F0772F152";
paths = (
{
closed = 1;
nodes = (
"884 723 LINE",
"884 0 LINE",
"765 0 LINE",
"765 467 LINE SMOOTH",
"765 486 OFFCURVE",
"766 506 OFFCURVE",
"768 528 CURVE",
"550 117 LINE SMOOTH",
"539 98 OFFCURVE",
"524 88 OFFCURVE",
"502 88 CURVE SMOOTH",
"483 88 LINE SMOOTH",
"462 88 OFFCURVE",
"446 98 OFFCURVE",
"436 117 CURVE SMOOTH",
"215 529 LINE",
"217 507 OFFCURVE",
"218 485 OFFCURVE",
"218 467 CURVE SMOOTH",
"218 0 LINE",
"100 0 LINE",
"100 723 LINE",
"201 723 LINE SMOOTH",
"213 723 OFFCURVE",
"222 723 OFFCURVE",
"229 720 CURVE SMOOTH",
"236 718 OFFCURVE",
"241 712 OFFCURVE",
"246 702 CURVE SMOOTH",
"463 300 LINE SMOOTH",
"474 279 OFFCURVE",
"483 256 OFFCURVE",
"493 232 CURVE",
"502 257 OFFCURVE",
"512 280 OFFCURVE",
"523 301 CURVE SMOOTH",
"737 702 LINE SMOOTH",
"742 712 OFFCURVE",
"748 718 OFFCURVE",
"755 720 CURVE SMOOTH",
"762 723 OFFCURVE",
"770 723 OFFCURVE",
"782 723 CURVE SMOOTH"
);
}
);
width = 984;
}
);
leftKerningGroup = B;
note = M;
rightKerningGroup = H;
unicode = 004D;
},
{
glyphname = N;
lastChange = "2021-09-03 08:48:18 +0000";
layers = (
{
layerId = "7DA69401-B8BB-4CEF-A33A-65E5ADA83450";
paths = (
{
closed = 1;
nodes = (
"644 700 LINE",
"644 0 LINE",
"641 0 LINE SMOOTH",
"639 0 OFFCURVE",
"637 1 OFFCURVE",
"636 4 CURVE",
"138 682 LINE",
"138 679 OFFCURVE",
"138 677 OFFCURVE",
"138 675 CURVE SMOOTH",
"138 673 OFFCURVE",
"138 671 OFFCURVE",
"138 669 CURVE SMOOTH",
"138 0 LINE",
"128 0 LINE",
"128 700 LINE",
"132 700 LINE SMOOTH",
"135 700 OFFCURVE",
"138 699 OFFCURVE",
"139 696 CURVE",
"635 22 LINE",
"634 23 OFFCURVE",
"634 25 OFFCURVE",
"634 27 CURVE SMOOTH",
"634 29 OFFCURVE",
"634 31 OFFCURVE",
"634 32 CURVE SMOOTH",
"634 700 LINE"
);
}
);
width = 772;
},
{
layerId = "F36DCCA2-8A71-42CF-9609-F852DF368EC0";
paths = (
{
closed = 1;
nodes = (
"689 717 LINE",
"689 0 LINE",
"641 0 LINE SMOOTH",
"625 0 OFFCURVE",
"616 5 OFFCURVE",
"606 18 CURVE SMOOTH",
"192 558 LINE",
"193 541 OFFCURVE",
"194 525 OFFCURVE",
"194 511 CURVE SMOOTH",
"194 0 LINE",
"109 0 LINE",
"109 717 LINE",
"159 717 LINE SMOOTH",
"167 717 OFFCURVE",
"173 716 OFFCURVE",
"178 714 CURVE",
"182 711 OFFCURVE",
"187 707 OFFCURVE",
"192 700 CURVE",
"607 161 LINE",
"605 178 OFFCURVE",
"604 195 OFFCURVE",
"604 209 CURVE SMOOTH",
"604 717 LINE"
);
}
);
width = 798;
},
{
layerId = "A9E408DD-A955-440F-BEB6-B96F0772F152";
paths = (
{
closed = 1;
nodes = (
"709 723 LINE",
"709 0 LINE",
"640 0 LINE SMOOTH",
"619 0 OFFCURVE",
"606 7 OFFCURVE",
"593 23 CURVE SMOOTH",
"215 505 LINE",
"217 483 OFFCURVE",
"218 463 OFFCURVE",
"218 444 CURVE SMOOTH",
"218 0 LINE",
"100 0 LINE",
"100 723 LINE",
"170 723 LINE SMOOTH",
"182 723 OFFCURVE",
"190 723 OFFCURVE",
"196 720 CURVE SMOOTH",
"202 717 OFFCURVE",
"208 711 OFFCURVE",
"215 702 CURVE SMOOTH",
"594 218 LINE",
"592 241 OFFCURVE",
"591 264 OFFCURVE",
"591 284 CURVE SMOOTH",
"591 723 LINE"
);
}
);
width = 809;
}
);
leftKerningGroup = B;
note = N;
rightKerningGroup = H;
unicode = 004E;
},
{
glyphname = Ntilde;
lastChange = "2021-09-03 08:48:19 +0000";
layers = (
{
layerId = "7DA69401-B8BB-4CEF-A33A-65E5ADA83450";
paths = (
{
closed = 1;
nodes = (
"644 700 LINE",
"644 0 LINE",
"641 0 LINE SMOOTH",
"639 0 OFFCURVE",
"637 1 OFFCURVE",
"636 4 CURVE",
"138 682 LINE",
"138 679 OFFCURVE",
"138 677 OFFCURVE",
"138 675 CURVE SMOOTH",
"138 673 OFFCURVE",
"138 671 OFFCURVE",
"138 669 CURVE SMOOTH",
"138 0 LINE",
"128 0 LINE",
"128 700 LINE",
"132 700 LINE SMOOTH",
"135 700 OFFCURVE",
"138 699 OFFCURVE",
"139 696 CURVE",
"635 22 LINE",
"634 23 OFFCURVE",
"634 25 OFFCURVE",
"634 27 CURVE SMOOTH",
"634 29 OFFCURVE",
"634 31 OFFCURVE",
"634 32 CURVE SMOOTH",
"634 700 LINE"
);
},
{
closed = 1;
nodes = (
"498 787 OFFCURVE",
"518 812 OFFCURVE",
"520 844 CURVE",
"528 844 LINE",
"528 826 OFFCURVE",
"522 809 OFFCURVE",
"511 797 CURVE SMOOTH",
"501 785 OFFCURVE",
"485 777 OFFCURVE",
"465 777 CURVE SMOOTH",
"443 777 OFFCURVE",
"422 792 OFFCURVE",
"402 806 CURVE SMOOTH",
"382 821 OFFCURVE",
"362 835 OFFCURVE",
"343 835 CURVE SMOOTH",
"327 835 OFFCURVE",
"313 829 OFFCURVE",
"304 819 CURVE SMOOTH",
"294 808 OFFCURVE",
"288 794 OFFCURVE",
"288 778 CURVE",
"279 778 LINE",
"279 796 OFFCURVE",
"285 813 OFFCURVE",
"296 825 CURVE SMOOTH",
"307 837 OFFCURVE",
"323 845 OFFCURVE",
"343 845 CURVE SMOOTH",
"365 845 OFFCURVE",
"386 831 OFFCURVE",
"406 816 CURVE SMOOTH",
"426 802 OFFCURVE",
"445 787 OFFCURVE",
"465 787 CURVE SMOOTH"
);
}
);
width = 772;
},
{
layerId = "F36DCCA2-8A71-42CF-9609-F852DF368EC0";
paths = (
{
closed = 1;
nodes = (
"689 717 LINE",
"689 0 LINE",
"641 0 LINE SMOOTH",
"625 0 OFFCURVE",
"616 5 OFFCURVE",
"606 18 CURVE SMOOTH",
"192 558 LINE",
"193 541 OFFCURVE",
"194 525 OFFCURVE",
"194 511 CURVE SMOOTH",
"194 0 LINE",
"109 0 LINE",
"109 717 LINE",
"159 717 LINE SMOOTH",
"167 717 OFFCURVE",
"173 716 OFFCURVE",
"178 714 CURVE",
"182 711 OFFCURVE",
"187 707 OFFCURVE",
"192 700 CURVE",
"607 161 LINE",
"605 178 OFFCURVE",
"604 195 OFFCURVE",
"604 209 CURVE SMOOTH",
"604 717 LINE"
);
},
{
closed = 1;
nodes = (
"485 831 OFFCURVE",
"496 837 OFFCURVE",
"504 847 CURVE SMOOTH",
"512 857 OFFCURVE",
"516 869 OFFCURVE",
"516 881 CURVE",
"571 881 LINE",
"571 853 OFFCURVE",
"563 825 OFFCURVE",
"547 805 CURVE SMOOTH",
"531 785 OFFCURVE",
"509 772 OFFCURVE",
"479 772 CURVE SMOOTH",
"449 772 OFFCURVE",
"426 785 OFFCURVE",
"406 798 CURVE SMOOTH",
"386 811 OFFCURVE",
"368 824 OFFCURVE",
"350 824 CURVE SMOOTH",
"334 824 OFFCURVE",
"323 818 OFFCURVE",
"316 808 CURVE SMOOTH",
"308 798 OFFCURVE",
"304 786 OFFCURVE",
"304 774 CURVE",
"248 774 LINE",
"248 802 OFFCURVE",
"257 830 OFFCURVE",
"272 851 CURVE SMOOTH",
"288 871 OFFCURVE",
"310 884 OFFCURVE",
"340 884 CURVE SMOOTH",
"370 884 OFFCURVE",
"393 871 OFFCURVE",
"413 858 CURVE SMOOTH",
"433 845 OFFCURVE",
"451 831 OFFCURVE",
"469 831 CURVE SMOOTH"
);
}
);
width = 798;
},
{
layerId = "A9E408DD-A955-440F-BEB6-B96F0772F152";
paths = (
{
closed = 1;
nodes = (
"709 723 LINE",
"709 0 LINE",
"640 0 LINE SMOOTH",
"619 0 OFFCURVE",
"606 7 OFFCURVE",
"593 23 CURVE SMOOTH",
"215 505 LINE",
"217 483 OFFCURVE",
"218 463 OFFCURVE",
"218 444 CURVE SMOOTH",
"218 0 LINE",
"100 0 LINE",
"100 723 LINE",
"170 723 LINE SMOOTH",
"182 723 OFFCURVE",
"190 723 OFFCURVE",
"196 720 CURVE SMOOTH",
"202 717 OFFCURVE",
"208 711 OFFCURVE",
"215 702 CURVE SMOOTH",
"594 218 LINE",
"592 241 OFFCURVE",
"591 264 OFFCURVE",
"591 284 CURVE SMOOTH",
"591 723 LINE"
);
},
{
closed = 1;
nodes = (
"486 850 OFFCURVE",
"497 857 OFFCURVE",
"504 866 CURVE SMOOTH",
"511 875 OFFCURVE",
"514 886 OFFCURVE",
"514 897 CURVE",
"590 897 LINE",
"590 863 OFFCURVE",
"581 832 OFFCURVE",
"563 809 CURVE SMOOTH",
"545 785 OFFCURVE",
"520 770 OFFCURVE",
"486 770 CURVE SMOOTH",
"452 770 OFFCURVE",
"428 783 OFFCURVE",
"408 795 CURVE SMOOTH",
"397 801 OFFCURVE",
"388 807 OFFCURVE",
"380 812 CURVE SMOOTH",
"371 818 OFFCURVE",
"362 820 OFFCURVE",
"353 820 CURVE SMOOTH",
"338 820 OFFCURVE",
"327 814 OFFCURVE",
"321 804 CURVE SMOOTH",
"314 795 OFFCURVE",
"311 783 OFFCURVE",
"311 772 CURVE",
"234 772 LINE",
"234 805 OFFCURVE",
"244 837 OFFCURVE",
"262 861 CURVE SMOOTH",
"279 885 OFFCURVE",
"305 900 OFFCURVE",
"338 900 CURVE SMOOTH",
"372 900 OFFCURVE",
"397 887 OFFCURVE",
"417 875 CURVE SMOOTH",
"437 863 OFFCURVE",
"453 850 OFFCURVE",
"471 850 CURVE SMOOTH"
);
}
);
width = 809;
}
);
leftKerningGroup = B;
note = Ntilde;
rightKerningGroup = H;
unicode = 00D1;
},
{
glyphname = O;
lastChange = "2021-09-03 08:48:18 +0000";
layers = (
{
layerId = "7DA69401-B8BB-4CEF-A33A-65E5ADA83450";
paths = (
{
closed = 1;
nodes = (
"733 240 OFFCURVE",
"700 151 OFFCURVE",
"643 89 CURVE SMOOTH",
"586 27 OFFCURVE",
"505 -7 OFFCURVE",
"409 -7 CURVE SMOOTH",
"313 -7 OFFCURVE",
"233 27 OFFCURVE",
"176 89 CURVE SMOOTH",
"119 151 OFFCURVE",
"86 240 OFFCURVE",
"86 350 CURVE SMOOTH",
"86 460 OFFCURVE",
"119 550 OFFCURVE",
"176 612 CURVE SMOOTH",
"233 674 OFFCURVE",
"313 708 OFFCURVE",
"409 708 CURVE SMOOTH",
"505 708 OFFCURVE",
"586 674 OFFCURVE",
"643 612 CURVE SMOOTH",
"700 550 OFFCURVE",
"733 461 OFFCURVE",
"733 350 CURVE SMOOTH"
);
},
{
closed = 1;
nodes = (
"720 459 OFFCURVE",
"688 546 OFFCURVE",
"633 606 CURVE SMOOTH",
"579 666 OFFCURVE",
"501 698 OFFCURVE",
"409 698 CURVE SMOOTH",
"318 698 OFFCURVE",
"241 666 OFFCURVE",
"186 606 CURVE SMOOTH",
"131 546 OFFCURVE",
"98 459 OFFCURVE",
"98 350 CURVE SMOOTH",
"98 242 OFFCURVE",
"131 155 OFFCURVE",
"186 96 CURVE SMOOTH",
"241 36 OFFCURVE",
"318 3 OFFCURVE",
"409 3 CURVE SMOOTH",
"501 3 OFFCURVE",
"579 36 OFFCURVE",
"633 96 CURVE SMOOTH",
"688 155 OFFCURVE",
"720 242 OFFCURVE",
"720 350 CURVE SMOOTH"
);
}
);
width = 819;
},
{
layerId = "F36DCCA2-8A71-42CF-9609-F852DF368EC0";
paths = (
{
closed = 1;
nodes = (
"770 251 OFFCURVE",
"734 159 OFFCURVE",
"672 95 CURVE SMOOTH",
"610 30 OFFCURVE",
"522 -8 OFFCURVE",
"416 -8 CURVE SMOOTH",
"311 -8 OFFCURVE",
"223 30 OFFCURVE",
"161 95 CURVE SMOOTH",
"99 159 OFFCURVE",
"63 251 OFFCURVE",
"63 358 CURVE SMOOTH",
"63 466 OFFCURVE",
"99 557 OFFCURVE",
"161 622 CURVE SMOOTH",
"223 687 OFFCURVE",
"311 725 OFFCURVE",
"416 725 CURVE SMOOTH",
"522 725 OFFCURVE",
"610 687 OFFCURVE",
"672 622 CURVE SMOOTH",
"734 557 OFFCURVE",
"770 466 OFFCURVE",
"770 358 CURVE SMOOTH"
);
},
{
closed = 1;
nodes = (
"670 446 OFFCURVE",
"645 517 OFFCURVE",
"601 566 CURVE SMOOTH",
"557 614 OFFCURVE",
"494 641 OFFCURVE",
"416 641 CURVE SMOOTH",
"340 641 OFFCURVE",
"276 614 OFFCURVE",
"232 566 CURVE SMOOTH",
"187 517 OFFCURVE",
"162 446 OFFCURVE",
"162 358 CURVE SMOOTH",
"162 270 OFFCURVE",
"187 200 OFFCURVE",
"232 152 CURVE SMOOTH",
"276 103 OFFCURVE",
"340 77 OFFCURVE",
"416 77 CURVE SMOOTH",
"494 77 OFFCURVE",
"557 103 OFFCURVE",
"601 152 CURVE SMOOTH",
"645 200 OFFCURVE",
"670 270 OFFCURVE",
"670 358 CURVE SMOOTH"
);
}
);
width = 833;
},
{
layerId = "A9E408DD-A955-440F-BEB6-B96F0772F152";
paths = (
{
closed = 1;
nodes = (
"785 256 OFFCURVE",
"749 163 OFFCURVE",
"685 97 CURVE SMOOTH",
"621 31 OFFCURVE",
"529 -8 OFFCURVE",
"419 -8 CURVE SMOOTH",
"310 -8 OFFCURVE",
"218 31 OFFCURVE",
"154 97 CURVE SMOOTH",
"90 163 OFFCURVE",
"53 256 OFFCURVE",
"53 362 CURVE SMOOTH",
"53 468 OFFCURVE",
"90 560 OFFCURVE",
"154 626 CURVE SMOOTH",
"218 692 OFFCURVE",
"310 731 OFFCURVE",
"419 731 CURVE SMOOTH",
"493 731 OFFCURVE",
"558 714 OFFCURVE",
"612 683 CURVE SMOOTH",
"666 652 OFFCURVE",
"709 606 OFFCURVE",
"739 552 CURVE SMOOTH",
"769 497 OFFCURVE",
"785 432 OFFCURVE",
"785 362 CURVE SMOOTH"
);
},
{
closed = 1;
nodes = (
"648 441 OFFCURVE",
"626 505 OFFCURVE",
"586 549 CURVE SMOOTH",
"547 593 OFFCURVE",
"490 617 OFFCURVE",
"419 617 CURVE SMOOTH",
"349 617 OFFCURVE",
"292 593 OFFCURVE",
"252 549 CURVE SMOOTH",
"212 505 OFFCURVE",
"190 441 OFFCURVE",
"190 362 CURVE SMOOTH",
"190 282 OFFCURVE",
"212 219 OFFCURVE",
"252 175 CURVE SMOOTH",
"292 131 OFFCURVE",
"349 107 OFFCURVE",
"419 107 CURVE SMOOTH",
"490 107 OFFCURVE",
"547 131 OFFCURVE",
"586 175 CURVE SMOOTH",
"626 219 OFFCURVE",
"648 282 OFFCURVE",
"648 362 CURVE SMOOTH"
);
}
);
width = 839;
}
);
leftKerningGroup = C;
note = O;
rightKerningGroup = O;
unicode = 004F;
},
{
glyphname = Oacute;
lastChange = "2021-09-03 08:48:19 +0000";
layers = (
{
layerId = "7DA69401-B8BB-4CEF-A33A-65E5ADA83450";
paths = (
{
closed = 1;
nodes = (
"733 240 OFFCURVE",
"700 151 OFFCURVE",
"643 89 CURVE SMOOTH",
"586 27 OFFCURVE",
"505 -7 OFFCURVE",
"409 -7 CURVE SMOOTH",
"313 -7 OFFCURVE",
"233 27 OFFCURVE",
"176 89 CURVE SMOOTH",
"119 151 OFFCURVE",
"86 240 OFFCURVE",
"86 350 CURVE SMOOTH",
"86 460 OFFCURVE",
"119 550 OFFCURVE",
"176 612 CURVE SMOOTH",
"233 674 OFFCURVE",
"313 708 OFFCURVE",
"409 708 CURVE SMOOTH",
"505 708 OFFCURVE",
"586 674 OFFCURVE",
"643 612 CURVE SMOOTH",
"700 550 OFFCURVE",
"733 461 OFFCURVE",
"733 350 CURVE SMOOTH"
);
},
{
closed = 1;
nodes = (
"720 459 OFFCURVE",
"688 546 OFFCURVE",
"633 606 CURVE SMOOTH",
"579 666 OFFCURVE",
"501 698 OFFCURVE",
"409 698 CURVE SMOOTH",
"318 698 OFFCURVE",
"241 666 OFFCURVE",
"186 606 CURVE SMOOTH",
"131 546 OFFCURVE",
"98 459 OFFCURVE",
"98 350 CURVE SMOOTH",
"98 242 OFFCURVE",
"131 155 OFFCURVE",
"186 96 CURVE SMOOTH",
"241 36 OFFCURVE",
"318 3 OFFCURVE",
"409 3 CURVE SMOOTH",
"501 3 OFFCURVE",
"579 36 OFFCURVE",
"633 96 CURVE SMOOTH",
"688 155 OFFCURVE",
"720 242 OFFCURVE",
"720 350 CURVE SMOOTH"
);
},
{
closed = 1;
nodes = (
"551 916 LINE",
"387 772 LINE",
"384 770 OFFCURVE",
"381 769 OFFCURVE",
"378 769 CURVE SMOOTH",
"372 769 LINE",
"512 909 LINE SMOOTH",
"518 915 OFFCURVE",
"522 916 OFFCURVE",
"533 916 CURVE SMOOTH"
);
}
);
width = 819;
},
{
layerId = "F36DCCA2-8A71-42CF-9609-F852DF368EC0";
paths = (
{
closed = 1;
nodes = (
"770 251 OFFCURVE",
"734 159 OFFCURVE",
"672 95 CURVE SMOOTH",
"610 30 OFFCURVE",
"522 -8 OFFCURVE",
"416 -8 CURVE SMOOTH",
"311 -8 OFFCURVE",
"223 30 OFFCURVE",
"161 95 CURVE SMOOTH",
"99 159 OFFCURVE",
"63 251 OFFCURVE",
"63 358 CURVE SMOOTH",
"63 466 OFFCURVE",
"99 557 OFFCURVE",
"161 622 CURVE SMOOTH",
"223 687 OFFCURVE",
"311 725 OFFCURVE",
"416 725 CURVE SMOOTH",
"522 725 OFFCURVE",
"610 687 OFFCURVE",
"672 622 CURVE SMOOTH",
"734 557 OFFCURVE",
"770 466 OFFCURVE",
"770 358 CURVE SMOOTH"
);
},
{
closed = 1;
nodes = (
"670 446 OFFCURVE",
"645 517 OFFCURVE",
"601 566 CURVE SMOOTH",
"557 614 OFFCURVE",
"494 641 OFFCURVE",
"416 641 CURVE SMOOTH",
"340 641 OFFCURVE",
"276 614 OFFCURVE",
"232 566 CURVE SMOOTH",
"187 517 OFFCURVE",
"162 446 OFFCURVE",
"162 358 CURVE SMOOTH",
"162 270 OFFCURVE",
"187 200 OFFCURVE",
"232 152 CURVE SMOOTH",
"276 103 OFFCURVE",
"340 77 OFFCURVE",
"416 77 CURVE SMOOTH",
"494 77 OFFCURVE",
"557 103 OFFCURVE",
"601 152 CURVE SMOOTH",
"645 200 OFFCURVE",
"670 270 OFFCURVE",
"670 358 CURVE SMOOTH"
);
},
{
closed = 1;
nodes = (
"606 926 LINE",
"443 783 LINE",
"433 774 OFFCURVE",
"425 773 OFFCURVE",
"412 773 CURVE SMOOTH",
"348 773 LINE",
"463 910 LINE SMOOTH",
"475 925 OFFCURVE",
"484 926 OFFCURVE",
"506 926 CURVE SMOOTH"
);
}
);
width = 833;
},
{
layerId = "A9E408DD-A955-440F-BEB6-B96F0772F152";
paths = (
{
closed = 1;
nodes = (
"785 256 OFFCURVE",
"749 163 OFFCURVE",
"685 97 CURVE SMOOTH",
"621 31 OFFCURVE",
"529 -8 OFFCURVE",
"419 -8 CURVE SMOOTH",
"310 -8 OFFCURVE",
"218 31 OFFCURVE",
"154 97 CURVE SMOOTH",
"90 163 OFFCURVE",
"53 256 OFFCURVE",
"53 362 CURVE SMOOTH",
"53 468 OFFCURVE",
"90 560 OFFCURVE",
"154 626 CURVE SMOOTH",
"218 692 OFFCURVE",
"310 731 OFFCURVE",
"419 731 CURVE SMOOTH",
"493 731 OFFCURVE",
"558 714 OFFCURVE",
"612 683 CURVE SMOOTH",
"666 652 OFFCURVE",
"709 606 OFFCURVE",
"739 552 CURVE SMOOTH",
"769 497 OFFCURVE",
"785 432 OFFCURVE",
"785 362 CURVE SMOOTH"
);
},
{
closed = 1;
nodes = (
"648 441 OFFCURVE",
"626 505 OFFCURVE",
"586 549 CURVE SMOOTH",
"547 593 OFFCURVE",
"490 617 OFFCURVE",
"419 617 CURVE SMOOTH",
"349 617 OFFCURVE",
"292 593 OFFCURVE",
"252 549 CURVE SMOOTH",
"212 505 OFFCURVE",
"190 441 OFFCURVE",
"190 362 CURVE SMOOTH",
"190 282 OFFCURVE",
"212 219 OFFCURVE",
"252 175 CURVE SMOOTH",
"292 131 OFFCURVE",
"349 107 OFFCURVE",
"419 107 CURVE SMOOTH",
"490 107 OFFCURVE",
"547 131 OFFCURVE",
"586 175 CURVE SMOOTH",
"626 219 OFFCURVE",
"648 282 OFFCURVE",
"648 362 CURVE SMOOTH"
);
},
{
closed = 1;
nodes = (
"630 931 LINE",
"468 788 LINE SMOOTH",
"455 776 OFFCURVE",
"445 775 OFFCURVE",
"426 775 CURVE SMOOTH",
"337 775 LINE",
"441 910 LINE",
"448 920 OFFCURVE",
"454 925 OFFCURVE",
"462 928 CURVE SMOOTH",
"470 930 OFFCURVE",
"479 931 OFFCURVE",
"493 931 CURVE SMOOTH"
);
}
);
width = 839;
}
);
leftKerningGroup = C;
note = Oacute;
rightKerningGroup = O;
unicode = 00D3;
},
{
glyphname = Ocircumflex;
lastChange = "2021-09-03 08:48:21 +0000";
layers = (
{
layerId = "7DA69401-B8BB-4CEF-A33A-65E5ADA83450";
paths = (
{
closed = 1;
nodes = (
"733 240 OFFCURVE",
"700 151 OFFCURVE",
"643 89 CURVE SMOOTH",
"586 27 OFFCURVE",
"505 -7 OFFCURVE",
"409 -7 CURVE SMOOTH",
"313 -7 OFFCURVE",
"233 27 OFFCURVE",
"176 89 CURVE SMOOTH",
"119 151 OFFCURVE",
"86 240 OFFCURVE",
"86 350 CURVE SMOOTH",
"86 460 OFFCURVE",
"119 550 OFFCURVE",
"176 612 CURVE SMOOTH",
"233 674 OFFCURVE",
"313 708 OFFCURVE",
"409 708 CURVE SMOOTH",
"505 708 OFFCURVE",
"586 674 OFFCURVE",
"643 612 CURVE SMOOTH",
"700 550 OFFCURVE",
"733 461 OFFCURVE",
"733 350 CURVE SMOOTH"
);
},
{
closed = 1;
nodes = (
"720 459 OFFCURVE",
"688 546 OFFCURVE",
"633 606 CURVE SMOOTH",
"579 666 OFFCURVE",
"501 698 OFFCURVE",
"409 698 CURVE SMOOTH",
"318 698 OFFCURVE",
"241 666 OFFCURVE",
"186 606 CURVE SMOOTH",
"131 546 OFFCURVE",
"98 459 OFFCURVE",
"98 350 CURVE SMOOTH",
"98 242 OFFCURVE",
"131 155 OFFCURVE",
"186 96 CURVE SMOOTH",
"241 36 OFFCURVE",
"318 3 OFFCURVE",
"409 3 CURVE SMOOTH",
"501 3 OFFCURVE",
"579 36 OFFCURVE",
"633 96 CURVE SMOOTH",
"688 155 OFFCURVE",
"720 242 OFFCURVE",
"720 350 CURVE SMOOTH"
);
},
{
closed = 1;
nodes = (
"530 769 LINE",
"520 769 LINE SMOOTH",
"516 769 OFFCURVE",
"513 770 OFFCURVE",
"510 773 CURVE",
"412 885 LINE",
"411 886 OFFCURVE",
"410 887 OFFCURVE",
"410 888 CURVE",
"409 887 OFFCURVE",
"408 886 OFFCURVE",
"408 885 CURVE",
"310 773 LINE",
"306 770 OFFCURVE",
"303 769 OFFCURVE",
"300 769 CURVE SMOOTH",
"290 769 LINE",
"406 901 LINE",
"414 901 LINE"
);
}
);
width = 819;
},
{
layerId = "F36DCCA2-8A71-42CF-9609-F852DF368EC0";
paths = (
{
closed = 1;
nodes = (
"770 251 OFFCURVE",
"734 159 OFFCURVE",
"672 95 CURVE SMOOTH",
"610 30 OFFCURVE",
"522 -8 OFFCURVE",
"416 -8 CURVE SMOOTH",
"311 -8 OFFCURVE",
"223 30 OFFCURVE",
"161 95 CURVE SMOOTH",
"99 159 OFFCURVE",
"63 251 OFFCURVE",
"63 358 CURVE SMOOTH",
"63 466 OFFCURVE",
"99 557 OFFCURVE",
"161 622 CURVE SMOOTH",
"223 687 OFFCURVE",
"311 725 OFFCURVE",
"416 725 CURVE SMOOTH",
"522 725 OFFCURVE",
"610 687 OFFCURVE",
"672 622 CURVE SMOOTH",
"734 557 OFFCURVE",
"770 466 OFFCURVE",
"770 358 CURVE SMOOTH"
);
},
{
closed = 1;
nodes = (
"670 446 OFFCURVE",
"645 517 OFFCURVE",
"601 566 CURVE SMOOTH",
"557 614 OFFCURVE",
"494 641 OFFCURVE",
"416 641 CURVE SMOOTH",
"340 641 OFFCURVE",
"276 614 OFFCURVE",
"232 566 CURVE SMOOTH",
"187 517 OFFCURVE",
"162 446 OFFCURVE",
"162 358 CURVE SMOOTH",
"162 270 OFFCURVE",
"187 200 OFFCURVE",
"232 152 CURVE SMOOTH",
"276 103 OFFCURVE",
"340 77 OFFCURVE",
"416 77 CURVE SMOOTH",
"494 77 OFFCURVE",
"557 103 OFFCURVE",
"601 152 CURVE SMOOTH",
"645 200 OFFCURVE",
"670 270 OFFCURVE",
"670 358 CURVE SMOOTH"
);
},
{
closed = 1;
nodes = (
"578 773 LINE",
"513 773 LINE SMOOTH",
"505 773 OFFCURVE",
"493 774 OFFCURVE",
"482 788 CURVE SMOOTH",
"423 858 LINE",
"417 867 LINE",
"411 858 LINE",
"353 788 LINE SMOOTH",
"341 774 OFFCURVE",
"330 773 OFFCURVE",
"322 773 CURVE SMOOTH",
"259 773 LINE",
"379 909 LINE",
"459 909 LINE"
);
}
);
width = 833;
},
{
layerId = "A9E408DD-A955-440F-BEB6-B96F0772F152";
paths = (
{
closed = 1;
nodes = (
"785 256 OFFCURVE",
"749 163 OFFCURVE",
"685 97 CURVE SMOOTH",
"621 31 OFFCURVE",
"529 -8 OFFCURVE",
"419 -8 CURVE SMOOTH",
"310 -8 OFFCURVE",
"218 31 OFFCURVE",
"154 97 CURVE SMOOTH",
"90 163 OFFCURVE",
"53 256 OFFCURVE",
"53 362 CURVE SMOOTH",
"53 468 OFFCURVE",
"90 560 OFFCURVE",
"154 626 CURVE SMOOTH",
"218 692 OFFCURVE",
"310 731 OFFCURVE",
"419 731 CURVE SMOOTH",
"493 731 OFFCURVE",
"558 714 OFFCURVE",
"612 683 CURVE SMOOTH",
"666 652 OFFCURVE",
"709 606 OFFCURVE",
"739 552 CURVE SMOOTH",
"769 497 OFFCURVE",
"785 432 OFFCURVE",
"785 362 CURVE SMOOTH"
);
},
{
closed = 1;
nodes = (
"648 441 OFFCURVE",
"626 505 OFFCURVE",
"586 549 CURVE SMOOTH",
"547 593 OFFCURVE",
"490 617 OFFCURVE",
"419 617 CURVE SMOOTH",
"349 617 OFFCURVE",
"292 593 OFFCURVE",
"252 549 CURVE SMOOTH",
"212 505 OFFCURVE",
"190 441 OFFCURVE",
"190 362 CURVE SMOOTH",
"190 282 OFFCURVE",
"212 219 OFFCURVE",
"252 175 CURVE SMOOTH",
"292 131 OFFCURVE",
"349 107 OFFCURVE",
"419 107 CURVE SMOOTH",
"490 107 OFFCURVE",
"547 131 OFFCURVE",
"586 175 CURVE SMOOTH",
"626 219 OFFCURVE",
"648 282 OFFCURVE",
"648 362 CURVE SMOOTH"
);
},
{
closed = 1;
nodes = (
"599 775 LINE",
"509 775 LINE SMOOTH",
"499 775 OFFCURVE",
"484 776 OFFCURVE",
"469 794 CURVE",
"428 847 LINE SMOOTH",
"424 851 OFFCURVE",
"422 855 OFFCURVE",
"420 858 CURVE",
"419 855 OFFCURVE",
"416 851 OFFCURVE",
"413 847 CURVE SMOOTH",
"372 794 LINE",
"356 776 OFFCURVE",
"341 775 OFFCURVE",
"331 775 CURVE SMOOTH",
"246 775 LINE",
"366 912 LINE",
"478 912 LINE"
);
}
);
width = 839;
}
);
leftKerningGroup = C;
note = Ocircumflex;
rightKerningGroup = O;
unicode = 00D4;
},
{
glyphname = Odieresis;
lastChange = "2021-09-03 08:48:20 +0000";
layers = (
{
layerId = "7DA69401-B8BB-4CEF-A33A-65E5ADA83450";
paths = (
{
closed = 1;
nodes = (
"733 240 OFFCURVE",
"700 151 OFFCURVE",
"643 89 CURVE SMOOTH",
"586 27 OFFCURVE",
"505 -7 OFFCURVE",
"409 -7 CURVE SMOOTH",
"313 -7 OFFCURVE",
"233 27 OFFCURVE",
"176 89 CURVE SMOOTH",
"119 151 OFFCURVE",
"86 240 OFFCURVE",
"86 350 CURVE SMOOTH",
"86 460 OFFCURVE",
"119 550 OFFCURVE",
"176 612 CURVE SMOOTH",
"233 674 OFFCURVE",
"313 708 OFFCURVE",
"409 708 CURVE SMOOTH",
"505 708 OFFCURVE",
"586 674 OFFCURVE",
"643 612 CURVE SMOOTH",
"700 550 OFFCURVE",
"733 461 OFFCURVE",
"733 350 CURVE SMOOTH"
);
},
{
closed = 1;
nodes = (
"720 459 OFFCURVE",
"688 546 OFFCURVE",
"633 606 CURVE SMOOTH",
"579 666 OFFCURVE",
"501 698 OFFCURVE",
"409 698 CURVE SMOOTH",
"318 698 OFFCURVE",
"241 666 OFFCURVE",
"186 606 CURVE SMOOTH",
"131 546 OFFCURVE",
"98 459 OFFCURVE",
"98 350 CURVE SMOOTH",
"98 242 OFFCURVE",
"131 155 OFFCURVE",
"186 96 CURVE SMOOTH",
"241 36 OFFCURVE",
"318 3 OFFCURVE",
"409 3 CURVE SMOOTH",
"501 3 OFFCURVE",
"579 36 OFFCURVE",
"633 96 CURVE SMOOTH",
"688 155 OFFCURVE",
"720 242 OFFCURVE",
"720 350 CURVE SMOOTH"
);
},
{
closed = 1;
nodes = (
"346 818 OFFCURVE",
"332 805 OFFCURVE",
"318 805 CURVE SMOOTH",
"302 805 OFFCURVE",
"290 818 OFFCURVE",
"290 832 CURVE SMOOTH",
"290 848 OFFCURVE",
"302 860 OFFCURVE",
"318 860 CURVE SMOOTH",
"332 860 OFFCURVE",
"346 848 OFFCURVE",
"346 832 CURVE SMOOTH"
);
},
{
closed = 1;
nodes = (
"530 818 OFFCURVE",
"516 805 OFFCURVE",
"502 805 CURVE SMOOTH",
"486 805 OFFCURVE",
"474 818 OFFCURVE",
"474 832 CURVE SMOOTH",
"474 848 OFFCURVE",
"486 860 OFFCURVE",
"502 860 CURVE SMOOTH",
"516 860 OFFCURVE",
"530 848 OFFCURVE",
"530 832 CURVE SMOOTH"
);
}
);
width = 819;
},
{
layerId = "F36DCCA2-8A71-42CF-9609-F852DF368EC0";
paths = (
{
closed = 1;
nodes = (
"770 251 OFFCURVE",
"734 159 OFFCURVE",
"672 95 CURVE SMOOTH",
"610 30 OFFCURVE",
"522 -8 OFFCURVE",
"416 -8 CURVE SMOOTH",
"311 -8 OFFCURVE",
"223 30 OFFCURVE",
"161 95 CURVE SMOOTH",
"99 159 OFFCURVE",
"63 251 OFFCURVE",
"63 358 CURVE SMOOTH",
"63 466 OFFCURVE",
"99 557 OFFCURVE",
"161 622 CURVE SMOOTH",
"223 687 OFFCURVE",
"311 725 OFFCURVE",
"416 725 CURVE SMOOTH",
"522 725 OFFCURVE",
"610 687 OFFCURVE",
"672 622 CURVE SMOOTH",
"734 557 OFFCURVE",
"770 466 OFFCURVE",
"770 358 CURVE SMOOTH"
);
},
{
closed = 1;
nodes = (
"670 446 OFFCURVE",
"645 517 OFFCURVE",
"601 566 CURVE SMOOTH",
"557 614 OFFCURVE",
"494 641 OFFCURVE",
"416 641 CURVE SMOOTH",
"340 641 OFFCURVE",
"276 614 OFFCURVE",
"232 566 CURVE SMOOTH",
"187 517 OFFCURVE",
"162 446 OFFCURVE",
"162 358 CURVE SMOOTH",
"162 270 OFFCURVE",
"187 200 OFFCURVE",
"232 152 CURVE SMOOTH",
"276 103 OFFCURVE",
"340 77 OFFCURVE",
"416 77 CURVE SMOOTH",
"494 77 OFFCURVE",
"557 103 OFFCURVE",
"601 152 CURVE SMOOTH",
"645 200 OFFCURVE",
"670 270 OFFCURVE",
"670 358 CURVE SMOOTH"
);
},
{
closed = 1;
nodes = (
"368 819 OFFCURVE",
"361 805 OFFCURVE",
"351 795 CURVE SMOOTH",
"341 785 OFFCURVE",
"326 779 OFFCURVE",
"312 779 CURVE SMOOTH",
"298 779 OFFCURVE",
"284 785 OFFCURVE",
"274 795 CURVE SMOOTH",
"264 805 OFFCURVE",
"258 819 OFFCURVE",
"258 833 CURVE SMOOTH",
"258 849 OFFCURVE",
"264 863 OFFCURVE",
"274 873 CURVE SMOOTH",
"284 883 OFFCURVE",
"298 889 OFFCURVE",
"312 889 CURVE SMOOTH",
"326 889 OFFCURVE",
"341 883 OFFCURVE",
"351 873 CURVE SMOOTH",
"361 863 OFFCURVE",
"368 849 OFFCURVE",
"368 833 CURVE SMOOTH"
);
},
{
closed = 1;
nodes = (
"577 819 OFFCURVE",
"570 805 OFFCURVE",
"560 795 CURVE SMOOTH",
"550 785 OFFCURVE",
"536 779 OFFCURVE",
"522 779 CURVE SMOOTH",
"506 779 OFFCURVE",
"493 785 OFFCURVE",
"483 795 CURVE SMOOTH",
"473 805 OFFCURVE",
"467 819 OFFCURVE",
"467 833 CURVE SMOOTH",
"467 849 OFFCURVE",
"473 863 OFFCURVE",
"483 873 CURVE SMOOTH",
"493 883 OFFCURVE",
"506 889 OFFCURVE",
"522 889 CURVE SMOOTH",
"536 889 OFFCURVE",
"550 883 OFFCURVE",
"560 873 CURVE SMOOTH",
"570 863 OFFCURVE",
"577 849 OFFCURVE",
"577 833 CURVE SMOOTH"
);
}
);
width = 833;
},
{
layerId = "A9E408DD-A955-440F-BEB6-B96F0772F152";
paths = (
{
closed = 1;
nodes = (
"785 256 OFFCURVE",
"749 163 OFFCURVE",
"685 97 CURVE SMOOTH",
"621 31 OFFCURVE",
"529 -8 OFFCURVE",
"419 -8 CURVE SMOOTH",
"310 -8 OFFCURVE",
"218 31 OFFCURVE",
"154 97 CURVE SMOOTH",
"90 163 OFFCURVE",
"53 256 OFFCURVE",
"53 362 CURVE SMOOTH",
"53 468 OFFCURVE",
"90 560 OFFCURVE",
"154 626 CURVE SMOOTH",
"218 692 OFFCURVE",
"310 731 OFFCURVE",
"419 731 CURVE SMOOTH",
"493 731 OFFCURVE",
"558 714 OFFCURVE",
"612 683 CURVE SMOOTH",
"666 652 OFFCURVE",
"709 606 OFFCURVE",
"739 552 CURVE SMOOTH",
"769 497 OFFCURVE",
"785 432 OFFCURVE",
"785 362 CURVE SMOOTH"
);
},
{
closed = 1;
nodes = (
"648 441 OFFCURVE",
"626 505 OFFCURVE",
"586 549 CURVE SMOOTH",
"547 593 OFFCURVE",
"490 617 OFFCURVE",
"419 617 CURVE SMOOTH",
"349 617 OFFCURVE",
"292 593 OFFCURVE",
"252 549 CURVE SMOOTH",
"212 505 OFFCURVE",
"190 441 OFFCURVE",
"190 362 CURVE SMOOTH",
"190 282 OFFCURVE",
"212 219 OFFCURVE",
"252 175 CURVE SMOOTH",
"292 131 OFFCURVE",
"349 107 OFFCURVE",
"419 107 CURVE SMOOTH",
"490 107 OFFCURVE",
"547 131 OFFCURVE",
"586 175 CURVE SMOOTH",
"626 219 OFFCURVE",
"648 282 OFFCURVE",
"648 362 CURVE SMOOTH"
);
},
{
closed = 1;
nodes = (
"377 816 OFFCURVE",
"369 799 OFFCURVE",
"357 787 CURVE SMOOTH",
"345 775 OFFCURVE",
"327 768 OFFCURVE",
"309 768 CURVE SMOOTH",
"291 768 OFFCURVE",
"275 775 OFFCURVE",
"263 787 CURVE SMOOTH",
"251 799 OFFCURVE",
"243 816 OFFCURVE",
"243 834 CURVE SMOOTH",
"243 852 OFFCURVE",
"251 869 OFFCURVE",
"263 881 CURVE SMOOTH",
"275 893 OFFCURVE",
"291 901 OFFCURVE",
"309 901 CURVE SMOOTH",
"327 901 OFFCURVE",
"345 893 OFFCURVE",
"357 881 CURVE",
"369 869 OFFCURVE",
"377 852 OFFCURVE",
"377 834 CURVE SMOOTH"
);
},
{
closed = 1;
nodes = (
"597 816 OFFCURVE",
"590 799 OFFCURVE",
"578 787 CURVE SMOOTH",
"565 775 OFFCURVE",
"548 768 OFFCURVE",
"530 768 CURVE SMOOTH",
"512 768 OFFCURVE",
"495 775 OFFCURVE",
"483 787 CURVE SMOOTH",
"471 799 OFFCURVE",
"463 816 OFFCURVE",
"463 834 CURVE SMOOTH",
"463 852 OFFCURVE",
"471 869 OFFCURVE",
"483 881 CURVE SMOOTH",
"495 893 OFFCURVE",
"512 901 OFFCURVE",
"530 901 CURVE SMOOTH",
"548 901 OFFCURVE",
"565 893 OFFCURVE",
"578 881 CURVE",
"590 869 OFFCURVE",
"597 852 OFFCURVE",
"597 834 CURVE SMOOTH"
);
}
);
width = 839;
}
);
leftKerningGroup = C;
note = Odieresis;
rightKerningGroup = O;
unicode = 00D6;
},
{
glyphname = Ograve;
lastChange = "2021-09-03 08:48:19 +0000";
layers = (
{
layerId = "7DA69401-B8BB-4CEF-A33A-65E5ADA83450";
paths = (
{
closed = 1;
nodes = (
"733 240 OFFCURVE",
"700 151 OFFCURVE",
"643 89 CURVE SMOOTH",
"586 27 OFFCURVE",
"505 -7 OFFCURVE",
"409 -7 CURVE SMOOTH",
"313 -7 OFFCURVE",
"233 27 OFFCURVE",
"176 89 CURVE SMOOTH",
"119 151 OFFCURVE",
"86 240 OFFCURVE",
"86 350 CURVE SMOOTH",
"86 460 OFFCURVE",
"119 550 OFFCURVE",
"176 612 CURVE SMOOTH",
"233 674 OFFCURVE",
"313 708 OFFCURVE",
"409 708 CURVE SMOOTH",
"505 708 OFFCURVE",
"586 674 OFFCURVE",
"643 612 CURVE SMOOTH",
"700 550 OFFCURVE",
"733 461 OFFCURVE",
"733 350 CURVE SMOOTH"
);
},
{
closed = 1;
nodes = (
"720 459 OFFCURVE",
"688 546 OFFCURVE",
"633 606 CURVE SMOOTH",
"579 666 OFFCURVE",
"501 698 OFFCURVE",
"409 698 CURVE SMOOTH",
"318 698 OFFCURVE",
"241 666 OFFCURVE",
"186 606 CURVE SMOOTH",
"131 546 OFFCURVE",
"98 459 OFFCURVE",
"98 350 CURVE SMOOTH",
"98 242 OFFCURVE",
"131 155 OFFCURVE",
"186 96 CURVE SMOOTH",
"241 36 OFFCURVE",
"318 3 OFFCURVE",
"409 3 CURVE SMOOTH",
"501 3 OFFCURVE",
"579 36 OFFCURVE",
"633 96 CURVE SMOOTH",
"688 155 OFFCURVE",
"720 242 OFFCURVE",
"720 350 CURVE SMOOTH"
);
},
{
closed = 1;
nodes = (
"306 916 LINE SMOOTH",
"318 916 OFFCURVE",
"322 915 OFFCURVE",
"327 909 CURVE SMOOTH",
"452 769 LINE",
"446 769 LINE SMOOTH",
"442 769 OFFCURVE",
"439 770 OFFCURVE",
"437 772 CURVE SMOOTH",
"288 916 LINE"
);
}
);
width = 819;
},
{
layerId = "F36DCCA2-8A71-42CF-9609-F852DF368EC0";
paths = (
{
closed = 1;
nodes = (
"770 251 OFFCURVE",
"734 159 OFFCURVE",
"672 95 CURVE SMOOTH",
"610 30 OFFCURVE",
"522 -8 OFFCURVE",
"416 -8 CURVE SMOOTH",
"311 -8 OFFCURVE",
"223 30 OFFCURVE",
"161 95 CURVE SMOOTH",
"99 159 OFFCURVE",
"63 251 OFFCURVE",
"63 358 CURVE SMOOTH",
"63 466 OFFCURVE",
"99 557 OFFCURVE",
"161 622 CURVE SMOOTH",
"223 687 OFFCURVE",
"311 725 OFFCURVE",
"416 725 CURVE SMOOTH",
"522 725 OFFCURVE",
"610 687 OFFCURVE",
"672 622 CURVE SMOOTH",
"734 557 OFFCURVE",
"770 466 OFFCURVE",
"770 358 CURVE SMOOTH"
);
},
{
closed = 1;
nodes = (
"670 446 OFFCURVE",
"645 517 OFFCURVE",
"601 566 CURVE SMOOTH",
"557 614 OFFCURVE",
"494 641 OFFCURVE",
"416 641 CURVE SMOOTH",
"340 641 OFFCURVE",
"276 614 OFFCURVE",
"232 566 CURVE SMOOTH",
"187 517 OFFCURVE",
"162 446 OFFCURVE",
"162 358 CURVE SMOOTH",
"162 270 OFFCURVE",
"187 200 OFFCURVE",
"232 152 CURVE SMOOTH",
"276 103 OFFCURVE",
"340 77 OFFCURVE",
"416 77 CURVE SMOOTH",
"494 77 OFFCURVE",
"557 103 OFFCURVE",
"601 152 CURVE SMOOTH",
"645 200 OFFCURVE",
"670 270 OFFCURVE",
"670 358 CURVE SMOOTH"
);
},
{
closed = 1;
nodes = (
"329 926 LINE SMOOTH",
"351 926 OFFCURVE",
"359 925 OFFCURVE",
"371 910 CURVE SMOOTH",
"485 773 LINE",
"421 773 LINE SMOOTH",
"406 773 OFFCURVE",
"400 773 OFFCURVE",
"390 783 CURVE SMOOTH",
"234 926 LINE"
);
}
);
width = 833;
},
{
layerId = "A9E408DD-A955-440F-BEB6-B96F0772F152";
paths = (
{
closed = 1;
nodes = (
"785 256 OFFCURVE",
"749 163 OFFCURVE",
"685 97 CURVE SMOOTH",
"621 31 OFFCURVE",
"529 -8 OFFCURVE",
"419 -8 CURVE SMOOTH",
"310 -8 OFFCURVE",
"218 31 OFFCURVE",
"154 97 CURVE SMOOTH",
"90 163 OFFCURVE",
"53 256 OFFCURVE",
"53 362 CURVE SMOOTH",
"53 468 OFFCURVE",
"90 560 OFFCURVE",
"154 626 CURVE SMOOTH",
"218 692 OFFCURVE",
"310 731 OFFCURVE",
"419 731 CURVE SMOOTH",
"493 731 OFFCURVE",
"558 714 OFFCURVE",
"612 683 CURVE SMOOTH",
"666 652 OFFCURVE",
"709 606 OFFCURVE",
"739 552 CURVE SMOOTH",
"769 497 OFFCURVE",
"785 432 OFFCURVE",
"785 362 CURVE SMOOTH"
);
},
{
closed = 1;
nodes = (
"648 441 OFFCURVE",
"626 505 OFFCURVE",
"586 549 CURVE SMOOTH",
"547 593 OFFCURVE",
"490 617 OFFCURVE",
"419 617 CURVE SMOOTH",
"349 617 OFFCURVE",
"292 593 OFFCURVE",
"252 549 CURVE SMOOTH",
"212 505 OFFCURVE",
"190 441 OFFCURVE",
"190 362 CURVE SMOOTH",
"190 282 OFFCURVE",
"212 219 OFFCURVE",
"252 175 CURVE SMOOTH",
"292 131 OFFCURVE",
"349 107 OFFCURVE",
"419 107 CURVE SMOOTH",
"490 107 OFFCURVE",
"547 131 OFFCURVE",
"586 175 CURVE SMOOTH",
"626 219 OFFCURVE",
"648 282 OFFCURVE",
"648 362 CURVE SMOOTH"
);
},
{
closed = 1;
nodes = (
"338 931 LINE SMOOTH",
"352 931 OFFCURVE",
"361 931 OFFCURVE",
"369 928 CURVE SMOOTH",
"376 925 OFFCURVE",
"382 920 OFFCURVE",
"390 910 CURVE SMOOTH",
"499 775 LINE",
"409 775 LINE SMOOTH",
"390 775 OFFCURVE",
"382 775 OFFCURVE",
"368 787 CURVE SMOOTH",
"209 931 LINE"
);
}
);
width = 839;
}
);
leftKerningGroup = C;
note = Ograve;
rightKerningGroup = O;
unicode = 00D2;
},
{
glyphname = Oslash;
lastChange = "2021-09-03 08:48:21 +0000";
layers = (
{
layerId = "7DA69401-B8BB-4CEF-A33A-65E5ADA83450";
paths = (
{
closed = 1;
nodes = (
"212 71 LINE",
"264 27 OFFCURVE",
"332 3 OFFCURVE",
"410 3 CURVE SMOOTH",
"502 3 OFFCURVE",
"580 36 OFFCURVE",
"634 96 CURVE SMOOTH",
"689 155 OFFCURVE",
"721 242 OFFCURVE",
"721 350 CURVE SMOOTH",
"721 468 OFFCURVE",
"685 558 OFFCURVE",
"622 618 CURVE"
);
},
{
closed = 1;
nodes = (
"614 625 LINE",
"561 673 OFFCURVE",
"492 698 OFFCURVE",
"410 698 CURVE SMOOTH",
"319 698 OFFCURVE",
"242 666 OFFCURVE",
"187 606 CURVE SMOOTH",
"132 546 OFFCURVE",
"99 459 OFFCURVE",
"99 350 CURVE SMOOTH",
"99 230 OFFCURVE",
"138 138 OFFCURVE",
"204 78 CURVE"
);
},
{
closed = 1;
nodes = (
"629 627 LINE",
"695 565 OFFCURVE",
"734 471 OFFCURVE",
"734 350 CURVE SMOOTH",
"734 240 OFFCURVE",
"701 151 OFFCURVE",
"644 89 CURVE SMOOTH",
"587 27 OFFCURVE",
"506 -7 OFFCURVE",
"410 -7 CURVE SMOOTH",
"329 -7 OFFCURVE",
"259 18 OFFCURVE",
"205 62 CURVE",
"125 -45 LINE SMOOTH",
"122 -49 OFFCURVE",
"118 -51 OFFCURVE",
"114 -51 CURVE SMOOTH",
"107 -51 LINE",
"197 69 LINE",
"127 131 OFFCURVE",
"87 226 OFFCURVE",
"87 350 CURVE SMOOTH",
"87 460 OFFCURVE",
"120 550 OFFCURVE",
"177 612 CURVE SMOOTH",
"234 674 OFFCURVE",
"314 708 OFFCURVE",
"410 708 CURVE SMOOTH",
"494 708 OFFCURVE",
"565 682 OFFCURVE",
"621 634 CURVE",
"690 726 LINE",
"693 730 OFFCURVE",
"694 732 OFFCURVE",
"700 732 CURVE SMOOTH",
"708 732 LINE"
);
}
);
width = 822;
},
{
layerId = "F36DCCA2-8A71-42CF-9609-F852DF368EC0";
paths = (
{
closed = 1;
nodes = (
"281 112 LINE",
"320 88 OFFCURVE",
"365 77 OFFCURVE",
"417 77 CURVE SMOOTH",
"495 77 OFFCURVE",
"558 103 OFFCURVE",
"602 152 CURVE SMOOTH",
"646 200 OFFCURVE",
"671 270 OFFCURVE",
"671 358 CURVE SMOOTH",
"671 442 OFFCURVE",
"649 510 OFFCURVE",
"609 558 CURVE"
);
},
{
closed = 1;
nodes = (
"565 598 LINE",
"525 626 OFFCURVE",
"475 641 OFFCURVE",
"417 641 CURVE SMOOTH",
"341 641 OFFCURVE",
"277 614 OFFCURVE",
"233 566 CURVE SMOOTH",
"188 517 OFFCURVE",
"163 446 OFFCURVE",
"163 358 CURVE SMOOTH",
"163 268 OFFCURVE",
"189 197 OFFCURVE",
"235 149 CURVE"
);
},
{
closed = 1;
nodes = (
"663 632 LINE",
"732 566 OFFCURVE",
"771 472 OFFCURVE",
"771 358 CURVE SMOOTH",
"771 251 OFFCURVE",
"735 159 OFFCURVE",
"673 95 CURVE SMOOTH",
"611 30 OFFCURVE",
"523 -8 OFFCURVE",
"417 -8 CURVE SMOOTH",
"346 -8 OFFCURVE",
"283 10 OFFCURVE",
"230 41 CURVE",
"180 -27 LINE SMOOTH",
"166 -47 OFFCURVE",
"145 -55 OFFCURVE",
"125 -55 CURVE SMOOTH",
"86 -55 LINE",
"182 76 LINE",
"107 141 OFFCURVE",
"64 239 OFFCURVE",
"64 358 CURVE SMOOTH",
"64 466 OFFCURVE",
"100 557 OFFCURVE",
"162 622 CURVE SMOOTH",
"224 687 OFFCURVE",
"312 725 OFFCURVE",
"417 725 CURVE SMOOTH",
"494 725 OFFCURVE",
"561 705 OFFCURVE",
"617 669 CURVE",
"657 724 LINE SMOOTH",
"671 742 OFFCURVE",
"678 749 OFFCURVE",
"699 749 CURVE SMOOTH",
"749 749 LINE"
);
}
);
width = 837;
},
{
layerId = "A9E408DD-A955-440F-BEB6-B96F0772F152";
paths = (
{
closed = 1;
nodes = (
"313 130 LINE",
"345 115 OFFCURVE",
"381 107 OFFCURVE",
"421 107 CURVE SMOOTH",
"492 107 OFFCURVE",
"549 131 OFFCURVE",
"588 175 CURVE SMOOTH",
"628 219 OFFCURVE",
"650 282 OFFCURVE",
"650 362 CURVE SMOOTH",
"650 430 OFFCURVE",
"634 487 OFFCURVE",
"604 530 CURVE"
);
},
{
closed = 1;
nodes = (
"544 586 LINE",
"510 606 OFFCURVE",
"469 617 OFFCURVE",
"421 617 CURVE SMOOTH",
"351 617 OFFCURVE",
"294 593 OFFCURVE",
"254 549 CURVE SMOOTH",
"214 505 OFFCURVE",
"192 441 OFFCURVE",
"192 362 CURVE SMOOTH",
"192 285 OFFCURVE",
"212 224 OFFCURVE",
"249 180 CURVE"
);
},
{
closed = 1;
nodes = (
"679 633 LINE",
"748 567 OFFCURVE",
"787 472 OFFCURVE",
"787 362 CURVE SMOOTH",
"787 256 OFFCURVE",
"751 163 OFFCURVE",
"687 97 CURVE SMOOTH",
"623 31 OFFCURVE",
"531 -8 OFFCURVE",
"421 -8 CURVE SMOOTH",
"354 -8 OFFCURVE",
"295 7 OFFCURVE",
"243 33 CURVE",
"205 -20 LINE SMOOTH",
"185 -46 OFFCURVE",
"157 -56 OFFCURVE",
"131 -56 CURVE SMOOTH",
"78 -56 LINE",
"175 79 LINE",
"99 145 OFFCURVE",
"55 244 OFFCURVE",
"55 362 CURVE SMOOTH",
"55 468 OFFCURVE",
"92 560 OFFCURVE",
"156 626 CURVE SMOOTH",
"220 692 OFFCURVE",
"312 731 OFFCURVE",
"421 731 CURVE SMOOTH",
"495 731 OFFCURVE",
"560 714 OFFCURVE",
"614 682 CURVE",
"644 723 LINE SMOOTH",
"652 735 OFFCURVE",
"659 743 OFFCURVE",
"667 749 CURVE SMOOTH",
"675 754 OFFCURVE",
"685 756 OFFCURVE",
"700 756 CURVE SMOOTH",
"768 756 LINE"
);
}
);
width = 844;
}
);
leftKerningGroup = C;
note = Oslash;
rightKerningGroup = O;
unicode = 00D8;
},
{
glyphname = Otilde;
lastChange = "2021-09-03 08:48:20 +0000";
layers = (
{
layerId = "7DA69401-B8BB-4CEF-A33A-65E5ADA83450";
paths = (
{
closed = 1;
nodes = (
"733 240 OFFCURVE",
"700 151 OFFCURVE",
"643 89 CURVE SMOOTH",
"586 27 OFFCURVE",
"505 -7 OFFCURVE",
"409 -7 CURVE SMOOTH",
"313 -7 OFFCURVE",
"233 27 OFFCURVE",
"176 89 CURVE SMOOTH",
"119 151 OFFCURVE",
"86 240 OFFCURVE",
"86 350 CURVE SMOOTH",
"86 460 OFFCURVE",
"119 550 OFFCURVE",
"176 612 CURVE SMOOTH",
"233 674 OFFCURVE",
"313 708 OFFCURVE",
"409 708 CURVE SMOOTH",
"505 708 OFFCURVE",
"586 674 OFFCURVE",
"643 612 CURVE SMOOTH",
"700 550 OFFCURVE",
"733 461 OFFCURVE",
"733 350 CURVE SMOOTH"
);
},
{
closed = 1;
nodes = (
"720 459 OFFCURVE",
"688 546 OFFCURVE",
"633 606 CURVE SMOOTH",
"579 666 OFFCURVE",
"501 698 OFFCURVE",
"409 698 CURVE SMOOTH",
"318 698 OFFCURVE",
"241 666 OFFCURVE",
"186 606 CURVE SMOOTH",
"131 546 OFFCURVE",
"98 459 OFFCURVE",
"98 350 CURVE SMOOTH",
"98 242 OFFCURVE",
"131 155 OFFCURVE",
"186 96 CURVE SMOOTH",
"241 36 OFFCURVE",
"318 3 OFFCURVE",
"409 3 CURVE SMOOTH",
"501 3 OFFCURVE",
"579 36 OFFCURVE",
"633 96 CURVE SMOOTH",
"688 155 OFFCURVE",
"720 242 OFFCURVE",
"720 350 CURVE SMOOTH"
);
},
{
closed = 1;
nodes = (
"507 788 OFFCURVE",
"527 813 OFFCURVE",
"529 845 CURVE",
"537 845 LINE",
"537 827 OFFCURVE",
"531 810 OFFCURVE",
"520 798 CURVE SMOOTH",
"510 786 OFFCURVE",
"494 778 OFFCURVE",
"474 778 CURVE SMOOTH",
"452 778 OFFCURVE",
"431 793 OFFCURVE",
"411 807 CURVE SMOOTH",
"391 822 OFFCURVE",
"371 836 OFFCURVE",
"352 836 CURVE SMOOTH",
"336 836 OFFCURVE",
"322 830 OFFCURVE",
"313 820 CURVE SMOOTH",
"303 809 OFFCURVE",
"297 795 OFFCURVE",
"297 779 CURVE",
"288 779 LINE",
"288 797 OFFCURVE",
"294 814 OFFCURVE",
"305 826 CURVE SMOOTH",
"316 838 OFFCURVE",
"332 846 OFFCURVE",
"352 846 CURVE SMOOTH",
"374 846 OFFCURVE",
"395 832 OFFCURVE",
"415 817 CURVE SMOOTH",
"435 803 OFFCURVE",
"454 788 OFFCURVE",
"474 788 CURVE SMOOTH"
);
}
);
width = 819;
},
{
layerId = "F36DCCA2-8A71-42CF-9609-F852DF368EC0";
paths = (
{
closed = 1;
nodes = (
"770 251 OFFCURVE",
"734 159 OFFCURVE",
"672 95 CURVE SMOOTH",
"610 30 OFFCURVE",
"522 -8 OFFCURVE",
"416 -8 CURVE SMOOTH",
"311 -8 OFFCURVE",
"223 30 OFFCURVE",
"161 95 CURVE SMOOTH",
"99 159 OFFCURVE",
"63 251 OFFCURVE",
"63 358 CURVE SMOOTH",
"63 466 OFFCURVE",
"99 557 OFFCURVE",
"161 622 CURVE SMOOTH",
"223 687 OFFCURVE",
"311 725 OFFCURVE",
"416 725 CURVE SMOOTH",
"522 725 OFFCURVE",
"610 687 OFFCURVE",
"672 622 CURVE SMOOTH",
"734 557 OFFCURVE",
"770 466 OFFCURVE",
"770 358 CURVE SMOOTH"
);
},
{
closed = 1;
nodes = (
"670 446 OFFCURVE",
"645 517 OFFCURVE",
"601 566 CURVE SMOOTH",
"557 614 OFFCURVE",
"494 641 OFFCURVE",
"416 641 CURVE SMOOTH",
"340 641 OFFCURVE",
"276 614 OFFCURVE",
"232 566 CURVE SMOOTH",
"187 517 OFFCURVE",
"162 446 OFFCURVE",
"162 358 CURVE SMOOTH",
"162 270 OFFCURVE",
"187 200 OFFCURVE",
"232 152 CURVE SMOOTH",
"276 103 OFFCURVE",
"340 77 OFFCURVE",
"416 77 CURVE SMOOTH",
"494 77 OFFCURVE",
"557 103 OFFCURVE",
"601 152 CURVE SMOOTH",
"645 200 OFFCURVE",
"670 270 OFFCURVE",
"670 358 CURVE SMOOTH"
);
},
{
closed = 1;
nodes = (
"496 832 OFFCURVE",
"507 838 OFFCURVE",
"515 848 CURVE SMOOTH",
"523 857 OFFCURVE",
"527 870 OFFCURVE",
"527 882 CURVE",
"582 882 LINE",
"582 853 OFFCURVE",
"574 826 OFFCURVE",
"558 806 CURVE SMOOTH",
"542 785 OFFCURVE",
"520 772 OFFCURVE",
"490 772 CURVE SMOOTH",
"460 772 OFFCURVE",
"437 786 OFFCURVE",
"417 799 CURVE SMOOTH",
"397 812 OFFCURVE",
"379 825 OFFCURVE",
"361 825 CURVE SMOOTH",
"345 825 OFFCURVE",
"334 818 OFFCURVE",
"327 809 CURVE SMOOTH",
"319 799 OFFCURVE",
"315 786 OFFCURVE",
"315 774 CURVE",
"259 774 LINE",
"259 803 OFFCURVE",
"268 831 OFFCURVE",
"283 851 CURVE SMOOTH",
"299 871 OFFCURVE",
"321 884 OFFCURVE",
"351 884 CURVE SMOOTH",
"381 884 OFFCURVE",
"404 871 OFFCURVE",
"424 858 CURVE SMOOTH",
"444 845 OFFCURVE",
"462 832 OFFCURVE",
"480 832 CURVE SMOOTH"
);
}
);
width = 833;
},
{
layerId = "A9E408DD-A955-440F-BEB6-B96F0772F152";
paths = (
{
closed = 1;
nodes = (
"785 256 OFFCURVE",
"749 163 OFFCURVE",
"685 97 CURVE SMOOTH",
"621 31 OFFCURVE",
"529 -8 OFFCURVE",
"419 -8 CURVE SMOOTH",
"310 -8 OFFCURVE",
"218 31 OFFCURVE",
"154 97 CURVE SMOOTH",
"90 163 OFFCURVE",
"53 256 OFFCURVE",
"53 362 CURVE SMOOTH",
"53 468 OFFCURVE",
"90 560 OFFCURVE",
"154 626 CURVE SMOOTH",
"218 692 OFFCURVE",
"310 731 OFFCURVE",
"419 731 CURVE SMOOTH",
"493 731 OFFCURVE",
"558 714 OFFCURVE",
"612 683 CURVE SMOOTH",
"666 652 OFFCURVE",
"709 606 OFFCURVE",
"739 552 CURVE SMOOTH",
"769 497 OFFCURVE",
"785 432 OFFCURVE",
"785 362 CURVE SMOOTH"
);
},
{
closed = 1;
nodes = (
"648 441 OFFCURVE",
"626 505 OFFCURVE",
"586 549 CURVE SMOOTH",
"547 593 OFFCURVE",
"490 617 OFFCURVE",
"419 617 CURVE SMOOTH",
"349 617 OFFCURVE",
"292 593 OFFCURVE",
"252 549 CURVE SMOOTH",
"212 505 OFFCURVE",
"190 441 OFFCURVE",
"190 362 CURVE SMOOTH",
"190 282 OFFCURVE",
"212 219 OFFCURVE",
"252 175 CURVE SMOOTH",
"292 131 OFFCURVE",
"349 107 OFFCURVE",
"419 107 CURVE SMOOTH",
"490 107 OFFCURVE",
"547 131 OFFCURVE",
"586 175 CURVE SMOOTH",
"626 219 OFFCURVE",
"648 282 OFFCURVE",
"648 362 CURVE SMOOTH"
);
},
{
closed = 1;
nodes = (
"497 850 OFFCURVE",
"509 857 OFFCURVE",
"516 866 CURVE SMOOTH",
"523 875 OFFCURVE",
"526 886 OFFCURVE",
"526 897 CURVE",
"601 897 LINE",
"601 863 OFFCURVE",
"592 832 OFFCURVE",
"575 809 CURVE SMOOTH",
"557 785 OFFCURVE",
"531 770 OFFCURVE",
"498 770 CURVE SMOOTH",
"464 770 OFFCURVE",
"440 783 OFFCURVE",
"419 795 CURVE SMOOTH",
"409 801 OFFCURVE",
"400 807 OFFCURVE",
"391 812 CURVE SMOOTH",
"383 818 OFFCURVE",
"374 820 OFFCURVE",
"365 820 CURVE SMOOTH",
"349 820 OFFCURVE",
"339 814 OFFCURVE",
"332 804 CURVE SMOOTH",
"326 795 OFFCURVE",
"322 783 OFFCURVE",
"322 772 CURVE",
"246 772 LINE",
"246 805 OFFCURVE",
"255 837 OFFCURVE",
"273 861 CURVE SMOOTH",
"291 885 OFFCURVE",
"316 900 OFFCURVE",
"350 900 CURVE SMOOTH",
"384 900 OFFCURVE",
"408 887 OFFCURVE",
"428 875 CURVE SMOOTH",
"448 863 OFFCURVE",
"465 850 OFFCURVE",
"483 850 CURVE SMOOTH"
);
}
);
width = 839;
}
);
leftKerningGroup = C;
note = Otilde;
rightKerningGroup = O;
unicode = 00D5;
},
{
glyphname = OE;
lastChange = "2021-09-03 08:48:19 +0000";
layers = (
{
layerId = "7DA69401-B8BB-4CEF-A33A-65E5ADA83450";
paths = (
{
closed = 1;
nodes = (
"463 4 OFFCURVE",
"534 36 OFFCURVE",
"584 96 CURVE SMOOTH",
"633 155 OFFCURVE",
"662 242 OFFCURVE",
"662 350 CURVE SMOOTH",
"662 459 OFFCURVE",
"633 546 OFFCURVE",
"584 606 CURVE SMOOTH",
"534 666 OFFCURVE",
"463 698 OFFCURVE",
"381 698 CURVE SMOOTH",
"299 698 OFFCURVE",
"229 666 OFFCURVE",
"179 606 CURVE SMOOTH",
"129 546 OFFCURVE",
"100 459 OFFCURVE",
"100 350 CURVE SMOOTH",
"100 242 OFFCURVE",
"129 155 OFFCURVE",
"179 96 CURVE SMOOTH",
"229 36 OFFCURVE",
"299 4 OFFCURVE",
"381 4 CURVE SMOOTH"
);
},
{
closed = 1;
nodes = (
"1072 11 LINE",
"1071 0 LINE",
"663 0 LINE",
"663 249 LINE",
"647 169 OFFCURVE",
"613 105 OFFCURVE",
"565 62 CURVE SMOOTH",
"516 18 OFFCURVE",
"453 -6 OFFCURVE",
"379 -6 CURVE SMOOTH",
"293 -6 OFFCURVE",
"221 28 OFFCURVE",
"169 89 CURVE SMOOTH",
"118 151 OFFCURVE",
"88 240 OFFCURVE",
"88 350 CURVE SMOOTH",
"88 460 OFFCURVE",
"118 550 OFFCURVE",
"169 612 CURVE SMOOTH",
"221 674 OFFCURVE",
"293 708 OFFCURVE",
"379 708 CURVE SMOOTH",
"453 708 OFFCURVE",
"516 684 OFFCURVE",
"565 640 CURVE SMOOTH",
"613 596 OFFCURVE",
"647 532 OFFCURVE",
"663 451 CURVE",
"663 700 LINE",
"1071 700 LINE",
"1071 689 LINE",
"674 689 LINE",
"674 361 LINE",
"1011 361 LINE",
"1011 350 LINE",
"674 350 LINE",
"674 11 LINE"
);
}
);
width = 1132;
},
{
layerId = "F36DCCA2-8A71-42CF-9609-F852DF368EC0";
paths = (
{
closed = 1;
nodes = (
"463 74 OFFCURVE",
"520 101 OFFCURVE",
"560 150 CURVE SMOOTH",
"600 199 OFFCURVE",
"622 270 OFFCURVE",
"622 358 CURVE SMOOTH",
"622 446 OFFCURVE",
"600 517 OFFCURVE",
"560 567 CURVE SMOOTH",
"520 616 OFFCURVE",
"463 643 OFFCURVE",
"394 643 CURVE SMOOTH",
"324 643 OFFCURVE",
"267 616 OFFCURVE",
"227 567 CURVE SMOOTH",
"187 517 OFFCURVE",
"164 446 OFFCURVE",
"164 358 CURVE SMOOTH",
"164 270 OFFCURVE",
"187 199 OFFCURVE",
"227 150 CURVE SMOOTH",
"267 101 OFFCURVE",
"324 74 OFFCURVE",
"394 74 CURVE SMOOTH"
);
},
{
closed = 1;
nodes = (
"1063 79 LINE",
"1063 0 LINE",
"633 0 LINE",
"633 120 LINE",
"577 40 OFFCURVE",
"491 -7 OFFCURVE",
"383 -7 CURVE SMOOTH",
"289 -7 OFFCURVE",
"209 31 OFFCURVE",
"153 95 CURVE SMOOTH",
"97 159 OFFCURVE",
"65 251 OFFCURVE",
"65 358 CURVE SMOOTH",
"65 466 OFFCURVE",
"97 557 OFFCURVE",
"153 622 CURVE SMOOTH",
"209 687 OFFCURVE",
"289 725 OFFCURVE",
"383 725 CURVE SMOOTH",
"491 725 OFFCURVE",
"577 677 OFFCURVE",
"633 597 CURVE",
"633 717 LINE",
"1063 717 LINE",
"1063 638 LINE",
"719 638 LINE",
"719 400 LINE",
"998 400 LINE",
"998 324 LINE",
"719 324 LINE",
"719 79 LINE"
);
}
);
width = 1120;
},
{
layerId = "A9E408DD-A955-440F-BEB6-B96F0772F152";
paths = (
{
closed = 1;
nodes = (
"462 104 OFFCURVE",
"513 129 OFFCURVE",
"549 173 CURVE SMOOTH",
"584 218 OFFCURVE",
"603 282 OFFCURVE",
"603 362 CURVE SMOOTH",
"603 441 OFFCURVE",
"584 506 OFFCURVE",
"549 551 CURVE SMOOTH",
"513 596 OFFCURVE",
"462 620 OFFCURVE",
"399 620 CURVE SMOOTH",
"335 620 OFFCURVE",
"283 596 OFFCURVE",
"248 551 CURVE SMOOTH",
"212 506 OFFCURVE",
"193 441 OFFCURVE",
"193 362 CURVE SMOOTH",
"193 282 OFFCURVE",
"212 218 OFFCURVE",
"248 173 CURVE SMOOTH",
"283 129 OFFCURVE",
"335 104 OFFCURVE",
"399 104 CURVE SMOOTH"
);
},
{
closed = 1;
nodes = (
"1059 108 LINE",
"1059 0 LINE",
"619 0 LINE",
"619 93 LINE",
"562 30 OFFCURVE",
"482 -8 OFFCURVE",
"385 -8 CURVE SMOOTH",
"286 -8 OFFCURVE",
"204 32 OFFCURVE",
"146 98 CURVE SMOOTH",
"88 163 OFFCURVE",
"55 256 OFFCURVE",
"55 362 CURVE SMOOTH",
"55 468 OFFCURVE",
"88 560 OFFCURVE",
"146 626 CURVE SMOOTH",
"204 692 OFFCURVE",
"286 731 OFFCURVE",
"385 731 CURVE SMOOTH",
"482 731 OFFCURVE",
"562 694 OFFCURVE",
"619 630 CURVE",
"619 723 LINE",
"1059 723 LINE",
"1059 616 LINE",
"738 616 LINE",
"738 416 LINE",
"991 416 LINE",
"991 312 LINE",
"738 312 LINE",
"738 108 LINE"
);
}
);
width = 1113;
}
);
leftKerningGroup = C;
note = OE;
rightKerningGroup = AE;
unicode = 0152;
},
{
glyphname = P;
lastChange = "2021-09-03 08:48:18 +0000";
layers = (
{
layerId = "7DA69401-B8BB-4CEF-A33A-65E5ADA83450";
paths = (
{
closed = 1;
nodes = (
"286 310 LINE SMOOTH",
"355 310 OFFCURVE",
"411 331 OFFCURVE",
"450 366 CURVE SMOOTH",
"489 400 OFFCURVE",
"511 447 OFFCURVE",
"511 500 CURVE SMOOTH",
"511 625 OFFCURVE",
"436 690 OFFCURVE",
"286 690 CURVE SMOOTH",
"140 690 LINE",
"140 310 LINE"
);
},
{
closed = 1;
nodes = (
"286 700 LINE SMOOTH",
"439 700 OFFCURVE",
"523 635 OFFCURVE",
"523 500 CURVE SMOOTH",
"523 442 OFFCURVE",
"499 392 OFFCURVE",
"457 357 CURVE SMOOTH",
"415 321 OFFCURVE",
"356 300 OFFCURVE",
"286 300 CURVE SMOOTH",
"140 300 LINE",
"140 0 LINE",
"128 0 LINE",
"128 700 LINE"
);
}
);
width = 595;
},
{
layerId = "F36DCCA2-8A71-42CF-9609-F852DF368EC0";
paths = (
{
closed = 1;
nodes = (
"320 345 LINE SMOOTH",
"376 345 OFFCURVE",
"418 361 OFFCURVE",
"447 387 CURVE SMOOTH",
"476 413 OFFCURVE",
"491 451 OFFCURVE",
"491 495 CURVE SMOOTH",
"491 586 OFFCURVE",
"435 640 OFFCURVE",
"320 640 CURVE SMOOTH",
"205 640 LINE",
"205 345 LINE"
);
},
{
closed = 1;
nodes = (
"320 717 LINE SMOOTH",
"411 717 OFFCURVE",
"478 695 OFFCURVE",
"522 656 CURVE SMOOTH",
"566 618 OFFCURVE",
"587 562 OFFCURVE",
"587 495 CURVE SMOOTH",
"587 428 OFFCURVE",
"564 372 OFFCURVE",
"519 332 CURVE SMOOTH",
"474 292 OFFCURVE",
"407 268 OFFCURVE",
"320 268 CURVE SMOOTH",
"205 268 LINE",
"205 0 LINE",
"109 0 LINE",
"109 717 LINE"
);
}
);
width = 640;
},
{
layerId = "A9E408DD-A955-440F-BEB6-B96F0772F152";
paths = (
{
closed = 1;
nodes = (
"335 360 LINE SMOOTH",
"384 360 OFFCURVE",
"421 373 OFFCURVE",
"445 396 CURVE SMOOTH",
"469 419 OFFCURVE",
"481 452 OFFCURVE",
"481 493 CURVE SMOOTH",
"481 531 OFFCURVE",
"469 563 OFFCURVE",
"445 585 CURVE SMOOTH",
"421 607 OFFCURVE",
"385 619 OFFCURVE",
"335 619 CURVE SMOOTH",
"234 619 LINE",
"234 360 LINE"
);
},
{
closed = 1;
nodes = (
"335 723 LINE SMOOTH",
"431 723 OFFCURVE",
"502 699 OFFCURVE",
"548 659 CURVE SMOOTH",
"594 618 OFFCURVE",
"616 560 OFFCURVE",
"616 493 CURVE SMOOTH",
"616 423 OFFCURVE",
"592 363 OFFCURVE",
"546 321 CURVE SMOOTH",
"499 279 OFFCURVE",
"429 255 OFFCURVE",
"335 255 CURVE SMOOTH",
"234 255 LINE",
"234 0 LINE",
"100 0 LINE",
"100 723 LINE"
);
}
);
width = 660;
}
);
leftKerningGroup = B;
note = P;
rightKerningGroup = P;
unicode = 0050;
},
{
glyphname = Thorn;
lastChange = "2021-09-03 08:48:21 +0000";
layers = (
{
layerId = "7DA69401-B8BB-4CEF-A33A-65E5ADA83450";
paths = (
{
closed = 1;
nodes = (
"286 159 LINE SMOOTH",
"355 159 OFFCURVE",
"411 180 OFFCURVE",
"450 215 CURVE SMOOTH",
"489 249 OFFCURVE",
"511 296 OFFCURVE",
"511 349 CURVE SMOOTH",
"511 474 OFFCURVE",
"436 539 OFFCURVE",
"286 539 CURVE SMOOTH",
"140 539 LINE",
"140 159 LINE"
);
},
{
closed = 1;
nodes = (
"286 549 LINE SMOOTH",
"439 549 OFFCURVE",
"523 484 OFFCURVE",
"523 349 CURVE SMOOTH",
"523 291 OFFCURVE",
"499 241 OFFCURVE",
"457 206 CURVE SMOOTH",
"415 170 OFFCURVE",
"356 149 OFFCURVE",
"286 149 CURVE SMOOTH",
"140 149 LINE",
"140 0 LINE",
"128 0 LINE",
"128 700 LINE",
"140 700 LINE",
"140 549 LINE"
);
}
);
width = 595;
},
{
layerId = "F36DCCA2-8A71-42CF-9609-F852DF368EC0";
paths = (
{
closed = 1;
nodes = (
"320 213 LINE SMOOTH",
"376 213 OFFCURVE",
"418 229 OFFCURVE",
"447 255 CURVE SMOOTH",
"476 281 OFFCURVE",
"491 319 OFFCURVE",
"491 363 CURVE SMOOTH",
"491 454 OFFCURVE",
"435 508 OFFCURVE",
"320 508 CURVE SMOOTH",
"205 508 LINE",
"205 213 LINE"
);
},
{
closed = 1;
nodes = (
"320 585 LINE SMOOTH",
"411 585 OFFCURVE",
"478 563 OFFCURVE",
"522 524 CURVE SMOOTH",
"566 486 OFFCURVE",
"587 430 OFFCURVE",
"587 363 CURVE SMOOTH",
"587 296 OFFCURVE",
"564 240 OFFCURVE",
"519 200 CURVE SMOOTH",
"474 160 OFFCURVE",
"407 136 OFFCURVE",
"320 136 CURVE SMOOTH",
"205 136 LINE",
"205 0 LINE",
"109 0 LINE",
"109 717 LINE",
"205 717 LINE",
"205 585 LINE"
);
}
);
width = 640;
},
{
layerId = "A9E408DD-A955-440F-BEB6-B96F0772F152";
paths = (
{
closed = 1;
nodes = (
"335 236 LINE SMOOTH",
"384 236 OFFCURVE",
"421 249 OFFCURVE",
"445 272 CURVE SMOOTH",
"469 295 OFFCURVE",
"481 328 OFFCURVE",
"481 369 CURVE SMOOTH",
"481 407 OFFCURVE",
"469 439 OFFCURVE",
"445 461 CURVE SMOOTH",
"421 483 OFFCURVE",
"385 495 OFFCURVE",
"335 495 CURVE SMOOTH",
"234 495 LINE",
"234 236 LINE"
);
},
{
closed = 1;
nodes = (
"335 599 LINE SMOOTH",
"431 599 OFFCURVE",
"502 575 OFFCURVE",
"548 535 CURVE SMOOTH",
"594 494 OFFCURVE",
"616 436 OFFCURVE",
"616 369 CURVE SMOOTH",
"616 299 OFFCURVE",
"592 239 OFFCURVE",
"546 197 CURVE SMOOTH",
"499 155 OFFCURVE",
"429 131 OFFCURVE",
"335 131 CURVE SMOOTH",
"234 131 LINE",
"234 0 LINE",
"100 0 LINE",
"100 723 LINE",
"234 723 LINE",
"234 599 LINE"
);
}
);
width = 660;
}
);
leftKerningGroup = B;
note = Thorn;
unicode = 00DE;
},
{
glyphname = Q;
lastChange = "2021-09-03 08:48:18 +0000";
layers = (
{
layerId = "7DA69401-B8BB-4CEF-A33A-65E5ADA83450";
paths = (
{
closed = 1;
nodes = (
"98 242 OFFCURVE",
"131 155 OFFCURVE",
"186 96 CURVE SMOOTH",
"241 36 OFFCURVE",
"318 3 OFFCURVE",
"409 3 CURVE SMOOTH",
"501 3 OFFCURVE",
"579 36 OFFCURVE",
"633 96 CURVE SMOOTH",
"688 155 OFFCURVE",
"720 242 OFFCURVE",
"720 350 CURVE SMOOTH",
"720 459 OFFCURVE",
"688 546 OFFCURVE",
"633 606 CURVE SMOOTH",
"579 666 OFFCURVE",
"501 698 OFFCURVE",
"409 698 CURVE SMOOTH",
"318 698 OFFCURVE",
"241 666 OFFCURVE",
"186 606 CURVE SMOOTH",
"131 546 OFFCURVE",
"98 459 OFFCURVE",
"98 350 CURVE SMOOTH"
);
},
{
closed = 1;
nodes = (
"758 -163 LINE",
"747 -163 LINE SMOOTH",
"741 -163 OFFCURVE",
"739 -161 OFFCURVE",
"737 -159 CURVE SMOOTH",
"562 28 LINE",
"517 5 OFFCURVE",
"466 -7 OFFCURVE",
"409 -7 CURVE SMOOTH",
"313 -7 OFFCURVE",
"233 27 OFFCURVE",
"176 89 CURVE SMOOTH",
"119 151 OFFCURVE",
"86 240 OFFCURVE",
"86 350 CURVE SMOOTH",
"86 460 OFFCURVE",
"119 550 OFFCURVE",
"176 612 CURVE SMOOTH",
"233 674 OFFCURVE",
"313 708 OFFCURVE",
"409 708 CURVE SMOOTH",
"505 708 OFFCURVE",
"586 674 OFFCURVE",
"643 612 CURVE SMOOTH",
"700 550 OFFCURVE",
"733 461 OFFCURVE",
"733 350 CURVE SMOOTH",
"733 275 OFFCURVE",
"718 210 OFFCURVE",
"690 157 CURVE SMOOTH",
"662 103 OFFCURVE",
"622 61 OFFCURVE",
"572 33 CURVE"
);
}
);
width = 818;
},
{
layerId = "F36DCCA2-8A71-42CF-9609-F852DF368EC0";
paths = (
{
closed = 1;
nodes = (
"162 270 OFFCURVE",
"187 200 OFFCURVE",
"231 152 CURVE SMOOTH",
"275 103 OFFCURVE",
"339 77 OFFCURVE",
"416 77 CURVE SMOOTH",
"493 77 OFFCURVE",
"557 103 OFFCURVE",
"601 152 CURVE SMOOTH",
"645 200 OFFCURVE",
"670 270 OFFCURVE",
"670 358 CURVE SMOOTH",
"670 446 OFFCURVE",
"645 517 OFFCURVE",
"601 566 CURVE SMOOTH",
"557 614 OFFCURVE",
"493 641 OFFCURVE",
"416 641 CURVE SMOOTH",
"339 641 OFFCURVE",
"275 614 OFFCURVE",
"231 566 CURVE SMOOTH",
"187 517 OFFCURVE",
"162 446 OFFCURVE",
"162 358 CURVE SMOOTH"
);
},
{
closed = 1;
nodes = (
"802 -148 LINE",
"722 -148 LINE SMOOTH",
"698 -148 OFFCURVE",
"680 -142 OFFCURVE",
"665 -126 CURVE SMOOTH",
"539 12 LINE",
"501 -1 OFFCURVE",
"460 -8 OFFCURVE",
"416 -8 CURVE SMOOTH",
"310 -8 OFFCURVE",
"222 30 OFFCURVE",
"160 95 CURVE SMOOTH",
"98 159 OFFCURVE",
"63 251 OFFCURVE",
"63 358 CURVE SMOOTH",
"63 466 OFFCURVE",
"98 557 OFFCURVE",
"160 622 CURVE SMOOTH",
"222 687 OFFCURVE",
"310 725 OFFCURVE",
"416 725 CURVE SMOOTH",
"521 725 OFFCURVE",
"610 687 OFFCURVE",
"672 622 CURVE SMOOTH",
"734 557 OFFCURVE",
"769 466 OFFCURVE",
"769 358 CURVE SMOOTH",
"769 291 OFFCURVE",
"755 230 OFFCURVE",
"729 178 CURVE SMOOTH",
"703 125 OFFCURVE",
"665 82 OFFCURVE",
"619 51 CURVE"
);
}
);
width = 831;
},
{
layerId = "A9E408DD-A955-440F-BEB6-B96F0772F152";
paths = (
{
closed = 1;
nodes = (
"191 282 OFFCURVE",
"213 219 OFFCURVE",
"253 175 CURVE SMOOTH",
"292 131 OFFCURVE",
"349 107 OFFCURVE",
"420 107 CURVE SMOOTH",
"490 107 OFFCURVE",
"547 131 OFFCURVE",
"587 175 CURVE SMOOTH",
"626 219 OFFCURVE",
"648 282 OFFCURVE",
"648 362 CURVE SMOOTH",
"648 441 OFFCURVE",
"626 505 OFFCURVE",
"587 549 CURVE SMOOTH",
"547 593 OFFCURVE",
"490 617 OFFCURVE",
"420 617 CURVE SMOOTH",
"349 617 OFFCURVE",
"292 593 OFFCURVE",
"253 549 CURVE SMOOTH",
"213 505 OFFCURVE",
"191 441 OFFCURVE",
"191 362 CURVE SMOOTH"
);
},
{
closed = 1;
nodes = (
"823 -142 LINE",
"712 -142 LINE SMOOTH",
"680 -142 OFFCURVE",
"655 -135 OFFCURVE",
"634 -111 CURVE SMOOTH",
"528 6 LINE",
"494 -4 OFFCURVE",
"458 -8 OFFCURVE",
"420 -8 CURVE SMOOTH",
"310 -8 OFFCURVE",
"219 31 OFFCURVE",
"155 97 CURVE SMOOTH",
"90 163 OFFCURVE",
"53 256 OFFCURVE",
"53 362 CURVE SMOOTH",
"53 468 OFFCURVE",
"90 560 OFFCURVE",
"155 626 CURVE SMOOTH",
"219 692 OFFCURVE",
"310 731 OFFCURVE",
"420 731 CURVE SMOOTH",
"493 731 OFFCURVE",
"558 714 OFFCURVE",
"612 683 CURVE SMOOTH",
"666 652 OFFCURVE",
"710 606 OFFCURVE",
"740 552 CURVE SMOOTH",
"770 497 OFFCURVE",
"786 432 OFFCURVE",
"786 362 CURVE SMOOTH",
"786 297 OFFCURVE",
"772 238 OFFCURVE",
"747 186 CURVE SMOOTH",
"722 135 OFFCURVE",
"686 91 OFFCURVE",
"640 59 CURVE"
);
}
);
width = 839;
}
);
leftKerningGroup = C;
note = Q;
rightKerningGroup = O;
unicode = 0051;
},
{
glyphname = R;
lastChange = "2021-09-03 08:48:18 +0000";
layers = (
{
layerId = "7DA69401-B8BB-4CEF-A33A-65E5ADA83450";
paths = (
{
closed = 1;
nodes = (
"140 348 LINE",
"281 348 LINE SMOOTH",
"350 348 OFFCURVE",
"406 365 OFFCURVE",
"445 396 CURVE SMOOTH",
"484 426 OFFCURVE",
"505 470 OFFCURVE",
"505 525 CURVE SMOOTH",
"505 639 OFFCURVE",
"429 690 OFFCURVE",
"290 690 CURVE SMOOTH",
"140 690 LINE"
);
},
{
closed = 1;
nodes = (
"580 0 LINE",
"572 0 LINE SMOOTH",
"567 0 OFFCURVE",
"565 0 OFFCURVE",
"559 6 CURVE",
"297 320 LINE SMOOTH",
"292 327 OFFCURVE",
"287 332 OFFCURVE",
"280 335 CURVE SMOOTH",
"273 338 OFFCURVE",
"263 338 OFFCURVE",
"249 338 CURVE SMOOTH",
"140 338 LINE",
"140 0 LINE",
"128 0 LINE",
"128 700 LINE",
"290 700 LINE SMOOTH",
"436 700 OFFCURVE",
"517 645 OFFCURVE",
"517 525 CURVE SMOOTH",
"517 469 OFFCURVE",
"494 422 OFFCURVE",
"454 390 CURVE SMOOTH",
"414 358 OFFCURVE",
"358 340 OFFCURVE",
"290 338 CURVE",
"297 336 OFFCURVE",
"302 331 OFFCURVE",
"307 325 CURVE"
);
}
);
width = 636;
},
{
layerId = "F36DCCA2-8A71-42CF-9609-F852DF368EC0";
paths = (
{
closed = 1;
nodes = (
"307 370 LINE SMOOTH",
"363 370 OFFCURVE",
"407 384 OFFCURVE",
"436 409 CURVE SMOOTH",
"465 434 OFFCURVE",
"479 469 OFFCURVE",
"479 511 CURVE SMOOTH",
"479 597 OFFCURVE",
"423 640 OFFCURVE",
"311 640 CURVE SMOOTH",
"205 640 LINE",
"205 370 LINE"
);
},
{
closed = 1;
nodes = (
"638 0 LINE",
"552 0 LINE SMOOTH",
"535 0 OFFCURVE",
"522 7 OFFCURVE",
"513 21 CURVE",
"327 277 LINE SMOOTH",
"316 293 OFFCURVE",
"306 299 OFFCURVE",
"279 299 CURVE SMOOTH",
"205 299 LINE",
"205 0 LINE",
"109 0 LINE",
"109 717 LINE",
"311 717 LINE SMOOTH",
"402 717 OFFCURVE",
"468 698 OFFCURVE",
"511 663 CURVE SMOOTH",
"554 629 OFFCURVE",
"574 579 OFFCURVE",
"574 518 CURVE SMOOTH",
"574 468 OFFCURVE",
"557 423 OFFCURVE",
"527 388 CURVE SMOOTH",
"497 353 OFFCURVE",
"453 328 OFFCURVE",
"397 315 CURVE",
"410 308 OFFCURVE",
"420 298 OFFCURVE",
"429 285 CURVE"
);
}
);
width = 673;
},
{
layerId = "A9E408DD-A955-440F-BEB6-B96F0772F152";
paths = (
{
closed = 1;
nodes = (
"318 379 LINE SMOOTH",
"369 379 OFFCURVE",
"407 393 OFFCURVE",
"431 415 CURVE SMOOTH",
"455 437 OFFCURVE",
"467 469 OFFCURVE",
"467 505 CURVE SMOOTH",
"467 579 OFFCURVE",
"420 619 OFFCURVE",
"320 619 CURVE SMOOTH",
"234 619 LINE",
"234 379 LINE"
);
},
{
closed = 1;
nodes = (
"664 0 LINE",
"543 0 LINE SMOOTH",
"520 0 OFFCURVE",
"503 9 OFFCURVE",
"493 27 CURVE",
"341 259 LINE SMOOTH",
"329 276 OFFCURVE",
"318 283 OFFCURVE",
"292 283 CURVE SMOOTH",
"234 283 LINE",
"234 0 LINE",
"100 0 LINE",
"100 723 LINE",
"320 723 LINE SMOOTH",
"418 723 OFFCURVE",
"488 702 OFFCURVE",
"533 665 CURVE SMOOTH",
"578 629 OFFCURVE",
"599 577 OFFCURVE",
"599 515 CURVE SMOOTH",
"599 467 OFFCURVE",
"584 423 OFFCURVE",
"557 387 CURVE SMOOTH",
"530 352 OFFCURVE",
"490 325 OFFCURVE",
"439 309 CURVE",
"457 299 OFFCURVE",
"471 286 OFFCURVE",
"483 267 CURVE SMOOTH"
);
}
);
width = 690;
}
);
leftKerningGroup = B;
note = R;
rightKerningGroup = R;
unicode = 0052;
},
{
glyphname = S;
lastChange = "2021-09-03 08:48:21 +0000";
layers = (
{
layerId = "7DA69401-B8BB-4CEF-A33A-65E5ADA83450";
paths = (
{
closed = 1;
nodes = (
"451 636 LINE",
"450 634 OFFCURVE",
"449 633 OFFCURVE",
"446 633 CURVE SMOOTH",
"444 633 OFFCURVE",
"441 635 OFFCURVE",
"438 638 CURVE",
"431 644 OFFCURVE",
"421 654 OFFCURVE",
"405 666 CURVE SMOOTH",
"389 677 OFFCURVE",
"367 687 OFFCURVE",
"339 694 CURVE SMOOTH",
"324 697 OFFCURVE",
"308 698 OFFCURVE",
"289 698 CURVE SMOOTH",
"232 698 OFFCURVE",
"187 679 OFFCURVE",
"157 650 CURVE SMOOTH",
"127 620 OFFCURVE",
"111 580 OFFCURVE",
"111 538 CURVE SMOOTH",
"111 484 OFFCURVE",
"134 450 OFFCURVE",
"168 425 CURVE SMOOTH",
"202 401 OFFCURVE",
"248 386 OFFCURVE",
"294 371 CURVE SMOOTH",
"339 356 OFFCURVE",
"385 341 OFFCURVE",
"419 316 CURVE SMOOTH",
"453 290 OFFCURVE",
"476 254 OFFCURVE",
"476 197 CURVE SMOOTH",
"476 140 OFFCURVE",
"456 89 OFFCURVE",
"420 52 CURVE SMOOTH",
"383 15 OFFCURVE",
"329 -8 OFFCURVE",
"261 -8 CURVE SMOOTH",
"214 -8 OFFCURVE",
"178 1 OFFCURVE",
"147 17 CURVE SMOOTH",
"116 32 OFFCURVE",
"90 55 OFFCURVE",
"66 83 CURVE",
"68 85 LINE SMOOTH",
"70 87 OFFCURVE",
"71 88 OFFCURVE",
"74 88 CURVE SMOOTH",
"76 88 OFFCURVE",
"79 86 OFFCURVE",
"83 82 CURVE",
"91 74 OFFCURVE",
"104 60 OFFCURVE",
"123 45 CURVE SMOOTH",
"141 31 OFFCURVE",
"168 17 OFFCURVE",
"203 9 CURVE SMOOTH",
"220 4 OFFCURVE",
"239 2 OFFCURVE",
"261 2 CURVE SMOOTH",
"326 2 OFFCURVE",
"377 25 OFFCURVE",
"412 60 CURVE SMOOTH",
"447 95 OFFCURVE",
"465 143 OFFCURVE",
"465 195 CURVE SMOOTH",
"465 239 OFFCURVE",
"451 271 OFFCURVE",
"427 294 CURVE SMOOTH",
"404 317 OFFCURVE",
"372 332 OFFCURVE",
"337 345 CURVE SMOOTH",
"319 352 OFFCURVE",
"301 358 OFFCURVE",
"283 363 CURVE SMOOTH",
"246 374 OFFCURVE",
"210 387 OFFCURVE",
"179 404 CURVE SMOOTH",
"148 421 OFFCURVE",
"124 445 OFFCURVE",
"111 479 CURVE SMOOTH",
"104 495 OFFCURVE",
"100 515 OFFCURVE",
"100 538 CURVE SMOOTH",
"100 583 OFFCURVE",
"117 625 OFFCURVE",
"149 657 CURVE SMOOTH",
"181 688 OFFCURVE",
"229 708 OFFCURVE",
"289 708 CURVE SMOOTH",
"357 708 OFFCURVE",
"407 687 OFFCURVE",
"453 639 CURVE"
);
}
);
width = 551;
},
{
layerId = "F36DCCA2-8A71-42CF-9609-F852DF368EC0";
paths = (
{
closed = 1;
nodes = (
"474 605 LINE",
"468 595 OFFCURVE",
"462 590 OFFCURVE",
"452 590 CURVE SMOOTH",
"446 590 OFFCURVE",
"439 593 OFFCURVE",
"432 598 CURVE SMOOTH",
"416 610 OFFCURVE",
"394 624 OFFCURVE",
"362 636 CURVE SMOOTH",
"345 641 OFFCURVE",
"326 644 OFFCURVE",
"303 644 CURVE SMOOTH",
"259 644 OFFCURVE",
"226 632 OFFCURVE",
"204 612 CURVE SMOOTH",
"182 592 OFFCURVE",
"170 564 OFFCURVE",
"170 533 CURVE SMOOTH",
"170 493 OFFCURVE",
"192 468 OFFCURVE",
"224 449 CURVE SMOOTH",
"240 440 OFFCURVE",
"259 432 OFFCURVE",
"279 425 CURVE SMOOTH",
"320 411 OFFCURVE",
"364 397 OFFCURVE",
"405 379 CURVE SMOOTH",
"446 361 OFFCURVE",
"479 333 OFFCURVE",
"499 293 CURVE SMOOTH",
"509 272 OFFCURVE",
"514 247 OFFCURVE",
"514 218 CURVE SMOOTH",
"514 155 OFFCURVE",
"492 98 OFFCURVE",
"451 58 CURVE SMOOTH",
"410 17 OFFCURVE",
"350 -8 OFFCURVE",
"274 -8 CURVE SMOOTH",
"180 -8 OFFCURVE",
"103 28 OFFCURVE",
"49 86 CURVE",
"77 132 LINE",
"83 139 OFFCURVE",
"90 145 OFFCURVE",
"100 145 CURVE SMOOTH",
"108 145 OFFCURVE",
"119 137 OFFCURVE",
"133 126 CURVE SMOOTH",
"147 116 OFFCURVE",
"165 102 OFFCURVE",
"188 91 CURVE SMOOTH",
"211 81 OFFCURVE",
"240 73 OFFCURVE",
"277 73 CURVE SMOOTH",
"323 73 OFFCURVE",
"359 86 OFFCURVE",
"384 109 CURVE SMOOTH",
"409 132 OFFCURVE",
"423 164 OFFCURVE",
"423 204 CURVE SMOOTH",
"423 247 OFFCURVE",
"401 273 OFFCURVE",
"369 292 CURVE SMOOTH",
"353 301 OFFCURVE",
"335 309 OFFCURVE",
"314 316 CURVE SMOOTH",
"273 329 OFFCURVE",
"230 341 OFFCURVE",
"188 359 CURVE SMOOTH",
"147 377 OFFCURVE",
"114 405 OFFCURVE",
"95 448 CURVE SMOOTH",
"85 470 OFFCURVE",
"80 496 OFFCURVE",
"80 528 CURVE SMOOTH",
"80 578 OFFCURVE",
"100 628 OFFCURVE",
"138 664 CURVE SMOOTH",
"175 701 OFFCURVE",
"230 725 OFFCURVE",
"302 725 CURVE SMOOTH",
"382 725 OFFCURVE",
"448 699 OFFCURVE",
"498 651 CURVE"
);
}
);
width = 573;
},
{
layerId = "A9E408DD-A955-440F-BEB6-B96F0772F152";
paths = (
{
closed = 1;
nodes = (
"484 592 LINE SMOOTH",
"476 578 OFFCURVE",
"468 572 OFFCURVE",
"454 572 CURVE SMOOTH",
"447 572 OFFCURVE",
"440 574 OFFCURVE",
"432 580 CURVE",
"415 590 OFFCURVE",
"393 604 OFFCURVE",
"363 614 CURVE SMOOTH",
"347 619 OFFCURVE",
"329 622 OFFCURVE",
"309 622 CURVE SMOOTH",
"271 622 OFFCURVE",
"244 612 OFFCURVE",
"225 596 CURVE SMOOTH",
"206 580 OFFCURVE",
"196 557 OFFCURVE",
"196 531 CURVE SMOOTH",
"196 497 OFFCURVE",
"217 475 OFFCURVE",
"248 459 CURVE SMOOTH",
"264 451 OFFCURVE",
"282 444 OFFCURVE",
"302 438 CURVE SMOOTH",
"342 425 OFFCURVE",
"385 412 OFFCURVE",
"425 393 CURVE SMOOTH",
"465 374 OFFCURVE",
"497 345 OFFCURVE",
"516 303 CURVE SMOOTH",
"526 282 OFFCURVE",
"530 257 OFFCURVE",
"530 227 CURVE SMOOTH",
"530 161 OFFCURVE",
"508 103 OFFCURVE",
"465 61 CURVE SMOOTH",
"422 18 OFFCURVE",
"359 -8 OFFCURVE",
"279 -8 CURVE SMOOTH",
"233 -8 OFFCURVE",
"188 2 OFFCURVE",
"147 18 CURVE SMOOTH",
"106 35 OFFCURVE",
"69 59 OFFCURVE",
"41 87 CURVE",
"81 152 LINE",
"87 161 OFFCURVE",
"99 168 OFFCURVE",
"111 168 CURVE SMOOTH",
"119 168 OFFCURVE",
"128 165 OFFCURVE",
"138 158 CURVE SMOOTH",
"157 144 OFFCURVE",
"183 126 OFFCURVE",
"219 113 CURVE SMOOTH",
"237 106 OFFCURVE",
"258 102 OFFCURVE",
"283 102 CURVE SMOOTH",
"360 102 OFFCURVE",
"404 140 OFFCURVE",
"404 208 CURVE SMOOTH",
"404 246 OFFCURVE",
"383 268 OFFCURVE",
"352 285 CURVE SMOOTH",
"336 293 OFFCURVE",
"318 300 OFFCURVE",
"298 305 CURVE SMOOTH",
"258 317 OFFCURVE",
"216 329 OFFCURVE",
"176 348 CURVE SMOOTH",
"136 366 OFFCURVE",
"104 396 OFFCURVE",
"85 441 CURVE SMOOTH",
"76 463 OFFCURVE",
"71 491 OFFCURVE",
"71 524 CURVE SMOOTH",
"71 576 OFFCURVE",
"92 629 OFFCURVE",
"132 667 CURVE SMOOTH",
"172 706 OFFCURVE",
"231 731 OFFCURVE",
"307 731 CURVE SMOOTH",
"393 731 OFFCURVE",
"467 703 OFFCURVE",
"517 655 CURVE"
);
}
);
width = 582;
}
);
leftKerningGroup = S;
note = S;
rightKerningGroup = S;
unicode = 0053;
},
{
glyphname = Scaron;
lastChange = "2021-09-03 08:48:18 +0000";
layers = (
{
layerId = "7DA69401-B8BB-4CEF-A33A-65E5ADA83450";
paths = (
{
closed = 1;
nodes = (
"451 636 LINE",
"450 634 OFFCURVE",
"449 633 OFFCURVE",
"446 633 CURVE SMOOTH",
"444 633 OFFCURVE",
"441 635 OFFCURVE",
"438 638 CURVE",
"431 644 OFFCURVE",
"421 654 OFFCURVE",
"405 666 CURVE SMOOTH",
"389 677 OFFCURVE",
"367 687 OFFCURVE",
"339 694 CURVE SMOOTH",
"324 697 OFFCURVE",
"308 698 OFFCURVE",
"289 698 CURVE SMOOTH",
"232 698 OFFCURVE",
"187 679 OFFCURVE",
"157 650 CURVE SMOOTH",
"127 620 OFFCURVE",
"111 580 OFFCURVE",
"111 538 CURVE SMOOTH",
"111 484 OFFCURVE",
"134 450 OFFCURVE",
"168 425 CURVE SMOOTH",
"202 401 OFFCURVE",
"248 386 OFFCURVE",
"294 371 CURVE SMOOTH",
"339 356 OFFCURVE",
"385 341 OFFCURVE",
"419 316 CURVE SMOOTH",
"453 290 OFFCURVE",
"476 254 OFFCURVE",
"476 197 CURVE SMOOTH",
"476 140 OFFCURVE",
"456 89 OFFCURVE",
"420 52 CURVE SMOOTH",
"383 15 OFFCURVE",
"329 -8 OFFCURVE",
"261 -8 CURVE SMOOTH",
"214 -8 OFFCURVE",
"178 1 OFFCURVE",
"147 17 CURVE SMOOTH",
"116 32 OFFCURVE",
"90 55 OFFCURVE",
"66 83 CURVE",
"68 85 LINE SMOOTH",
"70 87 OFFCURVE",
"71 88 OFFCURVE",
"74 88 CURVE SMOOTH",
"76 88 OFFCURVE",
"79 86 OFFCURVE",
"83 82 CURVE",
"91 74 OFFCURVE",
"104 60 OFFCURVE",
"123 45 CURVE SMOOTH",
"141 31 OFFCURVE",
"168 17 OFFCURVE",
"203 9 CURVE SMOOTH",
"220 4 OFFCURVE",
"239 2 OFFCURVE",
"261 2 CURVE SMOOTH",
"326 2 OFFCURVE",
"377 25 OFFCURVE",
"412 60 CURVE SMOOTH",
"447 95 OFFCURVE",
"465 143 OFFCURVE",
"465 195 CURVE SMOOTH",
"465 239 OFFCURVE",
"451 271 OFFCURVE",
"427 294 CURVE SMOOTH",
"404 317 OFFCURVE",
"372 332 OFFCURVE",
"337 345 CURVE SMOOTH",
"319 352 OFFCURVE",
"301 358 OFFCURVE",
"283 363 CURVE SMOOTH",
"246 374 OFFCURVE",
"210 387 OFFCURVE",
"179 404 CURVE SMOOTH",
"148 421 OFFCURVE",
"124 445 OFFCURVE",
"111 479 CURVE SMOOTH",
"104 495 OFFCURVE",
"100 515 OFFCURVE",
"100 538 CURVE SMOOTH",
"100 583 OFFCURVE",
"117 625 OFFCURVE",
"149 657 CURVE SMOOTH",
"181 688 OFFCURVE",
"229 708 OFFCURVE",
"289 708 CURVE SMOOTH",
"357 708 OFFCURVE",
"407 687 OFFCURVE",
"453 639 CURVE"
);
},
{
closed = 1;
nodes = (
"420 901 LINE",
"304 769 LINE",
"296 769 LINE",
"180 901 LINE",
"190 901 LINE SMOOTH",
"193 901 OFFCURVE",
"196 901 OFFCURVE",
"200 897 CURVE",
"298 780 LINE",
"300 777 LINE",
"302 780 LINE",
"400 897 LINE",
"403 901 OFFCURVE",
"406 901 OFFCURVE",
"410 901 CURVE SMOOTH"
);
}
);
width = 551;
},
{
layerId = "F36DCCA2-8A71-42CF-9609-F852DF368EC0";
paths = (
{
closed = 1;
nodes = (
"474 605 LINE",
"468 595 OFFCURVE",
"462 590 OFFCURVE",
"452 590 CURVE SMOOTH",
"446 590 OFFCURVE",
"439 593 OFFCURVE",
"432 598 CURVE SMOOTH",
"416 610 OFFCURVE",
"394 624 OFFCURVE",
"362 636 CURVE SMOOTH",
"345 641 OFFCURVE",
"326 644 OFFCURVE",
"303 644 CURVE SMOOTH",
"259 644 OFFCURVE",
"226 632 OFFCURVE",
"204 612 CURVE SMOOTH",
"182 592 OFFCURVE",
"170 564 OFFCURVE",
"170 533 CURVE SMOOTH",
"170 493 OFFCURVE",
"192 468 OFFCURVE",
"224 449 CURVE SMOOTH",
"240 440 OFFCURVE",
"259 432 OFFCURVE",
"279 425 CURVE SMOOTH",
"320 411 OFFCURVE",
"364 397 OFFCURVE",
"405 379 CURVE SMOOTH",
"446 361 OFFCURVE",
"479 333 OFFCURVE",
"499 293 CURVE SMOOTH",
"509 272 OFFCURVE",
"514 247 OFFCURVE",
"514 218 CURVE SMOOTH",
"514 155 OFFCURVE",
"492 98 OFFCURVE",
"451 58 CURVE SMOOTH",
"410 17 OFFCURVE",
"350 -8 OFFCURVE",
"274 -8 CURVE SMOOTH",
"180 -8 OFFCURVE",
"103 28 OFFCURVE",
"49 86 CURVE",
"77 132 LINE",
"83 139 OFFCURVE",
"90 145 OFFCURVE",
"100 145 CURVE SMOOTH",
"108 145 OFFCURVE",
"119 137 OFFCURVE",
"133 126 CURVE SMOOTH",
"147 116 OFFCURVE",
"165 102 OFFCURVE",
"188 91 CURVE SMOOTH",
"211 81 OFFCURVE",
"240 73 OFFCURVE",
"277 73 CURVE SMOOTH",
"323 73 OFFCURVE",
"359 86 OFFCURVE",
"384 109 CURVE SMOOTH",
"409 132 OFFCURVE",
"423 164 OFFCURVE",
"423 204 CURVE SMOOTH",
"423 247 OFFCURVE",
"401 273 OFFCURVE",
"369 292 CURVE SMOOTH",
"353 301 OFFCURVE",
"335 309 OFFCURVE",
"314 316 CURVE SMOOTH",
"273 329 OFFCURVE",
"230 341 OFFCURVE",
"188 359 CURVE SMOOTH",
"147 377 OFFCURVE",
"114 405 OFFCURVE",
"95 448 CURVE SMOOTH",
"85 470 OFFCURVE",
"80 496 OFFCURVE",
"80 528 CURVE SMOOTH",
"80 578 OFFCURVE",
"100 628 OFFCURVE",
"138 664 CURVE SMOOTH",
"175 701 OFFCURVE",
"230 725 OFFCURVE",
"302 725 CURVE SMOOTH",
"382 725 OFFCURVE",
"448 699 OFFCURVE",
"498 651 CURVE"
);
},
{
closed = 1;
nodes = (
"471 909 LINE",
"352 773 LINE",
"269 773 LINE",
"150 909 LINE",
"215 909 LINE SMOOTH",
"223 909 OFFCURVE",
"235 909 OFFCURVE",
"243 897 CURVE",
"304 822 LINE",
"310 813 LINE",
"316 822 LINE",
"377 897 LINE",
"385 909 OFFCURVE",
"398 909 OFFCURVE",
"406 909 CURVE SMOOTH"
);
}
);
width = 573;
},
{
layerId = "A9E408DD-A955-440F-BEB6-B96F0772F152";
paths = (
{
closed = 1;
nodes = (
"484 592 LINE SMOOTH",
"476 578 OFFCURVE",
"468 572 OFFCURVE",
"454 572 CURVE SMOOTH",
"447 572 OFFCURVE",
"440 574 OFFCURVE",
"432 580 CURVE",
"415 590 OFFCURVE",
"393 604 OFFCURVE",
"363 614 CURVE SMOOTH",
"347 619 OFFCURVE",
"329 622 OFFCURVE",
"309 622 CURVE SMOOTH",
"271 622 OFFCURVE",
"244 612 OFFCURVE",
"225 596 CURVE SMOOTH",
"206 580 OFFCURVE",
"196 557 OFFCURVE",
"196 531 CURVE SMOOTH",
"196 497 OFFCURVE",
"217 475 OFFCURVE",
"248 459 CURVE SMOOTH",
"264 451 OFFCURVE",
"282 444 OFFCURVE",
"302 438 CURVE SMOOTH",
"342 425 OFFCURVE",
"385 412 OFFCURVE",
"425 393 CURVE SMOOTH",
"465 374 OFFCURVE",
"497 345 OFFCURVE",
"516 303 CURVE SMOOTH",
"526 282 OFFCURVE",
"530 257 OFFCURVE",
"530 227 CURVE SMOOTH",
"530 161 OFFCURVE",
"508 103 OFFCURVE",
"465 61 CURVE SMOOTH",
"422 18 OFFCURVE",
"359 -8 OFFCURVE",
"279 -8 CURVE SMOOTH",
"233 -8 OFFCURVE",
"188 2 OFFCURVE",
"147 18 CURVE SMOOTH",
"106 35 OFFCURVE",
"69 59 OFFCURVE",
"41 87 CURVE",
"81 152 LINE",
"87 161 OFFCURVE",
"99 168 OFFCURVE",
"111 168 CURVE SMOOTH",
"119 168 OFFCURVE",
"128 165 OFFCURVE",
"138 158 CURVE SMOOTH",
"157 144 OFFCURVE",
"183 126 OFFCURVE",
"219 113 CURVE SMOOTH",
"237 106 OFFCURVE",
"258 102 OFFCURVE",
"283 102 CURVE SMOOTH",
"360 102 OFFCURVE",
"404 140 OFFCURVE",
"404 208 CURVE SMOOTH",
"404 246 OFFCURVE",
"383 268 OFFCURVE",
"352 285 CURVE SMOOTH",
"336 293 OFFCURVE",
"318 300 OFFCURVE",
"298 305 CURVE SMOOTH",
"258 317 OFFCURVE",
"216 329 OFFCURVE",
"176 348 CURVE SMOOTH",
"136 366 OFFCURVE",
"104 396 OFFCURVE",
"85 441 CURVE SMOOTH",
"76 463 OFFCURVE",
"71 491 OFFCURVE",
"71 524 CURVE SMOOTH",
"71 576 OFFCURVE",
"92 629 OFFCURVE",
"132 667 CURVE SMOOTH",
"172 706 OFFCURVE",
"231 731 OFFCURVE",
"307 731 CURVE SMOOTH",
"393 731 OFFCURVE",
"467 703 OFFCURVE",
"517 655 CURVE"
);
},
{
closed = 1;
nodes = (
"493 912 LINE",
"373 775 LINE",
"257 775 LINE",
"136 912 LINE",
"226 912 LINE SMOOTH",
"236 912 OFFCURVE",
"251 912 OFFCURVE",
"263 897 CURVE SMOOTH",
"307 839 LINE",
"309 837 OFFCURVE",
"310 835 OFFCURVE",
"312 833 CURVE",
"313 831 OFFCURVE",
"314 829 OFFCURVE",
"315 828 CURVE",
"316 829 OFFCURVE",
"317 831 OFFCURVE",
"318 833 CURVE",
"319 835 OFFCURVE",
"321 837 OFFCURVE",
"322 839 CURVE",
"366 897 LINE SMOOTH",
"378 912 OFFCURVE",
"394 912 OFFCURVE",
"404 912 CURVE SMOOTH"
);
}
);
width = 582;
}
);
leftKerningGroup = S;
note = Scaron;
rightKerningGroup = S;
unicode = 0160;
},
{
glyphname = T;
lastChange = "2021-09-03 08:48:19 +0000";
layers = (
{
layerId = "7DA69401-B8BB-4CEF-A33A-65E5ADA83450";
paths = (
{
closed = 1;
nodes = (
"592 689 LINE",
"329 689 LINE",
"329 0 LINE",
"317 0 LINE",
"317 689 LINE",
"52 689 LINE",
"52 700 LINE",
"592 700 LINE"
);
}
);
width = 644;
},
{
layerId = "F36DCCA2-8A71-42CF-9609-F852DF368EC0";
paths = (
{
closed = 1;
nodes = (
"600 635 LINE",
"368 635 LINE",
"368 0 LINE",
"272 0 LINE",
"272 635 LINE",
"39 635 LINE",
"39 717 LINE",
"600 717 LINE"
);
}
);
width = 639;
},
{
layerId = "A9E408DD-A955-440F-BEB6-B96F0772F152";
paths = (
{
closed = 1;
nodes = (
"603 613 LINE",
"385 613 LINE",
"385 0 LINE",
"250 0 LINE",
"250 613 LINE",
"32 613 LINE",
"32 723 LINE",
"603 723 LINE"
);
}
);
width = 635;
}
);
leftKerningGroup = T;
note = T;
rightKerningGroup = T;
unicode = 0054;
},
{
glyphname = U;
lastChange = "2021-09-03 08:48:19 +0000";
layers = (
{
layerId = "7DA69401-B8BB-4CEF-A33A-65E5ADA83450";
paths = (
{
closed = 1;
nodes = (
"442 2 OFFCURVE",
"502 31 OFFCURVE",
"543 78 CURVE SMOOTH",
"585 124 OFFCURVE",
"607 189 OFFCURVE",
"607 260 CURVE SMOOTH",
"607 700 LINE",
"619 700 LINE",
"619 260 LINE SMOOTH",
"619 186 OFFCURVE",
"595 119 OFFCURVE",
"551 70 CURVE SMOOTH",
"507 22 OFFCURVE",
"444 -9 OFFCURVE",
"366 -9 CURVE SMOOTH",
"288 -9 OFFCURVE",
"225 22 OFFCURVE",
"181 70 CURVE SMOOTH",
"137 119 OFFCURVE",
"113 186 OFFCURVE",
"113 260 CURVE SMOOTH",
"113 700 LINE",
"125 700 LINE",
"125 261 LINE SMOOTH",
"125 190 OFFCURVE",
"148 125 OFFCURVE",
"189 78 CURVE SMOOTH",
"231 31 OFFCURVE",
"291 2 OFFCURVE",
"366 2 CURVE SMOOTH"
);
}
);
width = 732;
},
{
layerId = "F36DCCA2-8A71-42CF-9609-F852DF368EC0";
paths = (
{
closed = 1;
nodes = (
"437 77 OFFCURVE",
"484 98 OFFCURVE",
"516 134 CURVE SMOOTH",
"548 170 OFFCURVE",
"566 221 OFFCURVE",
"566 281 CURVE SMOOTH",
"566 717 LINE",
"662 717 LINE",
"662 281 LINE SMOOTH",
"662 199 OFFCURVE",
"635 126 OFFCURVE",
"586 75 CURVE SMOOTH",
"537 23 OFFCURVE",
"465 -9 OFFCURVE",
"377 -9 CURVE SMOOTH",
"289 -9 OFFCURVE",
"218 23 OFFCURVE",
"168 75 CURVE SMOOTH",
"119 126 OFFCURVE",
"92 199 OFFCURVE",
"92 281 CURVE SMOOTH",
"92 717 LINE",
"188 717 LINE",
"188 282 LINE SMOOTH",
"188 222 OFFCURVE",
"206 171 OFFCURVE",
"238 135 CURVE SMOOTH",
"270 99 OFFCURVE",
"318 77 OFFCURVE",
"377 77 CURVE SMOOTH"
);
}
);
width = 754;
},
{
layerId = "A9E408DD-A955-440F-BEB6-B96F0772F152";
paths = (
{
closed = 1;
nodes = (
"435 109 OFFCURVE",
"476 127 OFFCURVE",
"504 158 CURVE SMOOTH",
"532 190 OFFCURVE",
"548 235 OFFCURVE",
"548 290 CURVE SMOOTH",
"548 723 LINE",
"682 723 LINE",
"682 290 LINE SMOOTH",
"682 204 OFFCURVE",
"654 130 OFFCURVE",
"602 77 CURVE SMOOTH",
"550 24 OFFCURVE",
"475 -8 OFFCURVE",
"383 -8 CURVE SMOOTH",
"289 -8 OFFCURVE",
"215 24 OFFCURVE",
"163 77 CURVE SMOOTH",
"111 130 OFFCURVE",
"83 204 OFFCURVE",
"83 290 CURVE SMOOTH",
"83 723 LINE",
"217 723 LINE",
"217 291 LINE SMOOTH",
"217 235 OFFCURVE",
"233 190 OFFCURVE",
"261 159 CURVE SMOOTH",
"289 127 OFFCURVE",
"331 109 OFFCURVE",
"383 109 CURVE SMOOTH"
);
}
);
width = 765;
}
);
leftKerningGroup = U;
note = U;
rightKerningGroup = U;
unicode = 0055;
},
{
glyphname = Uacute;
lastChange = "2021-09-03 08:48:21 +0000";
layers = (
{
layerId = "7DA69401-B8BB-4CEF-A33A-65E5ADA83450";
paths = (
{
closed = 1;
nodes = (
"442 2 OFFCURVE",
"502 31 OFFCURVE",
"543 78 CURVE SMOOTH",
"585 124 OFFCURVE",
"607 189 OFFCURVE",
"607 260 CURVE SMOOTH",
"607 700 LINE",
"619 700 LINE",
"619 260 LINE SMOOTH",
"619 186 OFFCURVE",
"595 119 OFFCURVE",
"551 70 CURVE SMOOTH",
"507 22 OFFCURVE",
"444 -9 OFFCURVE",
"366 -9 CURVE SMOOTH",
"288 -9 OFFCURVE",
"225 22 OFFCURVE",
"181 70 CURVE SMOOTH",
"137 119 OFFCURVE",
"113 186 OFFCURVE",
"113 260 CURVE SMOOTH",
"113 700 LINE",
"125 700 LINE",
"125 261 LINE SMOOTH",
"125 190 OFFCURVE",
"148 125 OFFCURVE",
"189 78 CURVE SMOOTH",
"231 31 OFFCURVE",
"291 2 OFFCURVE",
"366 2 CURVE SMOOTH"
);
},
{
closed = 1;
nodes = (
"508 916 LINE",
"343 772 LINE",
"341 770 OFFCURVE",
"338 769 OFFCURVE",
"334 769 CURVE SMOOTH",
"328 769 LINE",
"469 909 LINE SMOOTH",
"474 915 OFFCURVE",
"478 916 OFFCURVE",
"490 916 CURVE SMOOTH"
);
}
);
width = 732;
},
{
layerId = "F36DCCA2-8A71-42CF-9609-F852DF368EC0";
paths = (
{
closed = 1;
nodes = (
"437 77 OFFCURVE",
"484 98 OFFCURVE",
"516 134 CURVE SMOOTH",
"548 170 OFFCURVE",
"566 221 OFFCURVE",
"566 281 CURVE SMOOTH",
"566 717 LINE",
"662 717 LINE",
"662 281 LINE SMOOTH",
"662 199 OFFCURVE",
"635 126 OFFCURVE",
"586 75 CURVE SMOOTH",
"537 23 OFFCURVE",
"465 -9 OFFCURVE",
"377 -9 CURVE SMOOTH",
"289 -9 OFFCURVE",
"218 23 OFFCURVE",
"168 75 CURVE SMOOTH",
"119 126 OFFCURVE",
"92 199 OFFCURVE",
"92 281 CURVE SMOOTH",
"92 717 LINE",
"188 717 LINE",
"188 282 LINE SMOOTH",
"188 222 OFFCURVE",
"206 171 OFFCURVE",
"238 135 CURVE SMOOTH",
"270 99 OFFCURVE",
"318 77 OFFCURVE",
"377 77 CURVE SMOOTH"
);
},
{
closed = 1;
nodes = (
"566 926 LINE",
"403 783 LINE",
"393 774 OFFCURVE",
"385 773 OFFCURVE",
"372 773 CURVE SMOOTH",
"308 773 LINE",
"423 910 LINE SMOOTH",
"435 925 OFFCURVE",
"444 926 OFFCURVE",
"466 926 CURVE SMOOTH"
);
}
);
width = 754;
},
{
layerId = "A9E408DD-A955-440F-BEB6-B96F0772F152";
paths = (
{
closed = 1;
nodes = (
"435 109 OFFCURVE",
"476 127 OFFCURVE",
"504 158 CURVE SMOOTH",
"532 190 OFFCURVE",
"548 235 OFFCURVE",
"548 290 CURVE SMOOTH",
"548 723 LINE",
"682 723 LINE",
"682 290 LINE SMOOTH",
"682 204 OFFCURVE",
"654 130 OFFCURVE",
"602 77 CURVE SMOOTH",
"550 24 OFFCURVE",
"475 -8 OFFCURVE",
"383 -8 CURVE SMOOTH",
"289 -8 OFFCURVE",
"215 24 OFFCURVE",
"163 77 CURVE SMOOTH",
"111 130 OFFCURVE",
"83 204 OFFCURVE",
"83 290 CURVE SMOOTH",
"83 723 LINE",
"217 723 LINE",
"217 291 LINE SMOOTH",
"217 235 OFFCURVE",
"233 190 OFFCURVE",
"261 159 CURVE SMOOTH",
"289 127 OFFCURVE",
"331 109 OFFCURVE",
"383 109 CURVE SMOOTH"
);
},
{
closed = 1;
nodes = (
"593 931 LINE",
"431 788 LINE SMOOTH",
"417 776 OFFCURVE",
"407 775 OFFCURVE",
"389 775 CURVE SMOOTH",
"299 775 LINE",
"404 910 LINE",
"410 920 OFFCURVE",
"417 925 OFFCURVE",
"425 928 CURVE SMOOTH",
"433 930 OFFCURVE",
"442 931 OFFCURVE",
"455 931 CURVE SMOOTH"
);
}
);
width = 765;
}
);
leftKerningGroup = U;
note = Uacute;
rightKerningGroup = U;
unicode = 00DA;
},
{
glyphname = Ucircumflex;
lastChange = "2021-09-03 08:48:21 +0000";
layers = (
{
layerId = "7DA69401-B8BB-4CEF-A33A-65E5ADA83450";
paths = (
{
closed = 1;
nodes = (
"442 2 OFFCURVE",
"502 31 OFFCURVE",
"543 78 CURVE SMOOTH",
"585 124 OFFCURVE",
"607 189 OFFCURVE",
"607 260 CURVE SMOOTH",
"607 700 LINE",
"619 700 LINE",
"619 260 LINE SMOOTH",
"619 186 OFFCURVE",
"595 119 OFFCURVE",
"551 70 CURVE SMOOTH",
"507 22 OFFCURVE",
"444 -9 OFFCURVE",
"366 -9 CURVE SMOOTH",
"288 -9 OFFCURVE",
"225 22 OFFCURVE",
"181 70 CURVE SMOOTH",
"137 119 OFFCURVE",
"113 186 OFFCURVE",
"113 260 CURVE SMOOTH",
"113 700 LINE",
"125 700 LINE",
"125 261 LINE SMOOTH",
"125 190 OFFCURVE",
"148 125 OFFCURVE",
"189 78 CURVE SMOOTH",
"231 31 OFFCURVE",
"291 2 OFFCURVE",
"366 2 CURVE SMOOTH"
);
},
{
closed = 1;
nodes = (
"486 769 LINE",
"476 769 LINE SMOOTH",
"473 769 OFFCURVE",
"470 770 OFFCURVE",
"466 773 CURVE",
"368 885 LINE",
"368 886 OFFCURVE",
"367 887 OFFCURVE",
"366 888 CURVE",
"366 887 OFFCURVE",
"365 886 OFFCURVE",
"364 885 CURVE",
"266 773 LINE",
"263 770 OFFCURVE",
"260 769 OFFCURVE",
"256 769 CURVE SMOOTH",
"246 769 LINE",
"362 901 LINE",
"370 901 LINE"
);
}
);
width = 732;
},
{
layerId = "F36DCCA2-8A71-42CF-9609-F852DF368EC0";
paths = (
{
closed = 1;
nodes = (
"437 77 OFFCURVE",
"484 98 OFFCURVE",
"516 134 CURVE SMOOTH",
"548 170 OFFCURVE",
"566 221 OFFCURVE",
"566 281 CURVE SMOOTH",
"566 717 LINE",
"662 717 LINE",
"662 281 LINE SMOOTH",
"662 199 OFFCURVE",
"635 126 OFFCURVE",
"586 75 CURVE SMOOTH",
"537 23 OFFCURVE",
"465 -9 OFFCURVE",
"377 -9 CURVE SMOOTH",
"289 -9 OFFCURVE",
"218 23 OFFCURVE",
"168 75 CURVE SMOOTH",
"119 126 OFFCURVE",
"92 199 OFFCURVE",
"92 281 CURVE SMOOTH",
"92 717 LINE",
"188 717 LINE",
"188 282 LINE SMOOTH",
"188 222 OFFCURVE",
"206 171 OFFCURVE",
"238 135 CURVE SMOOTH",
"270 99 OFFCURVE",
"318 77 OFFCURVE",
"377 77 CURVE SMOOTH"
);
},
{
closed = 1;
nodes = (
"538 773 LINE",
"473 773 LINE SMOOTH",
"465 773 OFFCURVE",
"453 774 OFFCURVE",
"442 788 CURVE SMOOTH",
"383 858 LINE",
"377 867 LINE",
"371 858 LINE",
"313 788 LINE SMOOTH",
"301 774 OFFCURVE",
"290 773 OFFCURVE",
"282 773 CURVE SMOOTH",
"219 773 LINE",
"339 909 LINE",
"419 909 LINE"
);
}
);
width = 754;
},
{
layerId = "A9E408DD-A955-440F-BEB6-B96F0772F152";
paths = (
{
closed = 1;
nodes = (
"435 109 OFFCURVE",
"476 127 OFFCURVE",
"504 158 CURVE SMOOTH",
"532 190 OFFCURVE",
"548 235 OFFCURVE",
"548 290 CURVE SMOOTH",
"548 723 LINE",
"682 723 LINE",
"682 290 LINE SMOOTH",
"682 204 OFFCURVE",
"654 130 OFFCURVE",
"602 77 CURVE SMOOTH",
"550 24 OFFCURVE",
"475 -8 OFFCURVE",
"383 -8 CURVE SMOOTH",
"289 -8 OFFCURVE",
"215 24 OFFCURVE",
"163 77 CURVE SMOOTH",
"111 130 OFFCURVE",
"83 204 OFFCURVE",
"83 290 CURVE SMOOTH",
"83 723 LINE",
"217 723 LINE",
"217 291 LINE SMOOTH",
"217 235 OFFCURVE",
"233 190 OFFCURVE",
"261 159 CURVE SMOOTH",
"289 127 OFFCURVE",
"331 109 OFFCURVE",
"383 109 CURVE SMOOTH"
);
},
{
closed = 1;
nodes = (
"561 775 LINE",
"472 775 LINE SMOOTH",
"462 775 OFFCURVE",
"447 776 OFFCURVE",
"431 794 CURVE",
"390 847 LINE SMOOTH",
"387 851 OFFCURVE",
"384 855 OFFCURVE",
"383 858 CURVE",
"381 855 OFFCURVE",
"379 851 OFFCURVE",
"375 847 CURVE SMOOTH",
"334 794 LINE",
"319 776 OFFCURVE",
"304 775 OFFCURVE",
"294 775 CURVE SMOOTH",
"208 775 LINE",
"329 912 LINE",
"441 912 LINE"
);
}
);
width = 765;
}
);
leftKerningGroup = U;
note = Ucircumflex;
rightKerningGroup = U;
unicode = 00DB;
},
{
glyphname = Udieresis;
lastChange = "2021-09-03 08:48:18 +0000";
layers = (
{
layerId = "7DA69401-B8BB-4CEF-A33A-65E5ADA83450";
paths = (
{
closed = 1;
nodes = (
"442 2 OFFCURVE",
"502 31 OFFCURVE",
"543 78 CURVE SMOOTH",
"585 124 OFFCURVE",
"607 189 OFFCURVE",
"607 260 CURVE SMOOTH",
"607 700 LINE",
"619 700 LINE",
"619 260 LINE SMOOTH",
"619 186 OFFCURVE",
"595 119 OFFCURVE",
"551 70 CURVE SMOOTH",
"507 22 OFFCURVE",
"444 -9 OFFCURVE",
"366 -9 CURVE SMOOTH",
"288 -9 OFFCURVE",
"225 22 OFFCURVE",
"181 70 CURVE SMOOTH",
"137 119 OFFCURVE",
"113 186 OFFCURVE",
"113 260 CURVE SMOOTH",
"113 700 LINE",
"125 700 LINE",
"125 261 LINE SMOOTH",
"125 190 OFFCURVE",
"148 125 OFFCURVE",
"189 78 CURVE SMOOTH",
"231 31 OFFCURVE",
"291 2 OFFCURVE",
"366 2 CURVE SMOOTH"
);
},
{
closed = 1;
nodes = (
"302 818 OFFCURVE",
"288 805 OFFCURVE",
"274 805 CURVE SMOOTH",
"259 805 OFFCURVE",
"246 818 OFFCURVE",
"246 832 CURVE SMOOTH",
"246 848 OFFCURVE",
"259 860 OFFCURVE",
"274 860 CURVE SMOOTH",
"288 860 OFFCURVE",
"302 848 OFFCURVE",
"302 832 CURVE SMOOTH"
);
},
{
closed = 1;
nodes = (
"486 818 OFFCURVE",
"472 805 OFFCURVE",
"458 805 CURVE SMOOTH",
"443 805 OFFCURVE",
"430 818 OFFCURVE",
"430 832 CURVE SMOOTH",
"430 848 OFFCURVE",
"443 860 OFFCURVE",
"458 860 CURVE SMOOTH",
"472 860 OFFCURVE",
"486 848 OFFCURVE",
"486 832 CURVE SMOOTH"
);
}
);
width = 732;
},
{
layerId = "F36DCCA2-8A71-42CF-9609-F852DF368EC0";
paths = (
{
closed = 1;
nodes = (
"437 77 OFFCURVE",
"484 98 OFFCURVE",
"516 134 CURVE SMOOTH",
"548 170 OFFCURVE",
"566 221 OFFCURVE",
"566 281 CURVE SMOOTH",
"566 717 LINE",
"662 717 LINE",
"662 281 LINE SMOOTH",
"662 199 OFFCURVE",
"635 126 OFFCURVE",
"586 75 CURVE SMOOTH",
"537 23 OFFCURVE",
"465 -9 OFFCURVE",
"377 -9 CURVE SMOOTH",
"289 -9 OFFCURVE",
"218 23 OFFCURVE",
"168 75 CURVE SMOOTH",
"119 126 OFFCURVE",
"92 199 OFFCURVE",
"92 281 CURVE SMOOTH",
"92 717 LINE",
"188 717 LINE",
"188 282 LINE SMOOTH",
"188 222 OFFCURVE",
"206 171 OFFCURVE",
"238 135 CURVE SMOOTH",
"270 99 OFFCURVE",
"318 77 OFFCURVE",
"377 77 CURVE SMOOTH"
);
},
{
closed = 1;
nodes = (
"328 819 OFFCURVE",
"321 805 OFFCURVE",
"311 795 CURVE SMOOTH",
"301 785 OFFCURVE",
"286 779 OFFCURVE",
"272 779 CURVE SMOOTH",
"258 779 OFFCURVE",
"244 785 OFFCURVE",
"234 795 CURVE SMOOTH",
"224 805 OFFCURVE",
"218 819 OFFCURVE",
"218 833 CURVE SMOOTH",
"218 849 OFFCURVE",
"224 863 OFFCURVE",
"234 873 CURVE SMOOTH",
"244 883 OFFCURVE",
"258 889 OFFCURVE",
"272 889 CURVE SMOOTH",
"286 889 OFFCURVE",
"301 883 OFFCURVE",
"311 873 CURVE SMOOTH",
"321 863 OFFCURVE",
"328 849 OFFCURVE",
"328 833 CURVE SMOOTH"
);
},
{
closed = 1;
nodes = (
"537 819 OFFCURVE",
"530 805 OFFCURVE",
"520 795 CURVE SMOOTH",
"510 785 OFFCURVE",
"496 779 OFFCURVE",
"482 779 CURVE SMOOTH",
"466 779 OFFCURVE",
"453 785 OFFCURVE",
"443 795 CURVE SMOOTH",
"433 805 OFFCURVE",
"427 819 OFFCURVE",
"427 833 CURVE SMOOTH",
"427 849 OFFCURVE",
"433 863 OFFCURVE",
"443 873 CURVE SMOOTH",
"453 883 OFFCURVE",
"466 889 OFFCURVE",
"482 889 CURVE SMOOTH",
"496 889 OFFCURVE",
"510 883 OFFCURVE",
"520 873 CURVE SMOOTH",
"530 863 OFFCURVE",
"537 849 OFFCURVE",
"537 833 CURVE SMOOTH"
);
}
);
width = 754;
},
{
layerId = "A9E408DD-A955-440F-BEB6-B96F0772F152";
paths = (
{
closed = 1;
nodes = (
"435 109 OFFCURVE",
"476 127 OFFCURVE",
"504 158 CURVE SMOOTH",
"532 190 OFFCURVE",
"548 235 OFFCURVE",
"548 290 CURVE SMOOTH",
"548 723 LINE",
"682 723 LINE",
"682 290 LINE SMOOTH",
"682 204 OFFCURVE",
"654 130 OFFCURVE",
"602 77 CURVE SMOOTH",
"550 24 OFFCURVE",
"475 -8 OFFCURVE",
"383 -8 CURVE SMOOTH",
"289 -8 OFFCURVE",
"215 24 OFFCURVE",
"163 77 CURVE SMOOTH",
"111 130 OFFCURVE",
"83 204 OFFCURVE",
"83 290 CURVE SMOOTH",
"83 723 LINE",
"217 723 LINE",
"217 291 LINE SMOOTH",
"217 235 OFFCURVE",
"233 190 OFFCURVE",
"261 159 CURVE SMOOTH",
"289 127 OFFCURVE",
"331 109 OFFCURVE",
"383 109 CURVE SMOOTH"
);
},
{
closed = 1;
nodes = (
"340 816 OFFCURVE",
"332 799 OFFCURVE",
"320 787 CURVE SMOOTH",
"307 775 OFFCURVE",
"290 768 OFFCURVE",
"271 768 CURVE SMOOTH",
"254 768 OFFCURVE",
"238 775 OFFCURVE",
"226 787 CURVE SMOOTH",
"214 799 OFFCURVE",
"206 816 OFFCURVE",
"206 834 CURVE SMOOTH",
"206 852 OFFCURVE",
"214 869 OFFCURVE",
"226 881 CURVE SMOOTH",
"238 893 OFFCURVE",
"254 901 OFFCURVE",
"271 901 CURVE SMOOTH",
"290 901 OFFCURVE",
"307 893 OFFCURVE",
"320 881 CURVE",
"332 869 OFFCURVE",
"340 852 OFFCURVE",
"340 834 CURVE SMOOTH"
);
},
{
closed = 1;
nodes = (
"560 816 OFFCURVE",
"552 799 OFFCURVE",
"540 787 CURVE SMOOTH",
"528 775 OFFCURVE",
"511 768 OFFCURVE",
"493 768 CURVE SMOOTH",
"474 768 OFFCURVE",
"457 775 OFFCURVE",
"445 787 CURVE SMOOTH",
"433 799 OFFCURVE",
"426 816 OFFCURVE",
"426 834 CURVE SMOOTH",
"426 852 OFFCURVE",
"433 869 OFFCURVE",
"445 881 CURVE SMOOTH",
"457 893 OFFCURVE",
"474 901 OFFCURVE",
"493 901 CURVE SMOOTH",
"511 901 OFFCURVE",
"528 893 OFFCURVE",
"540 881 CURVE",
"552 869 OFFCURVE",
"560 852 OFFCURVE",
"560 834 CURVE SMOOTH"
);
}
);
width = 765;
}
);
leftKerningGroup = U;
note = Udieresis;
rightKerningGroup = U;
unicode = 00DC;
},
{
glyphname = Ugrave;
lastChange = "2021-09-03 08:48:19 +0000";
layers = (
{
layerId = "7DA69401-B8BB-4CEF-A33A-65E5ADA83450";
paths = (
{
closed = 1;
nodes = (
"442 2 OFFCURVE",
"502 31 OFFCURVE",
"543 78 CURVE SMOOTH",
"585 124 OFFCURVE",
"607 189 OFFCURVE",
"607 260 CURVE SMOOTH",
"607 700 LINE",
"619 700 LINE",
"619 260 LINE SMOOTH",
"619 186 OFFCURVE",
"595 119 OFFCURVE",
"551 70 CURVE SMOOTH",
"507 22 OFFCURVE",
"444 -9 OFFCURVE",
"366 -9 CURVE SMOOTH",
"288 -9 OFFCURVE",
"225 22 OFFCURVE",
"181 70 CURVE SMOOTH",
"137 119 OFFCURVE",
"113 186 OFFCURVE",
"113 260 CURVE SMOOTH",
"113 700 LINE",
"125 700 LINE",
"125 261 LINE SMOOTH",
"125 190 OFFCURVE",
"148 125 OFFCURVE",
"189 78 CURVE SMOOTH",
"231 31 OFFCURVE",
"291 2 OFFCURVE",
"366 2 CURVE SMOOTH"
);
},
{
closed = 1;
nodes = (
"263 916 LINE SMOOTH",
"274 916 OFFCURVE",
"278 915 OFFCURVE",
"284 909 CURVE SMOOTH",
"408 769 LINE",
"402 769 LINE SMOOTH",
"399 769 OFFCURVE",
"396 770 OFFCURVE",
"393 772 CURVE SMOOTH",
"245 916 LINE"
);
}
);
width = 732;
},
{
layerId = "F36DCCA2-8A71-42CF-9609-F852DF368EC0";
paths = (
{
closed = 1;
nodes = (
"437 77 OFFCURVE",
"484 98 OFFCURVE",
"516 134 CURVE SMOOTH",
"548 170 OFFCURVE",
"566 221 OFFCURVE",
"566 281 CURVE SMOOTH",
"566 717 LINE",
"662 717 LINE",
"662 281 LINE SMOOTH",
"662 199 OFFCURVE",
"635 126 OFFCURVE",
"586 75 CURVE SMOOTH",
"537 23 OFFCURVE",
"465 -9 OFFCURVE",
"377 -9 CURVE SMOOTH",
"289 -9 OFFCURVE",
"218 23 OFFCURVE",
"168 75 CURVE SMOOTH",
"119 126 OFFCURVE",
"92 199 OFFCURVE",
"92 281 CURVE SMOOTH",
"92 717 LINE",
"188 717 LINE",
"188 282 LINE SMOOTH",
"188 222 OFFCURVE",
"206 171 OFFCURVE",
"238 135 CURVE SMOOTH",
"270 99 OFFCURVE",
"318 77 OFFCURVE",
"377 77 CURVE SMOOTH"
);
},
{
closed = 1;
nodes = (
"289 926 LINE SMOOTH",
"311 926 OFFCURVE",
"319 925 OFFCURVE",
"331 910 CURVE SMOOTH",
"445 773 LINE",
"381 773 LINE SMOOTH",
"366 773 OFFCURVE",
"360 773 OFFCURVE",
"350 783 CURVE SMOOTH",
"194 926 LINE"
);
}
);
width = 754;
},
{
layerId = "A9E408DD-A955-440F-BEB6-B96F0772F152";
paths = (
{
closed = 1;
nodes = (
"435 109 OFFCURVE",
"476 127 OFFCURVE",
"504 158 CURVE SMOOTH",
"532 190 OFFCURVE",
"548 235 OFFCURVE",
"548 290 CURVE SMOOTH",
"548 723 LINE",
"682 723 LINE",
"682 290 LINE SMOOTH",
"682 204 OFFCURVE",
"654 130 OFFCURVE",
"602 77 CURVE SMOOTH",
"550 24 OFFCURVE",
"475 -8 OFFCURVE",
"383 -8 CURVE SMOOTH",
"289 -8 OFFCURVE",
"215 24 OFFCURVE",
"163 77 CURVE SMOOTH",
"111 130 OFFCURVE",
"83 204 OFFCURVE",
"83 290 CURVE SMOOTH",
"83 723 LINE",
"217 723 LINE",
"217 291 LINE SMOOTH",
"217 235 OFFCURVE",
"233 190 OFFCURVE",
"261 159 CURVE SMOOTH",
"289 127 OFFCURVE",
"331 109 OFFCURVE",
"383 109 CURVE SMOOTH"
);
},
{
closed = 1;
nodes = (
"301 931 LINE SMOOTH",
"314 931 OFFCURVE",
"323 931 OFFCURVE",
"331 928 CURVE SMOOTH",
"339 925 OFFCURVE",
"345 920 OFFCURVE",
"352 910 CURVE SMOOTH",
"461 775 LINE",
"372 775 LINE SMOOTH",
"352 775 OFFCURVE",
"344 775 OFFCURVE",
"331 787 CURVE SMOOTH",
"171 931 LINE"
);
}
);
width = 765;
}
);
leftKerningGroup = U;
note = Ugrave;
rightKerningGroup = U;
unicode = 00D9;
},
{
glyphname = V;
lastChange = "2021-09-03 08:48:18 +0000";
layers = (
{
layerId = "7DA69401-B8BB-4CEF-A33A-65E5ADA83450";
paths = (
{
closed = 1;
nodes = (
"652 700 LINE",
"360 0 LINE",
"350 0 LINE",
"58 700 LINE",
"67 700 LINE SMOOTH",
"70 700 OFFCURVE",
"72 699 OFFCURVE",
"73 695 CURVE",
"347 37 LINE SMOOTH",
"348 34 OFFCURVE",
"350 30 OFFCURVE",
"351 27 CURVE",
"352 23 OFFCURVE",
"353 20 OFFCURVE",
"355 16 CURVE",
"356 20 OFFCURVE",
"357 23 OFFCURVE",
"359 27 CURVE",
"360 30 OFFCURVE",
"361 34 OFFCURVE",
"363 37 CURVE SMOOTH",
"637 695 LINE",
"638 699 OFFCURVE",
"640 700 OFFCURVE",
"644 700 CURVE SMOOTH"
);
}
);
width = 710;
},
{
layerId = "F36DCCA2-8A71-42CF-9609-F852DF368EC0";
paths = (
{
closed = 1;
nodes = (
"708 717 LINE",
"416 0 LINE",
"329 0 LINE",
"37 717 LINE",
"115 717 LINE SMOOTH",
"132 717 OFFCURVE",
"142 707 OFFCURVE",
"148 694 CURVE SMOOTH",
"350 188 LINE SMOOTH",
"358 166 OFFCURVE",
"367 139 OFFCURVE",
"374 109 CURVE",
"380 139 OFFCURVE",
"388 166 OFFCURVE",
"396 188 CURVE SMOOTH",
"598 694 LINE",
"602 705 OFFCURVE",
"614 717 OFFCURVE",
"631 717 CURVE SMOOTH"
);
}
);
width = 745;
},
{
layerId = "A9E408DD-A955-440F-BEB6-B96F0772F152";
paths = (
{
closed = 1;
nodes = (
"733 723 LINE",
"441 0 LINE",
"320 0 LINE",
"28 723 LINE",
"136 723 LINE SMOOTH",
"159 723 OFFCURVE",
"173 711 OFFCURVE",
"181 693 CURVE SMOOTH",
"351 252 LINE SMOOTH",
"363 223 OFFCURVE",
"373 188 OFFCURVE",
"382 151 CURVE",
"390 188 OFFCURVE",
"399 223 OFFCURVE",
"411 252 CURVE SMOOTH",
"580 693 LINE SMOOTH",
"586 708 OFFCURVE",
"602 723 OFFCURVE",
"625 723 CURVE SMOOTH"
);
}
);
width = 761;
}
);
leftKerningGroup = V;
note = V;
rightKerningGroup = V;
unicode = 0056;
},
{
glyphname = W;
lastChange = "2021-09-03 08:48:20 +0000";
layers = (
{
layerId = "7DA69401-B8BB-4CEF-A33A-65E5ADA83450";
paths = (
{
closed = 1;
nodes = (
"1001 700 LINE",
"779 0 LINE",
"769 0 LINE",
"536 672 LINE",
"535 676 OFFCURVE",
"534 679 OFFCURVE",
"534 681 CURVE SMOOTH",
"533 684 OFFCURVE",
"532 686 OFFCURVE",
"532 688 CURVE",
"531 684 OFFCURVE",
"529 679 OFFCURVE",
"527 672 CURVE",
"294 0 LINE",
"284 0 LINE",
"62 700 LINE",
"71 700 LINE SMOOTH",
"74 700 OFFCURVE",
"76 699 OFFCURVE",
"77 695 CURVE SMOOTH",
"282 42 LINE SMOOTH",
"284 34 OFFCURVE",
"287 25 OFFCURVE",
"289 15 CURVE",
"292 25 OFFCURVE",
"294 34 OFFCURVE",
"297 42 CURVE SMOOTH",
"524 695 LINE",
"525 699 OFFCURVE",
"528 700 OFFCURVE",
"531 700 CURVE SMOOTH",
"533 700 LINE SMOOTH",
"536 700 OFFCURVE",
"538 699 OFFCURVE",
"539 695 CURVE",
"767 42 LINE SMOOTH",
"769 34 OFFCURVE",
"772 25 OFFCURVE",
"774 15 CURVE",
"777 25 OFFCURVE",
"779 34 OFFCURVE",
"782 42 CURVE SMOOTH",
"986 695 LINE SMOOTH",
"987 699 OFFCURVE",
"990 700 OFFCURVE",
"993 700 CURVE SMOOTH"
);
}
);
width = 1063;
},
{
layerId = "F36DCCA2-8A71-42CF-9609-F852DF368EC0";
paths = (
{
closed = 1;
nodes = (
"1045 717 LINE",
"822 0 LINE",
"735 0 LINE",
"553 547 LINE SMOOTH",
"550 557 OFFCURVE",
"547 569 OFFCURVE",
"544 583 CURVE",
"540 569 OFFCURVE",
"537 557 OFFCURVE",
"534 547 CURVE SMOOTH",
"351 0 LINE",
"264 0 LINE",
"41 717 LINE",
"121 717 LINE SMOOTH",
"139 717 OFFCURVE",
"151 707 OFFCURVE",
"154 694 CURVE",
"302 196 LINE",
"307 178 OFFCURVE",
"311 157 OFFCURVE",
"315 134 CURVE",
"320 157 OFFCURVE",
"325 178 OFFCURVE",
"331 196 CURVE SMOOTH",
"499 694 LINE SMOOTH",
"503 705 OFFCURVE",
"516 717 OFFCURVE",
"532 717 CURVE SMOOTH",
"560 717 LINE SMOOTH",
"578 717 OFFCURVE",
"588 707 OFFCURVE",
"593 694 CURVE",
"761 196 LINE SMOOTH",
"767 178 OFFCURVE",
"772 158 OFFCURVE",
"777 136 CURVE",
"780 158 OFFCURVE",
"784 178 OFFCURVE",
"789 196 CURVE",
"937 694 LINE SMOOTH",
"941 706 OFFCURVE",
"953 717 OFFCURVE",
"970 717 CURVE SMOOTH"
);
}
);
width = 1086;
},
{
layerId = "A9E408DD-A955-440F-BEB6-B96F0772F152";
paths = (
{
closed = 1;
nodes = (
"1065 723 LINE",
"840 0 LINE",
"719 0 LINE",
"561 494 LINE",
"556 506 OFFCURVE",
"552 521 OFFCURVE",
"549 538 CURVE",
"545 522 OFFCURVE",
"541 507 OFFCURVE",
"536 494 CURVE SMOOTH",
"377 0 LINE",
"255 0 LINE",
"31 723 LINE",
"143 723 LINE SMOOTH",
"167 723 OFFCURVE",
"183 711 OFFCURVE",
"188 693 CURVE SMOOTH",
"311 260 LINE SMOOTH",
"317 239 OFFCURVE",
"321 214 OFFCURVE",
"327 186 CURVE",
"332 214 OFFCURVE",
"338 239 OFFCURVE",
"346 260 CURVE SMOOTH",
"488 693 LINE SMOOTH",
"493 708 OFFCURVE",
"510 723 OFFCURVE",
"532 723 CURVE SMOOTH",
"572 723 LINE SMOOTH",
"595 723 OFFCURVE",
"609 711 OFFCURVE",
"617 693 CURVE",
"758 260 LINE SMOOTH",
"765 240 OFFCURVE",
"772 216 OFFCURVE",
"777 189 CURVE",
"782 215 OFFCURVE",
"786 239 OFFCURVE",
"792 260 CURVE SMOOTH",
"915 693 LINE",
"919 709 OFFCURVE",
"937 723 OFFCURVE",
"959 723 CURVE SMOOTH"
);
}
);
width = 1096;
}
);
leftKerningGroup = W;
note = W;
rightKerningGroup = W;
unicode = 0057;
},
{
glyphname = X;
lastChange = "2021-09-03 08:52:14 +0000";
layers = (
{
layerId = "7DA69401-B8BB-4CEF-A33A-65E5ADA83450";
paths = (
{
closed = 1;
nodes = (
"602 0 LINE",
"591 0 LINE SMOOTH",
"589 0 OFFCURVE",
"587 1 OFFCURVE",
"586 3 CURVE",
"584 5 OFFCURVE",
"583 6 OFFCURVE",
"582 7 CURVE",
"332 353 LINE",
"331 352 OFFCURVE",
"331 351 OFFCURVE",
"330 350 CURVE SMOOTH",
"330 349 OFFCURVE",
"329 348 OFFCURVE",
"327 346 CURVE",
"80 7 LINE",
"79 6 OFFCURVE",
"77 4 OFFCURVE",
"76 3 CURVE",
"75 1 OFFCURVE",
"73 0 OFFCURVE",
"71 0 CURVE SMOOTH",
"60 0 LINE",
"324 359 LINE",
"72 700 LINE",
"83 700 LINE SMOOTH",
"86 700 OFFCURVE",
"88 699 OFFCURVE",
"89 698 CURVE",
"90 696 OFFCURVE",
"91 694 OFFCURVE",
"92 693 CURVE",
"332 365 LINE",
"332 366 OFFCURVE",
"333 367 OFFCURVE",
"334 368 CURVE SMOOTH",
"334 369 OFFCURVE",
"335 371 OFFCURVE",
"336 372 CURVE",
"570 693 LINE",
"572 697 OFFCURVE",
"575 700 OFFCURVE",
"579 700 CURVE SMOOTH",
"590 700 LINE",
"340 360 LINE"
);
}
);
width = 661;
},
{
layerId = "F36DCCA2-8A71-42CF-9609-F852DF368EC0";
paths = (
{
closed = 1;
nodes = (
"668 0 LINE",
"572 0 LINE SMOOTH",
"558 0 OFFCURVE",
"550 9 OFFCURVE",
"545 19 CURVE",
"353 320 LINE",
"350 312 OFFCURVE",
"347 305 OFFCURVE",
"344 299 CURVE SMOOTH",
"157 19 LINE SMOOTH",
"150 9 OFFCURVE",
"144 0 OFFCURVE",
"130 0 CURVE SMOOTH",
"40 0 LINE",
"287 368 LINE",
"50 717 LINE",
"147 717 LINE SMOOTH",
"161 717 OFFCURVE",
"166 712 OFFCURVE",
"171 703 CURVE SMOOTH",
"358 416 LINE",
"361 423 OFFCURVE",
"364 431 OFFCURVE",
"369 439 CURVE",
"545 701 LINE",
"551 711 OFFCURVE",
"558 717 OFFCURVE",
"568 717 CURVE SMOOTH",
"660 717 LINE",
"423 373 LINE"
);
}
);
width = 707;
},
{
layerId = "A9E408DD-A955-440F-BEB6-B96F0772F152";
paths = (
{
closed = 1;
nodes = (
"697 0 LINE",
"563 0 LINE SMOOTH",
"545 0 OFFCURVE",
"534 11 OFFCURVE",
"528 23 CURVE",
"360 301 LINE",
"358 292 OFFCURVE",
"354 285 OFFCURVE",
"351 279 CURVE SMOOTH",
"190 23 LINE",
"182 12 OFFCURVE",
"173 0 OFFCURVE",
"156 0 CURVE SMOOTH",
"31 0 LINE",
"271 372 LINE",
"40 723 LINE",
"174 723 LINE SMOOTH",
"193 723 OFFCURVE",
"199 719 OFFCURVE",
"206 707 CURVE SMOOTH",
"371 442 LINE",
"374 451 OFFCURVE",
"378 459 OFFCURVE",
"383 467 CURVE",
"534 705 LINE SMOOTH",
"541 717 OFFCURVE",
"549 723 OFFCURVE",
"562 723 CURVE SMOOTH",
"691 723 LINE",
"458 378 LINE"
);
}
);
width = 728;
}
);
leftKerningGroup = X;
note = X;
rightKerningGroup = X;
unicode = 0058;
},
{
glyphname = Y;
lastChange = "2021-09-03 08:48:20 +0000";
layers = (
{
layerId = "7DA69401-B8BB-4CEF-A33A-65E5ADA83450";
paths = (
{
closed = 1;
nodes = (
"327 298 LINE",
"327 0 LINE",
"315 0 LINE",
"315 298 LINE",
"54 700 LINE",
"64 700 LINE SMOOTH",
"67 700 OFFCURVE",
"70 699 OFFCURVE",
"71 696 CURVE SMOOTH",
"307 331 LINE",
"309 327 OFFCURVE",
"312 323 OFFCURVE",
"315 319 CURVE",
"317 315 OFFCURVE",
"320 311 OFFCURVE",
"321 307 CURVE",
"323 311 OFFCURVE",
"326 315 OFFCURVE",
"328 319 CURVE",
"331 323 OFFCURVE",
"333 327 OFFCURVE",
"336 331 CURVE",
"571 696 LINE SMOOTH",
"573 699 OFFCURVE",
"575 700 OFFCURVE",
"578 700 CURVE SMOOTH",
"588 700 LINE"
);
}
);
width = 642;
},
{
layerId = "F36DCCA2-8A71-42CF-9609-F852DF368EC0";
paths = (
{
closed = 1;
nodes = (
"393 286 LINE",
"393 0 LINE",
"296 0 LINE",
"296 286 LINE",
"33 717 LINE",
"118 717 LINE SMOOTH",
"136 717 OFFCURVE",
"144 708 OFFCURVE",
"152 694 CURVE SMOOTH",
"316 416 LINE",
"328 392 OFFCURVE",
"338 373 OFFCURVE",
"345 352 CURVE",
"353 373 OFFCURVE",
"362 392 OFFCURVE",
"373 416 CURVE",
"537 694 LINE",
"543 706 OFFCURVE",
"553 717 OFFCURVE",
"570 717 CURVE SMOOTH",
"655 717 LINE"
);
}
);
width = 688;
},
{
layerId = "A9E408DD-A955-440F-BEB6-B96F0772F152";
paths = (
{
closed = 1;
nodes = (
"422 280 LINE",
"422 0 LINE",
"288 0 LINE",
"288 280 LINE",
"24 723 LINE",
"143 723 LINE SMOOTH",
"167 723 OFFCURVE",
"179 711 OFFCURVE",
"188 693 CURVE SMOOTH",
"320 452 LINE SMOOTH",
"336 423 OFFCURVE",
"347 399 OFFCURVE",
"356 373 CURVE",
"365 399 OFFCURVE",
"376 423 OFFCURVE",
"391 452 CURVE SMOOTH",
"522 693 LINE SMOOTH",
"530 708 OFFCURVE",
"544 723 OFFCURVE",
"567 723 CURVE SMOOTH",
"686 723 LINE"
);
}
);
width = 710;
}
);
leftKerningGroup = Y;
note = Y;
rightKerningGroup = Y;
unicode = 0059;
},
{
glyphname = Yacute;
lastChange = "2021-09-03 08:48:20 +0000";
layers = (
{
layerId = "7DA69401-B8BB-4CEF-A33A-65E5ADA83450";
paths = (
{
closed = 1;
nodes = (
"327 298 LINE",
"327 0 LINE",
"315 0 LINE",
"315 298 LINE",
"54 700 LINE",
"64 700 LINE SMOOTH",
"67 700 OFFCURVE",
"70 699 OFFCURVE",
"71 696 CURVE SMOOTH",
"307 331 LINE",
"309 327 OFFCURVE",
"312 323 OFFCURVE",
"315 319 CURVE",
"317 315 OFFCURVE",
"320 311 OFFCURVE",
"321 307 CURVE",
"323 311 OFFCURVE",
"326 315 OFFCURVE",
"328 319 CURVE",
"331 323 OFFCURVE",
"333 327 OFFCURVE",
"336 331 CURVE",
"571 696 LINE SMOOTH",
"573 699 OFFCURVE",
"575 700 OFFCURVE",
"578 700 CURVE SMOOTH",
"588 700 LINE"
);
},
{
closed = 1;
nodes = (
"463 916 LINE",
"298 772 LINE",
"296 770 OFFCURVE",
"293 769 OFFCURVE",
"289 769 CURVE SMOOTH",
"283 769 LINE",
"424 909 LINE SMOOTH",
"429 915 OFFCURVE",
"433 916 OFFCURVE",
"445 916 CURVE SMOOTH"
);
}
);
width = 642;
},
{
layerId = "F36DCCA2-8A71-42CF-9609-F852DF368EC0";
paths = (
{
closed = 1;
nodes = (
"393 286 LINE",
"393 0 LINE",
"296 0 LINE",
"296 286 LINE",
"33 717 LINE",
"118 717 LINE SMOOTH",
"136 717 OFFCURVE",
"144 708 OFFCURVE",
"152 694 CURVE SMOOTH",
"316 416 LINE",
"328 392 OFFCURVE",
"338 373 OFFCURVE",
"345 352 CURVE",
"353 373 OFFCURVE",
"362 392 OFFCURVE",
"373 416 CURVE",
"537 694 LINE",
"543 706 OFFCURVE",
"553 717 OFFCURVE",
"570 717 CURVE SMOOTH",
"655 717 LINE"
);
},
{
closed = 1;
nodes = (
"534 926 LINE",
"371 783 LINE",
"361 774 OFFCURVE",
"353 773 OFFCURVE",
"340 773 CURVE SMOOTH",
"276 773 LINE",
"391 910 LINE SMOOTH",
"403 925 OFFCURVE",
"412 926 OFFCURVE",
"434 926 CURVE SMOOTH"
);
}
);
width = 688;
},
{
layerId = "A9E408DD-A955-440F-BEB6-B96F0772F152";
paths = (
{
closed = 1;
nodes = (
"422 280 LINE",
"422 0 LINE",
"288 0 LINE",
"288 280 LINE",
"24 723 LINE",
"143 723 LINE SMOOTH",
"167 723 OFFCURVE",
"179 711 OFFCURVE",
"188 693 CURVE SMOOTH",
"320 452 LINE SMOOTH",
"336 423 OFFCURVE",
"347 399 OFFCURVE",
"356 373 CURVE",
"365 399 OFFCURVE",
"376 423 OFFCURVE",
"391 452 CURVE SMOOTH",
"522 693 LINE SMOOTH",
"530 708 OFFCURVE",
"544 723 OFFCURVE",
"567 723 CURVE SMOOTH",
"686 723 LINE"
);
},
{
closed = 1;
nodes = (
"567 931 LINE",
"405 788 LINE SMOOTH",
"391 776 OFFCURVE",
"381 775 OFFCURVE",
"363 775 CURVE SMOOTH",
"273 775 LINE",
"378 910 LINE",
"384 920 OFFCURVE",
"391 925 OFFCURVE",
"399 928 CURVE SMOOTH",
"407 930 OFFCURVE",
"416 931 OFFCURVE",
"429 931 CURVE SMOOTH"
);
}
);
width = 710;
}
);
leftKerningGroup = Y;
note = Yacute;
rightKerningGroup = Y;
unicode = 00DD;
},
{
glyphname = Ydieresis;
lastChange = "2021-09-03 08:48:18 +0000";
layers = (
{
layerId = "7DA69401-B8BB-4CEF-A33A-65E5ADA83450";
paths = (
{
closed = 1;
nodes = (
"327 298 LINE",
"327 0 LINE",
"315 0 LINE",
"315 298 LINE",
"54 700 LINE",
"64 700 LINE SMOOTH",
"67 700 OFFCURVE",
"70 699 OFFCURVE",
"71 696 CURVE SMOOTH",
"307 331 LINE",
"309 327 OFFCURVE",
"312 323 OFFCURVE",
"315 319 CURVE",
"317 315 OFFCURVE",
"320 311 OFFCURVE",
"321 307 CURVE",
"323 311 OFFCURVE",
"326 315 OFFCURVE",
"328 319 CURVE",
"331 323 OFFCURVE",
"333 327 OFFCURVE",
"336 331 CURVE",
"571 696 LINE SMOOTH",
"573 699 OFFCURVE",
"575 700 OFFCURVE",
"578 700 CURVE SMOOTH",
"588 700 LINE"
);
},
{
closed = 1;
nodes = (
"257 818 OFFCURVE",
"243 805 OFFCURVE",
"229 805 CURVE SMOOTH",
"214 805 OFFCURVE",
"201 818 OFFCURVE",
"201 832 CURVE SMOOTH",
"201 848 OFFCURVE",
"214 860 OFFCURVE",
"229 860 CURVE SMOOTH",
"243 860 OFFCURVE",
"257 848 OFFCURVE",
"257 832 CURVE SMOOTH"
);
},
{
closed = 1;
nodes = (
"441 818 OFFCURVE",
"427 805 OFFCURVE",
"413 805 CURVE SMOOTH",
"398 805 OFFCURVE",
"385 818 OFFCURVE",
"385 832 CURVE SMOOTH",
"385 848 OFFCURVE",
"398 860 OFFCURVE",
"413 860 CURVE SMOOTH",
"427 860 OFFCURVE",
"441 848 OFFCURVE",
"441 832 CURVE SMOOTH"
);
}
);
width = 642;
},
{
layerId = "F36DCCA2-8A71-42CF-9609-F852DF368EC0";
paths = (
{
closed = 1;
nodes = (
"393 286 LINE",
"393 0 LINE",
"296 0 LINE",
"296 286 LINE",
"33 717 LINE",
"118 717 LINE SMOOTH",
"136 717 OFFCURVE",
"144 708 OFFCURVE",
"152 694 CURVE SMOOTH",
"316 416 LINE",
"328 392 OFFCURVE",
"338 373 OFFCURVE",
"345 352 CURVE",
"353 373 OFFCURVE",
"362 392 OFFCURVE",
"373 416 CURVE",
"537 694 LINE",
"543 706 OFFCURVE",
"553 717 OFFCURVE",
"570 717 CURVE SMOOTH",
"655 717 LINE"
);
},
{
closed = 1;
nodes = (
"296 819 OFFCURVE",
"289 805 OFFCURVE",
"279 795 CURVE SMOOTH",
"269 785 OFFCURVE",
"254 779 OFFCURVE",
"240 779 CURVE SMOOTH",
"226 779 OFFCURVE",
"212 785 OFFCURVE",
"202 795 CURVE SMOOTH",
"192 805 OFFCURVE",
"186 819 OFFCURVE",
"186 833 CURVE SMOOTH",
"186 849 OFFCURVE",
"192 863 OFFCURVE",
"202 873 CURVE SMOOTH",
"212 883 OFFCURVE",
"226 889 OFFCURVE",
"240 889 CURVE SMOOTH",
"254 889 OFFCURVE",
"269 883 OFFCURVE",
"279 873 CURVE SMOOTH",
"289 863 OFFCURVE",
"296 849 OFFCURVE",
"296 833 CURVE SMOOTH"
);
},
{
closed = 1;
nodes = (
"505 819 OFFCURVE",
"498 805 OFFCURVE",
"488 795 CURVE SMOOTH",
"478 785 OFFCURVE",
"464 779 OFFCURVE",
"450 779 CURVE SMOOTH",
"434 779 OFFCURVE",
"421 785 OFFCURVE",
"411 795 CURVE SMOOTH",
"401 805 OFFCURVE",
"395 819 OFFCURVE",
"395 833 CURVE SMOOTH",
"395 849 OFFCURVE",
"401 863 OFFCURVE",
"411 873 CURVE SMOOTH",
"421 883 OFFCURVE",
"434 889 OFFCURVE",
"450 889 CURVE SMOOTH",
"464 889 OFFCURVE",
"478 883 OFFCURVE",
"488 873 CURVE SMOOTH",
"498 863 OFFCURVE",
"505 849 OFFCURVE",
"505 833 CURVE SMOOTH"
);
}
);
width = 688;
},
{
layerId = "A9E408DD-A955-440F-BEB6-B96F0772F152";
paths = (
{
closed = 1;
nodes = (
"422 280 LINE",
"422 0 LINE",
"288 0 LINE",
"288 280 LINE",
"24 723 LINE",
"143 723 LINE SMOOTH",
"167 723 OFFCURVE",
"179 711 OFFCURVE",
"188 693 CURVE SMOOTH",
"320 452 LINE SMOOTH",
"336 423 OFFCURVE",
"347 399 OFFCURVE",
"356 373 CURVE",
"365 399 OFFCURVE",
"376 423 OFFCURVE",
"391 452 CURVE SMOOTH",
"522 693 LINE SMOOTH",
"530 708 OFFCURVE",
"544 723 OFFCURVE",
"567 723 CURVE SMOOTH",
"686 723 LINE"
);
},
{
closed = 1;
nodes = (
"313 816 OFFCURVE",
"305 799 OFFCURVE",
"293 787 CURVE SMOOTH",
"281 775 OFFCURVE",
"263 768 OFFCURVE",
"245 768 CURVE SMOOTH",
"227 768 OFFCURVE",
"211 775 OFFCURVE",
"199 787 CURVE SMOOTH",
"187 799 OFFCURVE",
"179 816 OFFCURVE",
"179 834 CURVE SMOOTH",
"179 852 OFFCURVE",
"187 869 OFFCURVE",
"199 881 CURVE SMOOTH",
"211 893 OFFCURVE",
"227 901 OFFCURVE",
"245 901 CURVE SMOOTH",
"263 901 OFFCURVE",
"281 893 OFFCURVE",
"293 881 CURVE",
"305 869 OFFCURVE",
"313 852 OFFCURVE",
"313 834 CURVE SMOOTH"
);
},
{
closed = 1;
nodes = (
"533 816 OFFCURVE",
"526 799 OFFCURVE",
"514 787 CURVE SMOOTH",
"501 775 OFFCURVE",
"484 768 OFFCURVE",
"466 768 CURVE SMOOTH",
"448 768 OFFCURVE",
"431 775 OFFCURVE",
"419 787 CURVE SMOOTH",
"407 799 OFFCURVE",
"399 816 OFFCURVE",
"399 834 CURVE SMOOTH",
"399 852 OFFCURVE",
"407 869 OFFCURVE",
"419 881 CURVE SMOOTH",
"431 893 OFFCURVE",
"448 901 OFFCURVE",
"466 901 CURVE SMOOTH",
"484 901 OFFCURVE",
"501 893 OFFCURVE",
"514 881 CURVE",
"526 869 OFFCURVE",
"533 852 OFFCURVE",
"533 834 CURVE SMOOTH"
);
}
);
width = 710;
}
);
leftKerningGroup = Y;
note = Ydieresis;
rightKerningGroup = Y;
unicode = 0178;
},
{
glyphname = Z;
lastChange = "2021-09-03 08:48:21 +0000";
layers = (
{
layerId = "7DA69401-B8BB-4CEF-A33A-65E5ADA83450";
paths = (
{
closed = 1;
nodes = (
"568 698 LINE SMOOTH",
"568 695 OFFCURVE",
"566 692 OFFCURVE",
"564 688 CURVE SMOOTH",
"77 11 LINE",
"567 11 LINE",
"567 0 LINE",
"60 0 LINE",
"60 2 LINE SMOOTH",
"60 6 OFFCURVE",
"61 8 OFFCURVE",
"63 11 CURVE",
"551 689 LINE",
"68 689 LINE",
"68 700 LINE",
"568 700 LINE"
);
}
);
width = 629;
},
{
layerId = "F36DCCA2-8A71-42CF-9609-F852DF368EC0";
paths = (
{
closed = 1;
nodes = (
"592 681 LINE SMOOTH",
"592 670 OFFCURVE",
"588 659 OFFCURVE",
"582 649 CURVE",
"176 79 LINE",
"586 79 LINE",
"586 0 LINE",
"49 0 LINE",
"49 38 LINE SMOOTH",
"49 49 OFFCURVE",
"53 58 OFFCURVE",
"58 67 CURVE",
"465 638 LINE",
"68 638 LINE",
"68 717 LINE",
"592 717 LINE"
);
}
);
width = 643;
},
{
layerId = "A9E408DD-A955-440F-BEB6-B96F0772F152";
paths = (
{
closed = 1;
nodes = (
"602 674 LINE SMOOTH",
"602 658 OFFCURVE",
"597 644 OFFCURVE",
"589 632 CURVE SMOOTH",
"218 108 LINE",
"593 108 LINE",
"593 0 LINE",
"43 0 LINE",
"43 53 LINE SMOOTH",
"43 67 OFFCURVE",
"48 79 OFFCURVE",
"56 90 CURVE SMOOTH",
"428 616 LINE",
"67 616 LINE",
"67 723 LINE",
"602 723 LINE"
);
}
);
width = 649;
}
);
leftKerningGroup = Z;
note = Z;
rightKerningGroup = Z;
unicode = 005A;
},
{
glyphname = Zcaron;
lastChange = "2021-09-03 08:48:21 +0000";
layers = (
{
layerId = "7DA69401-B8BB-4CEF-A33A-65E5ADA83450";
paths = (
{
closed = 1;
nodes = (
"568 698 LINE SMOOTH",
"568 695 OFFCURVE",
"566 692 OFFCURVE",
"564 688 CURVE SMOOTH",
"77 11 LINE",
"567 11 LINE",
"567 0 LINE",
"60 0 LINE",
"60 2 LINE SMOOTH",
"60 6 OFFCURVE",
"61 8 OFFCURVE",
"63 11 CURVE",
"551 689 LINE",
"68 689 LINE",
"68 700 LINE",
"568 700 LINE"
);
},
{
closed = 1;
nodes = (
"441 901 LINE",
"325 769 LINE",
"317 769 LINE",
"201 901 LINE",
"211 901 LINE SMOOTH",
"214 901 OFFCURVE",
"217 901 OFFCURVE",
"221 897 CURVE",
"319 780 LINE",
"321 777 LINE",
"323 780 LINE",
"421 897 LINE",
"424 901 OFFCURVE",
"427 901 OFFCURVE",
"431 901 CURVE SMOOTH"
);
}
);
width = 629;
},
{
layerId = "F36DCCA2-8A71-42CF-9609-F852DF368EC0";
paths = (
{
closed = 1;
nodes = (
"592 681 LINE SMOOTH",
"592 670 OFFCURVE",
"588 659 OFFCURVE",
"582 649 CURVE",
"176 79 LINE",
"586 79 LINE",
"586 0 LINE",
"49 0 LINE",
"49 38 LINE SMOOTH",
"49 49 OFFCURVE",
"53 58 OFFCURVE",
"58 67 CURVE",
"465 638 LINE",
"68 638 LINE",
"68 717 LINE",
"592 717 LINE"
);
},
{
closed = 1;
nodes = (
"493 909 LINE",
"374 773 LINE",
"291 773 LINE",
"172 909 LINE",
"237 909 LINE SMOOTH",
"245 909 OFFCURVE",
"257 909 OFFCURVE",
"265 897 CURVE",
"326 822 LINE",
"332 813 LINE",
"338 822 LINE",
"399 897 LINE",
"407 909 OFFCURVE",
"420 909 OFFCURVE",
"428 909 CURVE SMOOTH"
);
}
);
width = 643;
},
{
layerId = "A9E408DD-A955-440F-BEB6-B96F0772F152";
paths = (
{
closed = 1;
nodes = (
"602 674 LINE SMOOTH",
"602 658 OFFCURVE",
"597 644 OFFCURVE",
"589 632 CURVE SMOOTH",
"218 108 LINE",
"593 108 LINE",
"593 0 LINE",
"43 0 LINE",
"43 53 LINE SMOOTH",
"43 67 OFFCURVE",
"48 79 OFFCURVE",
"56 90 CURVE SMOOTH",
"428 616 LINE",
"67 616 LINE",
"67 723 LINE",
"602 723 LINE"
);
},
{
closed = 1;
nodes = (
"515 912 LINE",
"394 775 LINE",
"278 775 LINE",
"158 912 LINE",
"247 912 LINE SMOOTH",
"257 912 OFFCURVE",
"273 912 OFFCURVE",
"284 897 CURVE SMOOTH",
"329 839 LINE",
"330 837 OFFCURVE",
"332 835 OFFCURVE",
"333 833 CURVE",
"334 831 OFFCURVE",
"335 829 OFFCURVE",
"336 828 CURVE",
"337 829 OFFCURVE",
"338 831 OFFCURVE",
"340 833 CURVE",
"341 835 OFFCURVE",
"342 837 OFFCURVE",
"344 839 CURVE",
"388 897 LINE SMOOTH",
"399 912 OFFCURVE",
"415 912 OFFCURVE",
"425 912 CURVE SMOOTH"
);
}
);
width = 649;
}
);
leftKerningGroup = Z;
note = Zcaron;
rightKerningGroup = Z;
unicode = 017D;
},
{
color = 1;
glyphname = a;
lastChange = "2021-09-03 08:48:18 +0000";
layers = (
{
layerId = "7DA69401-B8BB-4CEF-A33A-65E5ADA83450";
paths = (
{
closed = 1;
nodes = (
"377 251 LINE",
"272 248 OFFCURVE",
"194 235 OFFCURVE",
"143 212 CURVE SMOOTH",
"92 189 OFFCURVE",
"66 157 OFFCURVE",
"66 115 CURVE SMOOTH",
"66 76 OFFCURVE",
"80 48 OFFCURVE",
"102 30 CURVE SMOOTH",
"123 11 OFFCURVE",
"152 2 OFFCURVE",
"180 2 CURVE SMOOTH",
"226 2 OFFCURVE",
"263 14 OFFCURVE",
"295 32 CURVE SMOOTH",
"326 50 OFFCURVE",
"353 74 OFFCURVE",
"377 100 CURVE"
);
},
{
closed = 1;
nodes = (
"80 420 LINE",
"128 471 OFFCURVE",
"176 498 OFFCURVE",
"244 498 CURVE SMOOTH",
"294 498 OFFCURVE",
"330 482 OFFCURVE",
"354 452 CURVE SMOOTH",
"378 422 OFFCURVE",
"389 378 OFFCURVE",
"389 324 CURVE SMOOTH",
"389 0 LINE",
"387 0 LINE SMOOTH",
"383 0 OFFCURVE",
"380 3 OFFCURVE",
"380 8 CURVE",
"377 88 LINE",
"349 59 OFFCURVE",
"322 35 OFFCURVE",
"291 18 CURVE SMOOTH",
"259 2 OFFCURVE",
"224 -8 OFFCURVE",
"180 -8 CURVE SMOOTH",
"151 -8 OFFCURVE",
"119 1 OFFCURVE",
"95 21 CURVE SMOOTH",
"71 40 OFFCURVE",
"54 71 OFFCURVE",
"54 115 CURVE SMOOTH",
"54 159 OFFCURVE",
"80 195 OFFCURVE",
"133 219 CURVE SMOOTH",
"186 244 OFFCURVE",
"267 259 OFFCURVE",
"377 261 CURVE",
"377 324 LINE SMOOTH",
"377 376 OFFCURVE",
"366 417 OFFCURVE",
"344 445 CURVE SMOOTH",
"322 473 OFFCURVE",
"288 488 OFFCURVE",
"244 488 CURVE SMOOTH",
"210 488 OFFCURVE",
"182 480 OFFCURVE",
"160 469 CURVE SMOOTH",
"138 459 OFFCURVE",
"122 445 OFFCURVE",
"110 434 CURVE SMOOTH",
"104 429 OFFCURVE",
"99 424 OFFCURVE",
"95 421 CURVE SMOOTH",
"92 417 OFFCURVE",
"89 415 OFFCURVE",
"87 415 CURVE SMOOTH",
"86 415 OFFCURVE",
"84 416 OFFCURVE",
"82 418 CURVE SMOOTH"
);
}
);
width = 483;
},
{
layerId = "F36DCCA2-8A71-42CF-9609-F852DF368EC0";
paths = (
{
closed = 1;
nodes = (
"351 228 LINE",
"269 226 OFFCURVE",
"212 215 OFFCURVE",
"176 198 CURVE SMOOTH",
"140 182 OFFCURVE",
"124 159 OFFCURVE",
"124 131 CURVE SMOOTH",
"124 104 OFFCURVE",
"134 85 OFFCURVE",
"149 73 CURVE SMOOTH",
"164 60 OFFCURVE",
"184 55 OFFCURVE",
"208 55 CURVE SMOOTH",
"239 55 OFFCURVE",
"265 61 OFFCURVE",
"288 73 CURVE SMOOTH",
"311 85 OFFCURVE",
"331 102 OFFCURVE",
"351 123 CURVE"
);
},
{
closed = 1;
nodes = (
"64 435 LINE",
"120 489 OFFCURVE",
"183 516 OFFCURVE",
"262 516 CURVE SMOOTH",
"318 516 OFFCURVE",
"363 496 OFFCURVE",
"393 463 CURVE SMOOTH",
"423 429 OFFCURVE",
"438 381 OFFCURVE",
"438 324 CURVE SMOOTH",
"438 0 LINE",
"399 0 LINE SMOOTH",
"381 0 OFFCURVE",
"373 5 OFFCURVE",
"368 21 CURVE",
"358 69 LINE",
"331 45 OFFCURVE",
"307 26 OFFCURVE",
"279 13 CURVE SMOOTH",
"251 -1 OFFCURVE",
"220 -8 OFFCURVE",
"181 -8 CURVE SMOOTH",
"142 -8 OFFCURVE",
"106 3 OFFCURVE",
"81 25 CURVE SMOOTH",
"55 47 OFFCURVE",
"39 81 OFFCURVE",
"39 127 CURVE SMOOTH",
"39 167 OFFCURVE",
"59 205 OFFCURVE",
"109 234 CURVE SMOOTH",
"158 262 OFFCURVE",
"236 282 OFFCURVE",
"351 285 CURVE",
"351 324 LINE SMOOTH",
"351 403 OFFCURVE",
"317 444 OFFCURVE",
"251 444 CURVE SMOOTH",
"207 444 OFFCURVE",
"179 431 OFFCURVE",
"158 417 CURVE SMOOTH",
"147 410 OFFCURVE",
"137 404 OFFCURVE",
"130 399 CURVE SMOOTH",
"122 393 OFFCURVE",
"114 390 OFFCURVE",
"106 390 CURVE SMOOTH",
"94 390 OFFCURVE",
"86 397 OFFCURVE",
"80 407 CURVE"
);
}
);
width = 514;
},
{
layerId = "A9E408DD-A955-440F-BEB6-B96F0772F152";
paths = (
{
closed = 1;
nodes = (
"340 219 LINE",
"269 216 OFFCURVE",
"221 207 OFFCURVE",
"192 193 CURVE SMOOTH",
"162 179 OFFCURVE",
"151 160 OFFCURVE",
"151 138 CURVE SMOOTH",
"151 94 OFFCURVE",
"179 77 OFFCURVE",
"220 77 CURVE SMOOTH",
"271 77 OFFCURVE",
"305 95 OFFCURVE",
"340 133 CURVE"
);
},
{
closed = 1;
nodes = (
"57 442 LINE",
"116 496 OFFCURVE",
"187 523 OFFCURVE",
"270 523 CURVE SMOOTH",
"330 523 OFFCURVE",
"378 502 OFFCURVE",
"411 467 CURVE SMOOTH",
"443 432 OFFCURVE",
"461 382 OFFCURVE",
"461 324 CURVE SMOOTH",
"461 0 LINE",
"405 0 LINE SMOOTH",
"381 0 OFFCURVE",
"370 5 OFFCURVE",
"363 27 CURVE",
"352 64 LINE",
"326 40 OFFCURVE",
"302 23 OFFCURVE",
"275 11 CURVE SMOOTH",
"249 -2 OFFCURVE",
"219 -8 OFFCURVE",
"182 -8 CURVE SMOOTH",
"139 -8 OFFCURVE",
"101 4 OFFCURVE",
"75 27 CURVE SMOOTH",
"48 51 OFFCURVE",
"33 85 OFFCURVE",
"33 131 CURVE SMOOTH",
"33 157 OFFCURVE",
"41 183 OFFCURVE",
"61 207 CURVE SMOOTH",
"80 230 OFFCURVE",
"111 251 OFFCURVE",
"157 267 CURVE SMOOTH",
"202 282 OFFCURVE",
"262 292 OFFCURVE",
"340 294 CURVE",
"340 324 LINE SMOOTH",
"340 393 OFFCURVE",
"310 425 OFFCURVE",
"255 425 CURVE SMOOTH",
"215 425 OFFCURVE",
"190 414 OFFCURVE",
"170 403 CURVE SMOOTH",
"150 391 OFFCURVE",
"136 380 OFFCURVE",
"116 380 CURVE SMOOTH",
"98 380 OFFCURVE",
"87 390 OFFCURVE",
"79 402 CURVE"
);
}
);
width = 529;
}
);
leftKerningGroup = a;
note = a;
rightKerningGroup = a;
unicode = 0061;
},
{
glyphname = aacute;
lastChange = "2021-09-03 08:48:19 +0000";
layers = (
{
layerId = "7DA69401-B8BB-4CEF-A33A-65E5ADA83450";
paths = (
{
closed = 1;
nodes = (
"377 251 LINE",
"272 248 OFFCURVE",
"194 235 OFFCURVE",
"143 212 CURVE SMOOTH",
"92 189 OFFCURVE",
"66 157 OFFCURVE",
"66 115 CURVE SMOOTH",
"66 76 OFFCURVE",
"80 48 OFFCURVE",
"102 30 CURVE SMOOTH",
"123 11 OFFCURVE",
"152 2 OFFCURVE",
"180 2 CURVE SMOOTH",
"226 2 OFFCURVE",
"263 14 OFFCURVE",
"295 32 CURVE SMOOTH",
"326 50 OFFCURVE",
"353 74 OFFCURVE",
"377 100 CURVE"
);
},
{
closed = 1;
nodes = (
"80 420 LINE",
"128 471 OFFCURVE",
"176 498 OFFCURVE",
"244 498 CURVE SMOOTH",
"294 498 OFFCURVE",
"330 482 OFFCURVE",
"354 452 CURVE SMOOTH",
"378 422 OFFCURVE",
"389 378 OFFCURVE",
"389 324 CURVE SMOOTH",
"389 0 LINE",
"387 0 LINE SMOOTH",
"383 0 OFFCURVE",
"380 3 OFFCURVE",
"380 8 CURVE",
"377 88 LINE",
"349 59 OFFCURVE",
"322 35 OFFCURVE",
"291 18 CURVE SMOOTH",
"259 2 OFFCURVE",
"224 -8 OFFCURVE",
"180 -8 CURVE SMOOTH",
"151 -8 OFFCURVE",
"119 1 OFFCURVE",
"95 21 CURVE SMOOTH",
"71 40 OFFCURVE",
"54 71 OFFCURVE",
"54 115 CURVE SMOOTH",
"54 159 OFFCURVE",
"80 195 OFFCURVE",
"133 219 CURVE SMOOTH",
"186 244 OFFCURVE",
"267 259 OFFCURVE",
"377 261 CURVE",
"377 324 LINE SMOOTH",
"377 376 OFFCURVE",
"366 417 OFFCURVE",
"344 445 CURVE SMOOTH",
"322 473 OFFCURVE",
"288 488 OFFCURVE",
"244 488 CURVE SMOOTH",
"210 488 OFFCURVE",
"182 480 OFFCURVE",
"160 469 CURVE SMOOTH",
"138 459 OFFCURVE",
"122 445 OFFCURVE",
"110 434 CURVE SMOOTH",
"104 429 OFFCURVE",
"99 424 OFFCURVE",
"95 421 CURVE SMOOTH",
"92 417 OFFCURVE",
"89 415 OFFCURVE",
"87 415 CURVE SMOOTH",
"86 415 OFFCURVE",
"84 416 OFFCURVE",
"82 418 CURVE SMOOTH"
);
},
{
closed = 1;
nodes = (
"319 708 LINE",
"218 583 LINE",
"217 581 OFFCURVE",
"214 579 OFFCURVE",
"210 579 CURVE SMOOTH",
"203 579 LINE",
"285 697 LINE",
"291 707 OFFCURVE",
"295 708 OFFCURVE",
"306 708 CURVE SMOOTH"
);
}
);
width = 483;
},
{
layerId = "F36DCCA2-8A71-42CF-9609-F852DF368EC0";
paths = (
{
closed = 1;
nodes = (
"351 228 LINE",
"269 226 OFFCURVE",
"212 215 OFFCURVE",
"176 198 CURVE SMOOTH",
"140 182 OFFCURVE",
"124 159 OFFCURVE",
"124 131 CURVE SMOOTH",
"124 104 OFFCURVE",
"134 85 OFFCURVE",
"149 73 CURVE SMOOTH",
"164 60 OFFCURVE",
"184 55 OFFCURVE",
"208 55 CURVE SMOOTH",
"239 55 OFFCURVE",
"265 61 OFFCURVE",
"288 73 CURVE SMOOTH",
"311 85 OFFCURVE",
"331 102 OFFCURVE",
"351 123 CURVE"
);
},
{
closed = 1;
nodes = (
"64 435 LINE",
"120 489 OFFCURVE",
"183 516 OFFCURVE",
"262 516 CURVE SMOOTH",
"318 516 OFFCURVE",
"363 496 OFFCURVE",
"393 463 CURVE SMOOTH",
"423 429 OFFCURVE",
"438 381 OFFCURVE",
"438 324 CURVE SMOOTH",
"438 0 LINE",
"399 0 LINE SMOOTH",
"381 0 OFFCURVE",
"373 5 OFFCURVE",
"368 21 CURVE",
"358 69 LINE",
"331 45 OFFCURVE",
"307 26 OFFCURVE",
"279 13 CURVE SMOOTH",
"251 -1 OFFCURVE",
"220 -8 OFFCURVE",
"181 -8 CURVE SMOOTH",
"142 -8 OFFCURVE",
"106 3 OFFCURVE",
"81 25 CURVE SMOOTH",
"55 47 OFFCURVE",
"39 81 OFFCURVE",
"39 127 CURVE SMOOTH",
"39 167 OFFCURVE",
"59 205 OFFCURVE",
"109 234 CURVE SMOOTH",
"158 262 OFFCURVE",
"236 282 OFFCURVE",
"351 285 CURVE",
"351 324 LINE SMOOTH",
"351 403 OFFCURVE",
"317 444 OFFCURVE",
"251 444 CURVE SMOOTH",
"207 444 OFFCURVE",
"179 431 OFFCURVE",
"158 417 CURVE SMOOTH",
"147 410 OFFCURVE",
"137 404 OFFCURVE",
"130 399 CURVE SMOOTH",
"122 393 OFFCURVE",
"114 390 OFFCURVE",
"106 390 CURVE SMOOTH",
"94 390 OFFCURVE",
"86 397 OFFCURVE",
"80 407 CURVE"
);
},
{
closed = 1;
nodes = (
"396 725 LINE",
"280 596 LINE SMOOTH",
"270 586 OFFCURVE",
"263 582 OFFCURVE",
"249 582 CURVE SMOOTH",
"196 582 LINE",
"270 703 LINE SMOOTH",
"279 718 OFFCURVE",
"288 725 OFFCURVE",
"309 725 CURVE SMOOTH"
);
}
);
width = 514;
},
{
layerId = "A9E408DD-A955-440F-BEB6-B96F0772F152";
paths = (
{
closed = 1;
nodes = (
"340 219 LINE",
"269 216 OFFCURVE",
"221 207 OFFCURVE",
"192 193 CURVE SMOOTH",
"162 179 OFFCURVE",
"151 160 OFFCURVE",
"151 138 CURVE SMOOTH",
"151 94 OFFCURVE",
"179 77 OFFCURVE",
"220 77 CURVE SMOOTH",
"271 77 OFFCURVE",
"305 95 OFFCURVE",
"340 133 CURVE"
);
},
{
closed = 1;
nodes = (
"57 442 LINE",
"116 496 OFFCURVE",
"187 523 OFFCURVE",
"270 523 CURVE SMOOTH",
"330 523 OFFCURVE",
"378 502 OFFCURVE",
"411 467 CURVE SMOOTH",
"443 432 OFFCURVE",
"461 382 OFFCURVE",
"461 324 CURVE SMOOTH",
"461 0 LINE",
"405 0 LINE SMOOTH",
"381 0 OFFCURVE",
"370 5 OFFCURVE",
"363 27 CURVE",
"352 64 LINE",
"326 40 OFFCURVE",
"302 23 OFFCURVE",
"275 11 CURVE SMOOTH",
"249 -2 OFFCURVE",
"219 -8 OFFCURVE",
"182 -8 CURVE SMOOTH",
"139 -8 OFFCURVE",
"101 4 OFFCURVE",
"75 27 CURVE SMOOTH",
"48 51 OFFCURVE",
"33 85 OFFCURVE",
"33 131 CURVE SMOOTH",
"33 157 OFFCURVE",
"41 183 OFFCURVE",
"61 207 CURVE SMOOTH",
"80 230 OFFCURVE",
"111 251 OFFCURVE",
"157 267 CURVE SMOOTH",
"202 282 OFFCURVE",
"262 292 OFFCURVE",
"340 294 CURVE",
"340 324 LINE SMOOTH",
"340 393 OFFCURVE",
"310 425 OFFCURVE",
"255 425 CURVE SMOOTH",
"215 425 OFFCURVE",
"190 414 OFFCURVE",
"170 403 CURVE SMOOTH",
"150 391 OFFCURVE",
"136 380 OFFCURVE",
"116 380 CURVE SMOOTH",
"98 380 OFFCURVE",
"87 390 OFFCURVE",
"79 402 CURVE"
);
},
{
closed = 1;
nodes = (
"432 731 LINE",
"308 601 LINE SMOOTH",
"296 587 OFFCURVE",
"286 583 OFFCURVE",
"267 583 CURVE SMOOTH",
"193 583 LINE",
"264 705 LINE SMOOTH",
"274 722 OFFCURVE",
"285 731 OFFCURVE",
"312 731 CURVE SMOOTH"
);
}
);
width = 529;
}
);
leftKerningGroup = a;
note = aacute;
rightKerningGroup = a;
unicode = 00E1;
},
